<svg xmlns="http://www.w3.org/2000/svg" xmlns:xlink="http://www.w3.org/1999/xlink" width="47.25" height="47.25" viewBox="0 0 47.25 47.25">
  <defs>
    <filter id="Icon_ionic-ios-arrow-dropdown-circle" x="0" y="0" width="47.25" height="47.25" filterUnits="userSpaceOnUse">
      <feOffset dy="3" input="SourceAlpha"/>
      <feGaussianBlur stdDeviation="3" result="blur"/>
      <feFlood flood-opacity="0.161"/>
      <feComposite operator="in" in2="blur"/>
      <feComposite in="SourceGraphic"/>
    </filter>
  </defs>
  <g transform="matrix(1, 0, 0, 1, 0, 0)" filter="url(#Icon_ionic-ios-arrow-dropdown-circle)">
    <path id="Icon_ionic-ios-arrow-dropdown-circle-2" data-name="Icon ionic-ios-arrow-dropdown-circle" d="M3.375,18A14.625,14.625,0,1,0,18,3.375,14.623,14.623,0,0,0,3.375,18ZM23.7,14.948a1.362,1.362,0,0,1,1.92,0,1.34,1.34,0,0,1,.394.956,1.364,1.364,0,0,1-.4.963l-6.63,6.609a1.355,1.355,0,0,1-1.87-.042l-6.729-6.708a1.357,1.357,0,0,1,1.92-1.92l5.7,5.759Z" transform="translate(5.63 2.63)" fill="#414141"/>
  </g>
</svg>
