<svg id="vuesax_outline_arrow-up" data-name="vuesax/outline/arrow-up" xmlns="http://www.w3.org/2000/svg" width="32" height="32.333" viewBox="0 0 32 32.333">
  <rect id="vuesax_outline_arrow-up_Background_" data-name="vuesax/outline/arrow-up (Background)" width="32" height="32" transform="translate(0 0.333)" fill="none"/>
  <g id="vuesax_outline_arrow-up-2" data-name="vuesax/outline/arrow-up">
    <g id="arrow-up">
      <path id="Vector" d="M0,14.333A14.333,14.333,0,1,1,14.333,28.667,14.346,14.346,0,0,1,0,14.333Z" transform="translate(1.667 1.667)" fill="rgba(255,255,255,0.6)"/>
      <path id="Vector-2" data-name="Vector" d="M0,9V1A1.007,1.007,0,0,1,1,0,1.007,1.007,0,0,1,2,1V9a1.007,1.007,0,0,1-1,1A1.007,1.007,0,0,1,0,9Z" transform="translate(15 11.667)" fill="rgba(255,255,255,0.6)"/>
      <path id="Vector-3" data-name="Vector" d="M8.29,5.7,5,2.41,1.7,5.7A1,1,0,0,1,.29,4.29l4-4A1.006,1.006,0,0,1,5.7.29l4,4A1.006,1.006,0,0,1,9.7,5.7a1,1,0,0,1-1.413,0Z" transform="translate(11.003 10.336)" fill="rgba(255,255,255,0.6)"/>
      <path id="Vector-4" data-name="Vector" d="M32,0V32H0V0Z" fill="none" opacity="0"/>
    </g>
  </g>
</svg>
