<?xml version="1.0" encoding="utf-8"?>
<!-- Generator: Adobe Illustrator 25.4.1, SVG Export Plug-In . SVG Version: 6.00 Build 0)  -->
<svg version="1.1" id="Layer_1" xmlns="http://www.w3.org/2000/svg" xmlns:xlink="http://www.w3.org/1999/xlink" x="0px" y="0px"
	 width="160px" height="160px" viewBox="0 0 160 160" style="enable-background:new 0 0 160 160;" xml:space="preserve">
<style type="text/css">
	.st0{fill:#E10F1E;}
	.st1{fill:#FFFFFF;}
</style>
<g id="baggrund">
	<rect x="0" class="st0" width="160" height="160"/>
</g>
<g id="ikon">
	<path class="st1" d="M139.2,63.6c-1.9,0-3.7-1.9-4.9-3.1c-1.2-1.2-3.3-3.2-4.6-3.2s-2.8,1.4-4.1,2.6s-3.6,3.6-5.7,3.6
		s-3-1.3-4.7-3.1c-1.9-1.9-2.6-3.1-4.6-3.1c-1.8,0-3.4,2-4.4,2.9c-1,1-3.2,3.3-4.7,3.3s-3.5-1.7-5-3.2s-2.8-3.4-4.4-3.4
		c-1.6,0-3.1,2-4.4,3.3c-1.3,1.3-3.5,3.3-5.2,3.3s-3.4-1.4-4.7-2.8c-1.4-1.5-2.7-3.4-4.4-3.4c-1.7,0-2.5,1.1-5.1,3.5
		c-2.6,2.4-4.6,2.8-4.6,2.8l-42.8,38.9c0,0,2.8-0.5,5.4-2.8c2.6-2.4,3.4-3.5,5.1-3.5c1.7,0,3.1,1.9,4.4,3.4c1.4,1.5,3.1,2.8,4.7,2.8
		s3.9-2,5.2-3.3s2.8-3.3,4.4-3.3c1.6,0,2.9,1.9,4.4,3.4c1.5,1.5,3.4,3.2,5,3.2s3.8-2.3,4.7-3.3c1-1,2.6-2.9,4.4-2.9
		c2,0,2.8,1.2,4.6,3.1c1.8,1.8,2.7,3.1,4.7,3.1s4.4-2.4,5.7-3.6s2.7-2.6,4.1-2.6s3.4,2,4.6,3.2c1.2,1.2,2.9,3.1,4.9,3.1L139.2,63.6z
		"/>
</g>
</svg>
