<?xml version="1.0" encoding="utf-8"?>
<!-- Generator: Adobe Illustrator 25.4.1, SVG Export Plug-In . SVG Version: 6.00 Build 0)  -->
<svg version="1.1" id="Layer_1" xmlns="http://www.w3.org/2000/svg" xmlns:xlink="http://www.w3.org/1999/xlink" x="0px" y="0px"
	 width="160px" height="160px" viewBox="0 0 160 160" style="enable-background:new 0 0 160 160;" xml:space="preserve">
<style type="text/css">
	.st0{fill:#E10F1E;}
	.st1{display:none;}
	.st2{display:inline;}
	.st3{fill:#FFFFFF;}
</style>
<g id="baggrund">
	<rect class="st0" width="160" height="160"/>
</g>
<g id="fraktion" class="st1">
	<g class="st2">
		<path class="st3" d="M37.8,143.3v-13.4h2c0.9,0,1.6,0.1,2.1,0.2c0.5,0.1,1,0.4,1.4,0.7c0.4,0.3,0.7,0.8,0.9,1.3
			c0.2,0.5,0.3,1,0.3,1.6c0,1-0.4,1.8-1.1,2.4c0.7,0.2,1.3,0.7,1.7,1.3c0.4,0.6,0.6,1.3,0.6,2.1c0,1-0.4,1.9-1.1,2.7
			c-0.4,0.4-0.9,0.8-1.5,0.9c-0.6,0.2-1.4,0.3-2.3,0.3H37.8z M39.9,135.7h0.6c0.8,0,1.3-0.2,1.7-0.5c0.4-0.3,0.5-0.8,0.5-1.5
			c0-0.6-0.2-1.1-0.5-1.4c-0.4-0.3-0.9-0.5-1.6-0.5h-0.7L39.9,135.7L39.9,135.7z M39.9,141.4h1.3c0.9,0,1.6-0.2,2-0.5
			c0.5-0.4,0.7-0.9,0.7-1.5c0-0.6-0.2-1.1-0.7-1.5c-0.4-0.4-1.2-0.6-2.3-0.6h-1L39.9,141.4L39.9,141.4z"/>
		<path class="st3" d="M56.2,140.1h-5.7l-1.5,3.3h-2.2l6.6-14.2l6.4,14.2h-2.2L56.2,140.1z M55.4,138.2l-2-4.6l-2.1,4.6H55.4z"/>
		<path class="st3" d="M64,131.8v11.5h-2v-11.5h-3.1v-1.9h8.2v1.9H64z"/>
		<path class="st3" d="M73.2,131.8v11.5h-2v-11.5H68v-1.9h8.2v1.9H73.2z"/>
		<path class="st3" d="M85.8,131.8h-5.4v3.2h5.2v1.9h-5.2v4.5h5.4v1.9h-7.4v-13.4h7.4V131.8z"/>
		<path class="st3" d="M92.8,137.6l4.1,5.7h-2.5l-3.8-5.5h-0.4v5.5h-2v-13.4h2.4c1.8,0,3.1,0.3,3.8,1c0.9,0.7,1.3,1.7,1.3,2.9
			c0,0.9-0.3,1.8-0.8,2.4C94.4,137,93.7,137.4,92.8,137.6z M90.3,136.1h0.6c1.9,0,2.9-0.7,2.9-2.2c0-1.4-0.9-2.1-2.8-2.1h-0.7
			L90.3,136.1L90.3,136.1z"/>
		<path class="st3" d="M100.9,129.9v13.4h-2v-13.4H100.9z"/>
		<path class="st3" d="M111,131.8h-5.4v3.2h5.2v1.9h-5.2v4.5h5.4v1.9h-7.4v-13.4h7.4V131.8z"/>
		<path class="st3" d="M118,137.6l4.1,5.7h-2.5l-3.8-5.5h-0.4v5.5h-2v-13.4h2.4c1.8,0,3.1,0.3,3.8,1c0.9,0.7,1.3,1.7,1.3,2.9
			c0,0.9-0.3,1.8-0.8,2.4C119.6,137,118.9,137.4,118,137.6z M115.5,136.1h0.6c1.9,0,2.9-0.7,2.9-2.2c0-1.4-0.9-2.1-2.8-2.1h-0.7
			L115.5,136.1L115.5,136.1z"/>
	</g>
</g>
<g id="ikon">
	<g>
		<g>
			<polygon class="st3" points="80.6,57.6 80,57.6 79.4,57.6 79.4,57.6 80.6,57.6 			"/>
			<path class="st3" d="M68,113.6h24V51.2H68V113.6z M76,60.7h3.2v-3.1h1.6v3.1H84l0,1.7h-3.2v3.2h-1.6v-3.2H76L76,60.7z M76,105.6
				L76,105.6l8,0v1.6h-8v-0.3V105.6z"/>
			<rect x="74.4" y="46.4" class="st3" width="11.2" height="3.2"/>
		</g>
	</g>
</g>
</svg>
