<?xml version="1.0" encoding="utf-8"?>
<!-- Generator: Adobe Illustrator 25.4.1, SVG Export Plug-In . SVG Version: 6.00 Build 0)  -->
<svg version="1.1" id="Layer_1" xmlns="http://www.w3.org/2000/svg" xmlns:xlink="http://www.w3.org/1999/xlink" x="0px" y="0px"
	 width="160px" height="160px" viewBox="0 0 160 160" style="enable-background:new 0 0 160 160;" xml:space="preserve">
<style type="text/css">
	.st0{fill:#961E82;}
	.st1{display:none;}
	.st2{display:inline;}
	.st3{fill:#FFFFFF;}
</style>
<g id="baggrund">
	<rect class="st0" width="160" height="160"/>
</g>
<g id="fraktion" class="st1">
	<g class="st2">
		<path class="st3" d="M59.9,143.1v-13.5h2.8c1.4,0,2.4,0.1,3.2,0.4c0.8,0.3,1.6,0.7,2.3,1.3c1.4,1.3,2.1,2.9,2.1,5
			c0,2.1-0.7,3.7-2.2,5c-0.7,0.6-1.5,1.1-2.3,1.3c-0.7,0.3-1.8,0.4-3.2,0.4H59.9z M61.9,141.2h0.9c0.9,0,1.7-0.1,2.3-0.3
			c0.6-0.2,1.2-0.5,1.6-1c1-0.9,1.5-2.1,1.5-3.6c0-1.5-0.5-2.7-1.5-3.6c-0.9-0.8-2.2-1.2-3.9-1.2h-0.9V141.2z"/>
		<path class="st3" d="M80.1,139.9h-5.7l-1.5,3.2h-2.2l6.5-13.5h6l0.8,1.9h-5.4l1.4,3.3h5.2l0.9,1.9h-5.2l1.9,4.5h5.4l0.8,1.9h-7.5
			L80.1,139.9z M79.2,138l-1.9-4.4l-2.1,4.4H79.2z"/>
		<path class="st3" d="M93.1,135l5.2-5.4h2.7l-6.1,6.1l6.1,7.4h-2.7l-4.9-6l-0.4,0.4v5.6h-2v-13.5h2L93.1,135L93.1,135z"/>
	</g>
</g>
<g id="ikon">
	<g>
		<g>
			<path class="st3" d="M83.4,68c-0.9-4-2.2-7.5-3.8-10.6c-1.6-3-3.5-5.4-5.5-7c-2.1-1.7-4.3-2.5-6.5-2.5c-1.1,0-2.2,0.2-3.2,0.6
				C60,50.6,56.4,55.1,53.8,61c-0.2,0.6-0.5,1.2-0.7,1.9c-0.5,1.6-1,3.3-1.4,5.1c-0.9,4.1-1.4,8.5-1.4,13.1c0,4.5,0.5,8.9,1.4,13.1
				c0.5,2.4,1.2,4.7,2,6.8c2.7,6.3,6.7,11,11.4,13.1c0.8,0.2,1.6,0.3,2.5,0.3c2.3,0,4.5-0.8,6.5-2.5c1-0.8,1.9-1.7,2.8-2.8
				c0-0.1,0.1-0.1,0.1-0.2c0,0,0,0,0,0c0.9-1.2,1.8-2.5,2.6-4c1.6-3.1,2.9-6.6,3.8-10.6c0.9-4.1,1.4-8.5,1.4-13.1
				C84.8,76.5,84.3,72.1,83.4,68z M59.1,97.1c-2.1-4.3-3.2-10-3.2-16c0-6,1.1-11.7,3.2-16c2.1-4.5,5-6.9,8.2-6.9
				c3.1,0,6.1,2.5,8.2,6.9c2.1,4.3,3.2,10,3.2,16c0,6-1.1,11.7-3.2,16c-2.1,4.5-5,6.9-8.2,6.9C64.1,104,61.2,101.6,59.1,97.1z"/>
			<g>
				<path class="st3" d="M74.4,66.6c-0.1-0.3-0.2-0.5-0.3-0.8c-0.9-1.9-2-3.5-3.2-4.5c-1.2-1-2.4-1.6-3.6-1.6
					c-1.2,0-2.5,0.5-3.6,1.6c-1.2,1-2.3,2.6-3.2,4.5c-2,4.1-3,9.5-3,15.3c0,5.8,1.1,11.2,3,15.3c0.9,1.9,2,3.5,3.2,4.5
					c1.2,1,2.4,1.6,3.6,1.6c1.2,0,2.5-0.5,3.6-1.6c1.2-1,2.3-2.6,3.2-4.5c0.3-0.6,0.6-1.3,0.9-2c-1.5-3.7-2.5-8.9-2.5-14.6
					C72.5,74.7,73.2,70.1,74.4,66.6z"/>
			</g>
		</g>
		<g>
			<polygon class="st3" points="86.6,48.2 91.1,49.9 90.6,53.3 94.9,56.9 94.4,60.9 97.8,64.7 96.9,70 99.5,73.8 97.5,79.9 
				99.5,84.5 97.1,90.3 98.4,94.8 95.2,99.2 95.8,103.7 92.3,106.9 92.3,110.4 88.2,113 88,115 87.9,115 90.8,115 92.7,114 
				92.8,112.1 96.9,109.5 96.9,106.2 100.3,103 99.7,98.8 102.9,94.5 101.6,90.1 104,84.5 102,80 103.9,74 101.4,70.4 102.3,65.1 
				99,61.4 99.4,57.6 95.1,54 95.5,50.9 91.2,49.3 91.2,47 90.4,47 86.6,47 			"/>
			<polygon class="st3" points="86.1,110.4 81.9,113 81.8,115 81.8,115 84.6,115 86.5,114 86.6,112.1 90.7,109.5 90.7,106.2 
				94.1,103 93.5,98.8 96.6,94.5 95.4,90.1 97.8,84.5 95.8,80 97.7,74 95.2,70.4 96.1,65.1 92.8,61.4 93.2,57.6 88.9,54 89.3,50.9 
				84.9,49.3 85,47 80.4,47 80.4,48.2 84.9,49.9 84.4,53.3 88.7,56.9 88.2,60.9 91.6,64.7 90.7,70 93.2,73.8 91.3,79.9 93.3,84.5 
				90.9,90.3 92.2,94.8 89,99.2 89.6,103.7 86.1,106.9 			"/>
			<path class="st3" d="M92.8,47.1l0,1.1l4.5,1.6l-0.5,3.4l4.3,3.6l-0.4,4l3.4,3.8l-1,5.4l2.6,3.7l-1.9,6.1l2,4.6l-2.5,5.8l1.3,4.5
				l-3.2,4.4l0.7,4.4l-3.6,3.2v3.5l-4.1,2.7l-0.1,1.4c9-2.8,15.9-16.7,15.9-33.5C110.2,63.3,102.6,48.9,92.8,47.1z"/>
			<path class="st3" d="M79.4,108.2c-1.3,1.9-2.7,3.5-4.2,4.7c-1.1,0.9-2.3,1.6-3.5,2.1l6.9,0l1.9-1l0.1-1.9l4.1-2.6v-3.3l3.5-3.1
				l-0.6-4.2l3.1-4.3l-1.3-4.3l2.4-5.6l-2-4.5l1.9-5.9L89,70.4l0.9-5.2l-3.3-3.7l0.4-3.8L82.7,54l0.4-3l-4.4-1.6l0.1-2.4l-7.2,0
				c1.2,0.5,2.4,1.2,3.5,2.1c1.5,1.2,3,2.8,4.2,4.7c0.6,0.9,1.1,1.8,1.7,2.8c3.5,6.5,5.4,15.2,5.4,24.4s-1.9,17.9-5.4,24.4
				C80.5,106.4,80,107.3,79.4,108.2z"/>
		</g>
	</g>
</g>
</svg>
