<?xml version="1.0" encoding="utf-8"?>
<!-- Generator: Adobe Illustrator 25.4.1, SVG Export Plug-In . SVG Version: 6.00 Build 0)  -->
<svg version="1.1" id="Layer_1" xmlns="http://www.w3.org/2000/svg" xmlns:xlink="http://www.w3.org/1999/xlink" x="0px" y="0px"
	 width="160px" height="160px" viewBox="0 0 160 160" style="enable-background:new 0 0 160 160;" xml:space="preserve">
<style type="text/css">
	.st0{fill:#141414;}
	.st1{display:none;}
	.st2{display:inline;}
	.st3{fill:#FFFFFF;}
</style>
<g id="baggrund">
	<g>
		<rect class="st0" width="160" height="160"/>
	</g>
</g>
<g id="fraktion" class="st1">
	<g class="st2">
		<path class="st3" d="M47.9,143.3v-13.4h2.8c1.3,0,2.4,0.1,3.2,0.4c0.8,0.3,1.6,0.7,2.3,1.3c1.4,1.3,2.1,2.9,2.1,5
			c0,2.1-0.7,3.7-2.2,5c-0.7,0.6-1.5,1.1-2.3,1.3c-0.7,0.2-1.8,0.4-3.2,0.4L47.9,143.3L47.9,143.3z M49.7,141.4h0.9
			c0.9,0,1.7-0.1,2.3-0.3c0.6-0.2,1.1-0.5,1.6-1c1-0.9,1.5-2.1,1.5-3.6c0-1.5-0.5-2.7-1.5-3.6c-0.9-0.8-2.2-1.2-3.9-1.2h-0.9
			C49.7,131.8,49.7,141.4,49.7,141.4z"/>
		<path class="st3" d="M67.9,131.8h-5.4v3.2h5.2v1.9h-5.2v4.5h5.4v1.9h-7.4v-13.4h7.4V131.8z"/>
		<path class="st3" d="M72.3,137.8v5.4h-2v-13.4h2.3c1.1,0,2,0.1,2.5,0.2c0.6,0.2,1.1,0.5,1.5,0.9c0.8,0.8,1.2,1.7,1.2,2.8
			c0,1.2-0.4,2.2-1.2,2.9c-0.8,0.7-1.9,1.1-3.3,1.1L72.3,137.8L72.3,137.8z M72.3,135.9h0.8c1.9,0,2.8-0.7,2.8-2.1
			c0-1.4-1-2.1-2.9-2.1h-0.7L72.3,135.9L72.3,135.9z"/>
		<path class="st3" d="M79.6,136.5c0-1.9,0.7-3.5,2.1-4.9c1.4-1.4,3-2,5-2c1.9,0,3.5,0.7,4.9,2c1.4,1.4,2.1,3,2.1,4.9
			c0,1.9-0.7,3.6-2.1,4.9c-1.4,1.3-3.1,2-5,2c-1.7,0-3.3-0.6-4.7-1.8C80.4,140.4,79.6,138.6,79.6,136.5z M81.7,136.5
			c0,1.5,0.5,2.7,1.5,3.7c1,1,2.1,1.4,3.4,1.4c1.4,0,2.6-0.5,3.6-1.5c1-1,1.4-2.2,1.4-3.6c0-1.4-0.5-2.6-1.4-3.6
			c-0.9-1-2.1-1.5-3.5-1.5c-1.4,0-2.6,0.5-3.5,1.5C82.2,133.9,81.7,135.1,81.7,136.5z"/>
		<path class="st3" d="M96,143.3v-14.3l9.8,10.2v-9.3h2v14.2l-9.8-10.2v9.4H96z"/>
		<path class="st3" d="M112.3,129.9v13.4h-2v-13.4H112.3z"/>
	</g>
</g>
<g id="ikon">
	<g>
		<polygon class="st3" points="84.1,76.1 84.1,36 76.1,36 76.1,76.1 64.1,76.1 80,98.5 96.1,76.1 		"/>
		<g>
			<path class="st3" d="M125.7,68c-0.2,0.5-6.8,15.9-7.6,17.4c-1.6,2.8-3.6,3.9-5.8,5c-1.4,0.7-2.9,1.5-4.3,2.7
				c-1.6,1.5-2.2,2.2-6.3,7.8c-2,2.7-2.8,4.1-3.8,5.8c-0.6,1.1-1.3,2.2-2.4,4c-1.9,2.9-3.7,5-5.5,6.9c-2.7,2.7-5.5,4.2-8.3,4.7
				c-2.2,0.3-4.4,0-6.7-1c-4.1-1.8-7.6-5.5-9.9-8c-0.5-0.6-1.1-1.2-1.7-1.8c-4.3-4.6-8.7-9.3-11.1-15.7c-0.8-2.2-1.3-3.6-1.7-4.7
				c-0.9-2.5-0.9-2.6-1.8-4.2l0,0c-0.8-1.6-2.9-3.1-4.9-4.6c-1.1-0.9-2.2-1.7-2.9-2.4c-1.7-1.7-4.1-6-6.3-10.3
				c-0.3-0.5-0.5-1.1-0.8-1.6H0l0,1.6h33c2.3,4.7,5,9.5,6.9,11.4c0.8,0.8,1.9,1.6,3.1,2.5c1.8,1.3,3.8,2.9,4.4,4.1l0,0
				c0.8,1.5,0.8,1.5,1.7,4c0.4,1.1,0.9,2.5,1.7,4.7c2.5,6.8,7,11.6,11.4,16.3c0.5,0.6,1.1,1.2,1.6,1.8c2.4,2.6,6,6.5,10.4,8.4
				c1.9,0.8,3.8,1.2,5.6,1.2c0.7,0,1.3-0.1,2-0.2c3.1-0.5,6.2-2.2,9.2-5.1l0,0c1.8-1.9,3.7-4,5.7-7.1c1.1-1.8,1.8-3,2.5-4
				c1-1.7,1.8-3,3.7-5.6c4-5.5,4.6-6.2,6.1-7.6c1.2-1.1,2.5-1.8,3.9-2.5c2.3-1.2,4.6-2.4,6.4-5.6c0.8-1.5,4.4-9.9,7.3-16.5H160
				l0-1.6H125.7z"/>
		</g>
	</g>
</g>
</svg>
