<svg xmlns="http://www.w3.org/2000/svg" width="55.622" height="48.603" viewBox="0 0 55.622 48.603">
  <g id="TablerBiohazard" transform="translate(-1.495 -1.719)">
    <path id="Path_35" data-name="Path 35" d="M10,15.646A5.646,5.646,0,1,0,15.646,10,5.646,5.646,0,0,0,10,15.646" transform="translate(13.681 12.518)" fill="none" stroke="#000" stroke-linecap="round" stroke-linejoin="round" stroke-width="2"/>
    <path id="Path_36" data-name="Path 36" d="M29.155,33.81c0,.488.136.991.158,1.5v.613a13.409,13.409,0,0,1-12.8,13.395H15.9M2.5,35.913A13.409,13.409,0,0,1,24.336,25.488M42.722,49.322a13.409,13.409,0,0,1-13.24-15.535h-.169m4.98-8.311a13.409,13.409,0,0,1,21.824,9.815V35.9m-31.6-10.764a13.409,13.409,0,0,1-5.16-21.522l.463-.486m18.964,0a13.409,13.409,0,0,1-4.7,22.013" transform="translate(0)" fill="none" stroke="#000" stroke-linecap="round" stroke-linejoin="round" stroke-width="2"/>
  </g>
</svg>
