<?xml version="1.0" encoding="utf-8"?>
<!-- Generator: Adobe Illustrator 25.4.1, SVG Export Plug-In . SVG Version: 6.00 Build 0)  -->
<svg version="1.1" id="Layer_1" xmlns="http://www.w3.org/2000/svg" xmlns:xlink="http://www.w3.org/1999/xlink" x="0px" y="0px"
	 width="160px" height="160px" viewBox="0 0 160 160" style="enable-background:new 0 0 160 160;" xml:space="preserve">
<style type="text/css">
	.st0{fill:#F0910A;}
	.st1{display:none;}
	.st2{display:inline;}
	.st3{fill:#FFFFFF;}
</style>
<g id="baggrund">
	<rect class="st0" width="160" height="160"/>
</g>
<g id="fraktion" class="st1">
	<g class="st2">
		<path class="st3" d="M20.2,110.3h7.5v1.9h-5.3v3.3h5.3v1.9h-5.3v6.3h-2.2V110.3z"/>
		<path class="st3" d="M29.8,110.3H32v11.5h4.9v2h-7.1C29.8,123.8,29.8,110.3,29.8,110.3z"/>
		<path class="st3" d="M46.7,120.3h-5.3l-1.6,3.5h-2.3l6.5-14l6.5,14h-2.3L46.7,120.3z M46,118.5l-1.4-3.1c-0.2-0.4-0.3-0.8-0.5-1.5
			c-0.2,0.7-0.3,1.2-0.5,1.5l-1.4,3.1H46z"/>
		<path class="st3" d="M51.9,110.3h3c2.5,0,4.5,0,6.1,1.3c1.5,1.2,2.4,3.1,2.4,5.5s-0.8,4.3-2.4,5.5c-1.6,1.2-3.3,1.3-5.5,1.3
			c-0.2,0-0.4,0-0.6,0h-3V110.3z M54.9,121.8c0.4,0,0.7,0,1.1,0c1.5,0,2.6-0.1,3.6-0.9c1-0.9,1.5-2.2,1.5-3.9c0-1.7-0.5-3-1.5-3.9
			c-1-0.8-2.2-0.9-3.9-0.9c-0.2,0-0.5,0-0.8,0h-0.8v9.5L54.9,121.8L54.9,121.8z"/>
		<path class="st3" d="M66.5,120.3c0.3,1.2,1.2,1.8,2.6,1.8c1.3,0,2.1-0.8,2.1-2c0-1.3-1-1.6-2.4-2.3c-2.4-1.2-3.7-2.1-3.7-4.1
			c0-2.2,1.6-3.7,4-3.7c2,0,3.4,0.8,3.9,2.2l-1.7,0.9c-0.5-0.8-1.1-1.2-2-1.2c-1.2,0-1.9,0.7-1.9,1.7c0,1.3,1.1,1.7,2.6,2.4
			c2.4,1.1,3.5,2.1,3.5,4c0,2.5-1.7,4.2-4.5,4.2c-2.3,0-3.8-1.1-4.3-3L66.5,120.3z"/>
		<path class="st3" d="M75.6,110.3h2.2v5.6l4.8-5.6h2.7l-5.3,6l6,7.5h-2.8l-5.3-6.9v6.9h-2.2C75.6,123.8,75.6,110.3,75.6,110.3z"/>
		<path class="st3" d="M99.7,112.2h-4.9l1.2,3.3h4.5l0.7,1.9h-4.5l1.6,4.4h4.9l0.7,2H97l-1.3-3.5h-5.3l-1.6,3.5h-2.3l6.3-13.5H99
			L99.7,112.2z M95,118.5l-1.1-3.1c-0.3-0.8-0.5-1.5-0.7-2.2c-0.1,0.7-0.4,1.3-0.7,2.1l-1.4,3.3L95,118.5L95,118.5z"/>
		<path class="st3" d="M107.5,123.8h-2.1v-13.5h3c1.4,0,2.5,0.1,3.3,0.8c0.8,0.6,1.3,1.7,1.3,3c0,2.2-1.1,3.4-3.1,3.6l4.6,6.1h-2.5
			l-4.5-6h-0.2L107.5,123.8L107.5,123.8z M108,116.1c1.9,0,2.9-0.2,2.9-1.8c0-1.7-0.9-2-2.9-2h-0.4v3.9H108z"/>
		<path class="st3" d="M127.4,115.3c-0.1,0.6-0.3,1.2-0.6,1.9l-3.5,7.2l-3.5-7.3c-0.3-0.5-0.5-1.1-0.7-1.7c0,0.6-0.1,1.3-0.2,1.9
			l-1.4,6.6h-2l3.2-14l4,8.4c0.1,0.2,0.4,0.8,0.7,1.8c0.3-0.8,0.6-1.4,0.8-1.8l3.9-8.4l3.3,14h-2l-1.5-6.6
			C127.6,116.9,127.6,116.3,127.4,115.3z"/>
		<path class="st3" d="M132.9,110.3h7.5v1.9h-5.3v3.4h5.3v1.9h-5.3v4.3h5.3v2h-7.5V110.3z"/>
		<path class="st3" d="M38.7,141.9c-1.3,1.1-2.6,1.6-4.2,1.6c-2.5,0-4.2-1.6-4.2-3.8c0-1.6,1-2.8,3-4.1l-0.5-0.6
			c-0.6-0.7-0.9-1.4-0.9-2.2c0-1.7,1.4-3,3.5-3s3.3,1.1,3.3,2.8c0,1.4-0.9,2.4-2.6,3.4l2.8,3.3c0.6-0.6,1.2-1.3,1.7-2.1l1.3,1.4
			c-0.5,0.8-1.1,1.5-1.8,2.1l2.3,2.6h-2.5L38.7,141.9z M34.5,137.1l-0.3,0.2c-1.1,0.7-1.7,1.3-1.7,2.3c0,1.2,0.9,2.1,2.2,2.1
			c0.9,0,1.8-0.4,2.8-1.3L34.5,137.1z M35.5,134.4c0.7-0.4,1-0.9,1-1.6c0-0.8-0.5-1.3-1.3-1.3c-0.8,0-1.4,0.5-1.4,1.3
			c0,0.4,0.2,0.7,0.4,1.1l0.7,0.8L35.5,134.4z"/>
		<path class="st3" d="M49.6,129.8H53c1.4,0,2.5,0.1,3.3,0.7c0.8,0.6,1.3,1.6,1.3,2.8c0,1.4-0.7,2.4-1.9,2.8
			c1.6,0.2,2.5,1.5,2.5,3.3c0,1.1-0.4,2.1-1.1,2.8c-1,1-2.2,1-4.1,1h-3.4V129.8z M52.6,135.4c2,0,2.9-0.5,2.9-1.9c0-1.7-0.9-2-2.9-2
			h-0.8v3.9H52.6z M52.5,141.4c1.2,0,2.1-0.1,2.6-0.4c0.5-0.4,0.8-1,0.8-1.7c0-0.8-0.4-1.5-1-1.9c-0.5-0.3-1.1-0.3-1.8-0.3
			c-0.2,0-0.4,0-0.7,0h-0.8v4.3L52.5,141.4L52.5,141.4z"/>
		<path class="st3" d="M71.8,131.6h-4.9l1.2,3.3h4.5l0.7,1.9h-4.5l1.6,4.4h4.9l0.7,2H69l-1.3-3.5h-5.3l-1.6,3.5h-2.3l6.3-13.5H71
			L71.8,131.6z M67,137.9l-1.1-3.1c-0.3-0.8-0.5-1.5-0.7-2.2c-0.1,0.7-0.4,1.3-0.7,2.1l-1.4,3.3H67z"/>
		<path class="st3" d="M79.5,143.2h-2.1v-13.5h3c1.4,0,2.5,0.1,3.3,0.8c0.8,0.6,1.3,1.7,1.3,3c0,2.2-1.1,3.4-3.1,3.6l4.6,6.1h-2.5
			l-4.5-6h-0.2V143.2z M80,135.5c1.9,0,2.9-0.2,2.9-1.8c0-1.7-0.9-2-2.9-2h-0.4v3.9H80z"/>
		<path class="st3" d="M88,129.8h3.4c1.4,0,2.5,0.1,3.3,0.7c0.8,0.6,1.3,1.6,1.3,2.8c0,1.4-0.7,2.4-1.9,2.8c1.6,0.2,2.5,1.5,2.5,3.3
			c0,1.1-0.4,2.1-1.1,2.8c-1,1-2.2,1-4.1,1H88L88,129.8L88,129.8z M91,135.4c2,0,2.9-0.5,2.9-1.9c0-1.7-0.9-2-2.9-2h-0.8v3.9H91z
			 M90.9,141.4c1.2,0,2.1-0.1,2.6-0.4c0.5-0.4,0.8-1,0.8-1.7c0-0.8-0.4-1.5-1-1.9c-0.5-0.3-1.1-0.3-1.8-0.3c-0.2,0-0.4,0-0.7,0h-0.8
			v4.3L90.9,141.4L90.9,141.4z"/>
		<path class="st3" d="M106.1,139.8h-5.3l-1.6,3.5h-2.3l6.5-14l6.5,14h-2.3L106.1,139.8z M105.3,137.9l-1.4-3.1
			c-0.2-0.4-0.3-0.8-0.5-1.5c-0.2,0.7-0.3,1.2-0.5,1.5l-1.4,3.1H105.3z"/>
		<path class="st3" d="M113.3,143.2h-2.1v-13.5h3c1.4,0,2.5,0.1,3.3,0.8c0.8,0.6,1.3,1.7,1.3,3c0,2.2-1.1,3.4-3.1,3.6l4.6,6.1H118
			l-4.5-6h-0.2L113.3,143.2L113.3,143.2z M113.8,135.5c1.9,0,2.9-0.2,2.9-1.8c0-1.7-0.9-2-2.9-2h-0.4v3.9H113.8z"/>
		<path class="st3" d="M121.8,129.8h7.5v1.9H124v3.4h5.3v1.9H124v4.3h5.3v2h-7.5C121.8,143.2,121.8,129.8,121.8,129.8z"/>
	</g>
</g>
<g id="ikon">
	<g>
		<rect x="40.9" y="51.8" class="st3" width="78.4" height="46.4"/>
		<path class="st3" d="M120.9,47H39.2c-1.7,0-3.2,1.4-3.2,3.2v49.7c0,1.7,1.4,3.2,3.2,3.2h37.6v14.4H60.1v1.6h40v-1.6H83.3V103h37.6
			c1.7,0,3.2-1.4,3.2-3.2V50.2C124.1,48.4,122.6,47,120.9,47z M120.9,98.2c0,0.9-0.7,1.6-1.6,1.6H40.9c-0.9,0-1.6-0.7-1.6-1.6V51.8
			c0-0.9,0.7-1.6,1.6-1.6h78.4c0.9,0,1.6,0.7,1.6,1.6C120.9,51.8,120.9,98.2,120.9,98.2z"/>
	</g>
</g>
</svg>
