<?xml version="1.0" encoding="utf-8"?>
<!-- Generator: Adobe Illustrator 25.4.1, SVG Export Plug-In . SVG Version: 6.00 Build 0)  -->
<svg version="1.1" id="Layer_1" xmlns="http://www.w3.org/2000/svg" xmlns:xlink="http://www.w3.org/1999/xlink" x="0px" y="0px"
	 width="160px" height="160px" viewBox="0 0 160 160" style="enable-background:new 0 0 160 160;" xml:space="preserve">
<style type="text/css">
	.st0{fill:#961E82;}
	.st1{display:none;}
	.st2{display:inline;}
	.st3{fill:#FFFFFF;}
	.st4{fill:none;}
</style>
<g id="baggrund">
	<rect class="st0" width="160" height="160"/>
</g>
<g id="fraktion" class="st1">
	<g class="st2">
		<path class="st3" d="M38.6,131.6h-4.7v3.2h4.5v1.9h-4.5v6.4h-2v-13.4h6.7V131.6z"/>
		<path class="st3" d="M42.8,129.7v11.5h3.9v1.9h-6v-13.4L42.8,129.7L42.8,129.7z"/>
		<path class="st3" d="M57.9,139.9h-5.7l-1.5,3.3h-2.2l6.6-14.2l6.4,14.2h-2.2L57.9,139.9z M57.1,138l-2-4.6L53,138H57.1z"/>
		<path class="st3" d="M63.3,143.1l2.8-14.4l4.6,10.4l4.8-10.4l2.5,14.4H76l-1.3-8.1l-4,8.7l-3.9-8.7l-1.4,8.1L63.3,143.1
			L63.3,143.1z"/>
		<path class="st3" d="M82.4,129.7v13.4h-2v-13.4H82.4z"/>
		<path class="st3" d="M84.9,143.1v-14.3l9.8,10.2v-9.3h2v14.2l-9.8-10.2v9.4L84.9,143.1L84.9,143.1z"/>
		<path class="st3" d="M106.5,136.2h5.5v0.4c0,1-0.1,1.9-0.4,2.7c-0.2,0.7-0.6,1.4-1.2,2c-1.2,1.4-2.8,2.1-4.7,2.1
			c-1.9,0-3.5-0.7-4.8-2c-1.3-1.4-2-3-2-4.9c0-1.9,0.7-3.6,2-4.9c1.4-1.4,3-2,5-2c1,0,2,0.2,2.9,0.6c0.9,0.4,1.7,1.1,2.6,2.1
			l-1.4,1.4c-1.1-1.5-2.4-2.2-4-2.2c-1.4,0-2.6,0.5-3.6,1.5c-1,1-1.4,2.2-1.4,3.6c0,1.5,0.5,2.7,1.6,3.7c1,0.9,2.1,1.3,3.3,1.3
			c1,0,1.9-0.3,2.7-1c0.8-0.7,1.2-1.5,1.3-2.4h-3.3L106.5,136.2L106.5,136.2z"/>
		<path class="st3" d="M114.3,136.4c0-1.9,0.7-3.5,2.1-4.9c1.4-1.4,3-2,5-2c1.9,0,3.5,0.7,4.9,2c1.4,1.4,2.1,3,2.1,4.9
			c0,1.9-0.7,3.6-2.1,4.9c-1.4,1.3-3.1,2-5,2c-1.7,0-3.3-0.6-4.7-1.8C115.1,140.3,114.3,138.5,114.3,136.4z M116.4,136.4
			c0,1.5,0.5,2.7,1.5,3.7c1,1,2.1,1.4,3.4,1.4c1.4,0,2.6-0.5,3.6-1.5c1-1,1.4-2.2,1.4-3.6c0-1.4-0.5-2.6-1.4-3.6
			c-0.9-1-2.1-1.5-3.5-1.5c-1.4,0-2.6,0.5-3.5,1.5C116.8,133.8,116.4,135,116.4,136.4z"/>
	</g>
</g>
<g id="ikon">
	<g>
		<path class="st4" d="M47.7,82.1l38.6,0h0c1.1,0,1.8-0.2,2.4-0.7c0.2-0.1,25-22.5,25.1-22.5c0.7-0.7,0.7-1.3,0.6-1.7
			c-0.4-0.9-1.6-0.9-1.9-0.9H73.5c-0.4,0-1.1,0.1-1.7,0.7c0,0-0.1,0-25.1,22.6l0,0c-0.7,0.7-0.7,1.3-0.5,1.6
			C46.4,81.9,47.1,82.1,47.7,82.1z M74.7,57.9h37.7c0,0,0.1,0,0.1,0c-2.2,2-24.3,21.9-24.8,22.3c-0.3,0.2-0.7,0.3-1.4,0.3l-11.6,0
			L74.7,57.9z M48.4,80.1c4-3.6,24.7-22.2,24.7-22.2v22.6l-24.5,0C48.4,80.5,48.3,80.3,48.4,80.1z"/>
		<path class="st3" d="M48.6,80.5l24.5,0V57.9c0,0-20.7,18.6-24.7,22.2C48.3,80.3,48.4,80.5,48.6,80.5z"/>
		<path class="st3" d="M87.7,80.2c0.5-0.5,22.6-20.3,24.8-22.3c0,0-0.1,0-0.1,0H74.7l0,22.6l11.6,0C87,80.5,87.4,80.4,87.7,80.2z"/>
		<path class="st3" d="M41,84.5H88c0.9,0,1.8-0.3,2.6-1.1l29.8-26.7c1.3-1.2,0.1-2.7-1.3-2.6l-46.8,0c-0.6,0-1.2,0.2-1.7,0.6
			L39.9,82.2C39.1,82.9,38.7,84.6,41,84.5z M46.6,79.6L46.6,79.6C71.7,57,71.7,57,71.8,57c0.7-0.6,1.3-0.7,1.7-0.7h38.9
			c0.4,0,1.6,0,1.9,0.9c0.2,0.4,0.2,1-0.6,1.7c-0.1,0.1-24.9,22.4-25.1,22.5c-0.6,0.5-1.4,0.7-2.4,0.7h0l-38.6,0
			c-0.6,0-1.4-0.2-1.6-0.9C46,80.9,45.9,80.3,46.6,79.6z"/>
		<path class="st3" d="M90.4,85.6l0,24l0,0l4-3.6l0-3.6c0-0.8,0.3-1.2,1-1.8l2.9-2.6c0.6-0.4,1.2-0.1,1.2,0.7l0,2.7l3.8-3.5l0-3.7
			c0-0.8,0.3-1.2,1-1.8l2.9-2.6c0.6-0.4,1.2-0.1,1.2,0.7l0,2.8l3.8-3.5l0-3.8c0-0.8,0.3-1.2,1-1.8l2.9-2.6c0.6-0.4,1.2-0.1,1.2,0.7
			l0,2.9L121,82V58L90.4,85.6z"/>
		<path class="st3" d="M88.8,86.1l-49.8,0V110h9.7v-2.2c0-1,0.8-1.9,1.9-1.9h5.9c1,0,1.9,0.8,1.9,1.9v2.2h10.8v-2.2
			c0-1,0.8-1.9,1.9-1.9h5.9c1,0,1.9,0.8,1.9,1.9v2.2h10.1L88.8,86.1z"/>
	</g>
</g>
</svg>
