<?xml version="1.0" encoding="utf-8"?>
<!-- Generator: Adobe Illustrator 25.4.1, SVG Export Plug-In . SVG Version: 6.00 Build 0)  -->
<svg version="1.1" id="Layer_1" xmlns="http://www.w3.org/2000/svg" xmlns:xlink="http://www.w3.org/1999/xlink" x="0px" y="0px"
	 width="160px" height="160px" viewBox="0 0 160 160" style="enable-background:new 0 0 160 160;" xml:space="preserve">
<style type="text/css">
	.st0{fill:#826428;}
	.st1{display:none;}
	.st2{display:inline;}
	.st3{fill:#FFFFFF;}
</style>
<g id="baggrund">
	<rect class="st0" width="160" height="160"/>
</g>
<g id="fraktion" class="st1">
	<g class="st2">
		<g>
			<path class="st3" d="M30.8,112.9v13.4h-2v-13.4H30.8z"/>
			<path class="st3" d="M33.3,126.3V112l9.8,10.2v-9.3h2v14.2l-9.8-10.2v9.4C35.4,126.3,33.3,126.3,33.3,126.3z"/>
			<path class="st3" d="M47.7,126.3v-13.4h2.8c1.3,0,2.4,0.1,3.2,0.4c0.8,0.3,1.6,0.7,2.3,1.3c1.4,1.3,2.1,2.9,2.1,5
				c0,2.1-0.7,3.7-2.2,5c-0.7,0.6-1.5,1.1-2.3,1.3c-0.7,0.2-1.8,0.4-3.2,0.4L47.7,126.3L47.7,126.3z M49.7,124.4h0.9
				c0.9,0,1.7-0.1,2.3-0.3c0.6-0.2,1.1-0.5,1.6-1c1-0.9,1.5-2.1,1.5-3.6c0-1.5-0.5-2.7-1.5-3.6c-0.9-0.8-2.2-1.2-3.9-1.2h-0.9
				L49.7,124.4L49.7,124.4z"/>
			<path class="st3" d="M67.9,114.8h-5.4v3.2h5.2v1.9h-5.2v4.5h5.4v1.9h-7.4v-13.4h7.4V114.8z"/>
			<path class="st3" d="M70.4,126.3V112l9.8,10.2v-9.3h2v14.2l-9.8-10.2v9.4C72.4,126.3,70.4,126.3,70.4,126.3z"/>
			<path class="st3" d="M84.7,126.3v-13.4h2.8c1.3,0,2.4,0.1,3.2,0.4c0.8,0.3,1.6,0.7,2.3,1.3c1.4,1.3,2.1,2.9,2.1,5
				c0,2.1-0.7,3.7-2.2,5c-0.7,0.6-1.5,1.1-2.3,1.3c-0.7,0.2-1.8,0.4-3.2,0.4L84.7,126.3L84.7,126.3z M86.7,124.4h0.9
				c0.9,0,1.7-0.1,2.3-0.3c0.6-0.2,1.1-0.5,1.6-1c1-0.9,1.5-2.1,1.5-3.6c0-1.5-0.5-2.7-1.5-3.6c-0.9-0.8-2.2-1.2-3.9-1.2h-0.9
				L86.7,124.4L86.7,124.4z"/>
			<path class="st3" d="M108.3,114l1.4-1.5l1.2,1.2l-1.4,1.5c1.1,1.3,1.6,2.8,1.6,4.4c0,1.9-0.7,3.5-2.1,4.9c-1.4,1.4-3,2-4.9,2
				c-1.6,0-3.1-0.5-4.4-1.5l-1.4,1.4l-1.1-1.1l1.4-1.4c-0.9-1.3-1.4-2.7-1.4-4.2c0-2,0.7-3.7,2.1-5c1.4-1.3,3-2,4.9-2
				C105.6,112.6,107,113.1,108.3,114z M106.9,115.4c-0.8-0.6-1.8-0.8-2.8-0.8c-1.4,0-2.6,0.5-3.6,1.5c-0.9,1-1.4,2.2-1.4,3.7
				c0,1,0.3,1.9,0.8,2.8L106.9,115.4z M108.1,116.5l-7,7.1c1,0.7,2,1,3,1c1.4,0,2.5-0.5,3.5-1.5c1-1,1.4-2.2,1.4-3.6
				C109,118.5,108.7,117.5,108.1,116.5z"/>
			<path class="st3" d="M118,120.6l4.1,5.7h-2.5l-3.8-5.5h-0.4v5.5h-2v-13.4h2.4c1.8,0,3.1,0.3,3.8,1c0.9,0.7,1.3,1.7,1.3,2.9
				c0,0.9-0.3,1.8-0.8,2.4C119.6,120,118.9,120.4,118,120.6z M115.5,119h0.6c1.9,0,2.9-0.7,2.9-2.2c0-1.4-0.9-2.1-2.8-2.1h-0.7
				L115.5,119L115.5,119z"/>
			<path class="st3" d="M131.3,114.9l-1.6,1c-0.3-0.5-0.6-0.9-0.9-1c-0.3-0.2-0.7-0.3-1.1-0.3c-0.6,0-1,0.2-1.4,0.5
				c-0.4,0.3-0.6,0.7-0.6,1.2c0,0.7,0.5,1.2,1.5,1.6l1.3,0.5c1.1,0.4,1.9,1,2.4,1.6c0.5,0.6,0.8,1.4,0.8,2.3c0,1.2-0.4,2.3-1.2,3.1
				c-0.8,0.8-1.9,1.2-3.1,1.2c-1.2,0-2.1-0.3-2.9-1c-0.7-0.7-1.2-1.7-1.4-2.9l2-0.5c0.1,0.8,0.3,1.3,0.5,1.6c0.4,0.6,1,0.9,1.8,0.9
				c0.6,0,1.2-0.2,1.6-0.6c0.4-0.4,0.6-1,0.6-1.6c0-0.3,0-0.5-0.1-0.7c-0.1-0.2-0.2-0.4-0.3-0.6c-0.2-0.2-0.4-0.4-0.6-0.5
				c-0.2-0.2-0.5-0.3-0.9-0.5l-1.3-0.5c-1.8-0.8-2.8-1.9-2.8-3.4c0-1,0.4-1.8,1.2-2.5c0.8-0.7,1.7-1,2.9-1
				C129.3,112.6,130.5,113.4,131.3,114.9z"/>
		</g>
		<g>
			<path class="st3" d="M66.4,131.7v11.5h-2v-11.5h-3.1v-1.9h8.2v1.9H66.4z"/>
			<path class="st3" d="M76.2,137.5l4.1,5.7h-2.5l-3.8-5.5h-0.4v5.5h-2v-13.4H74c1.8,0,3.1,0.3,3.8,1c0.9,0.7,1.3,1.7,1.3,2.9
				c0,0.9-0.3,1.8-0.8,2.4C77.8,136.8,77.1,137.3,76.2,137.5z M73.7,135.9h0.6c1.9,0,2.9-0.7,2.9-2.2c0-1.4-0.9-2.1-2.8-2.1h-0.7
				V135.9z"/>
			<path class="st3" d="M90.6,140h-5.7l-1.5,3.2h-2.2l6.4-13.4h5.9l0.8,1.9h-5.3l1.4,3.2h5.2l0.9,1.9h-5.2l1.9,4.5h5.4l0.8,1.9H92
				L90.6,140z M89.8,138.1l-1.9-4.4l-2.1,4.4H89.8z"/>
		</g>
	</g>
</g>
<g id="ikon">
	<g>
		<path class="st3" d="M48,53v19.2h64V53H48z M80,65.4c-1.5,0-2.8-1.3-2.8-2.8c0-1.5,1.3-2.8,2.8-2.8s2.8,1.3,2.8,2.8
			C82.8,64.1,81.6,65.4,80,65.4z"/>
		<path class="st3" d="M48,73.8V93h64V73.8C112,73.8,48,73.8,48,73.8z M80,86.2c-1.5,0-2.8-1.3-2.8-2.8s1.3-2.8,2.8-2.8
			s2.8,1.3,2.8,2.8S81.6,86.2,80,86.2z"/>
		<g>
			<rect x="48" y="94.6" class="st3" width="3.2" height="14.4"/>
			<rect x="108.8" y="94.6" class="st3" width="3.2" height="14.4"/>
		</g>
	</g>
</g>
</svg>
