<?xml version="1.0" encoding="utf-8"?>
<!-- Generator: Adobe Illustrator 25.4.1, SVG Export Plug-In . SVG Version: 6.00 Build 0)  -->
<svg version="1.1" id="Layer_1" xmlns="http://www.w3.org/2000/svg" xmlns:xlink="http://www.w3.org/1999/xlink" x="0px" y="0px"
	 width="160px" height="160px" viewBox="0 0 160 160" style="enable-background:new 0 0 160 160;" xml:space="preserve">
<style type="text/css">
	.st0{fill:#006432;}
	.st1{display:none;}
	.st2{display:inline;}
	.st3{fill:#FFFFFF;}
</style>
<g id="baggrund">
	<rect class="st0" width="160" height="160"/>
</g>
<g id="fraktion" class="st1">
	<g class="st2">
		<path class="st3" d="M62.9,129.8v8.7c0,1-0.1,1.8-0.2,2.3c-0.1,0.6-0.4,1.1-0.7,1.5c-0.7,0.8-1.6,1.2-2.7,1.2
			c-0.8,0-1.6-0.2-2.4-0.7l1-1.7c0.5,0.3,1,0.5,1.4,0.5c0.6,0,1-0.2,1.3-0.7c0.2-0.5,0.4-1.3,0.4-2.4v-8.7L62.9,129.8L62.9,129.8z"
			/>
		<path class="st3" d="M65.5,136.5c0-1.9,0.7-3.5,2.1-4.9c1.4-1.4,3-2,5-2c1.9,0,3.6,0.7,4.9,2.1c1.4,1.4,2.1,3,2.1,4.9
			c0,1.9-0.7,3.6-2.1,4.9c-1.4,1.4-3.1,2-5,2c-1.7,0-3.3-0.6-4.7-1.8C66.3,140.4,65.5,138.7,65.5,136.5z M67.5,136.5
			c0,1.5,0.5,2.7,1.5,3.7c1,1,2.1,1.4,3.4,1.4c1.4,0,2.6-0.5,3.6-1.5c1-1,1.5-2.2,1.5-3.6c0-1.4-0.5-2.6-1.4-3.6
			c-1-1-2.1-1.5-3.5-1.5c-1.4,0-2.6,0.5-3.6,1.5C68,133.9,67.5,135.1,67.5,136.5z"/>
		<path class="st3" d="M86.7,137.5l4.2,5.7h-2.5l-3.8-5.5h-0.4v5.5h-2v-13.5h2.4c1.8,0,3.1,0.3,3.9,1c0.9,0.7,1.3,1.7,1.3,2.9
			c0,1-0.3,1.8-0.8,2.5C88.3,136.9,87.6,137.4,86.7,137.5z M84.2,136h0.6c1.9,0,2.9-0.7,2.9-2.2c0-1.4-0.9-2.1-2.8-2.1h-0.7
			L84.2,136L84.2,136z"/>
		<path class="st3" d="M93,143.3v-13.5h2.8c1.4,0,2.4,0.1,3.2,0.4c0.8,0.3,1.6,0.7,2.3,1.3c1.4,1.3,2.1,2.9,2.1,5
			c0,2.1-0.7,3.7-2.2,5c-0.7,0.6-1.5,1.1-2.3,1.3c-0.7,0.3-1.8,0.4-3.2,0.4H93z M95,141.4h0.9c0.9,0,1.7-0.1,2.3-0.3
			c0.6-0.2,1.2-0.5,1.6-1c1-0.9,1.5-2.1,1.5-3.6c0-1.5-0.5-2.7-1.5-3.6c-0.9-0.8-2.2-1.2-3.9-1.2H95C95,131.7,95,141.4,95,141.4z"/>
	</g>
</g>
<g id="ikon">
	<g>
		<path class="st3" d="M46.6,84.4c-3.9,3.6-8.6,3.4-11.7,9.1c-1.6,3-12.4,28.6-12.4,28.8h114.8c-2.3-5.1-8.7-19-12.4-22.7
			c-2.4-2.4-7.5-5.3-8.8-7.9c-1.4-2.6-0.8-1.5-3.9-10.1c-3.1-8.6-9.2-14.4-14.8-20.5c-2.8-3-6.8-7.3-11.7-9.4
			c-4.8-2.1-11.1-2.6-18.3,4.5c-1.8,2-4.1,4.5-6.4,8.1c-0.2,0.4-0.5,0.7-0.7,1.1l11.5,15.3l0,0c0.8,1.1,2.8,3.9,4.6,6.8
			c4.1,6.7,3.3,7.7,3.3,7.7c0,0-1.2,0.6-6.6-5.3c-2.3-2.5-4.3-5.2-5.2-6.3l0,0L57.5,69.8c-0.9,1.6-1.9,3.1-3.8,5.7
			C49.1,81.9,48.4,82.7,46.6,84.4z M66.5,84.5c0.9,1.1,3,3.9,5.3,6.4c1.8,2,3.3,3.5,4.6,4.4c0.8,0.6,1.5,1,2.1,1.3
			c0.6,0.2,1.4,0.4,2.1-0.1c1.2-0.9,0.6-2.9,0.1-4.3c-0.6-1.5-1.6-3.3-3-5.6c-1.8-2.9-3.8-5.7-4.7-6.9l6.9-5.2l11.4,15.2l0,0
			c0.2,0.3,0.4,0.6,0.6,0.9c3.7,6.5,1.9,17.4-1,19.6l0,0c-2.9,2.2-13.9,0.8-19.1-4.6c-0.3-0.3-0.5-0.6-0.7-0.9l0,0L59.6,89.6
			L66.5,84.5z"/>
		<path class="st3" d="M42.6,41.9l3.1-2.3l-1.4-1.9l-10,7.5l1.4,1.9l3.1-2.3l18.7,25c0.7-1.2,1.5-2.5,2.7-4.4L42.6,41.9z"/>
	</g>
</g>
</svg>
