<?xml version="1.0" encoding="utf-8"?>
<!-- Generator: Adobe Illustrator 25.4.1, SVG Export Plug-In . SVG Version: 6.00 Build 0)  -->
<svg version="1.1" id="Layer_1" xmlns="http://www.w3.org/2000/svg" xmlns:xlink="http://www.w3.org/1999/xlink" x="0px" y="0px"
	 width="160px" height="160px" viewBox="0 0 160 160" style="enable-background:new 0 0 160 160;" xml:space="preserve">
<style type="text/css">
	.st0{fill:#826428;}
	.st1{display:none;}
	.st2{display:inline;}
	.st3{fill:#FFFFFF;}
</style>
<g id="baggrund">
	<rect class="st0" width="160" height="160"/>
</g>
<g id="fraktion" class="st1">
	<g class="st2">
		<path class="st3" d="M52.5,137.8v5.4h-2.1v-13.4h2.4c1.2,0,2.1,0.1,2.7,0.2c0.6,0.2,1.1,0.5,1.6,0.9c0.8,0.8,1.2,1.7,1.2,2.8
			c0,1.2-0.4,2.2-1.3,2.9c-0.9,0.7-2,1.1-3.5,1.1L52.5,137.8L52.5,137.8z M52.5,135.9h0.8c2,0,2.9-0.7,2.9-2.1c0-1.4-1-2.1-3-2.1
			h-0.7C52.5,131.7,52.5,135.9,52.5,135.9z"/>
		<path class="st3" d="M66.8,140h-6l-1.6,3.3h-2.3l7-14.2l6.7,14.2h-2.3L66.8,140z M65.9,138.1l-2.1-4.6l-2.2,4.6H65.9z"/>
		<path class="st3" d="M74.9,129.9v11.5H79v1.9h-6.3v-13.4L74.9,129.9L74.9,129.9z"/>
		<path class="st3" d="M83.6,129.9v11.5h4.1v1.9h-6.3v-13.4L83.6,129.9L83.6,129.9z"/>
		<path class="st3" d="M98,131.8h-5.6v3.2h5.5v1.9h-5.5v4.5H98v1.9h-7.8v-13.4H98V131.8z"/>
		<path class="st3" d="M105.3,137.5l4.4,5.7H107l-4-5.5h-0.4v5.5h-2.1v-13.4h2.5c1.9,0,3.2,0.3,4,1c0.9,0.7,1.4,1.7,1.4,2.9
			c0,0.9-0.3,1.8-0.9,2.4C107,136.9,106.2,137.4,105.3,137.5z M102.6,136h0.7c2,0,3-0.7,3-2.2c0-1.4-1-2.1-2.9-2.1h-0.8V136z"/>
	</g>
</g>
<g id="ikon">
	<g>
		<polygon class="st3" points="71.1,90.2 65.3,95.4 70.6,95.4 76.4,90.2 		"/>
		<polygon class="st3" points="49.7,90.2 43.9,95.4 49.2,95.4 55,90.2 		"/>
		<polygon class="st3" points="96.2,55.4 51.6,95.4 62.9,95.4 107.5,55.4 		"/>
		<polygon class="st3" points="68,78.5 73.8,73.3 68.5,73.3 62.7,78.5 		"/>
		<polygon class="st3" points="87.1,61.4 93.8,55.4 88.5,55.4 81.7,61.4 		"/>
		<polygon class="st3" points="117.6,55.4 73,95.4 85.3,95.4 129.9,55.4 		"/>
		<polygon class="st3" points="130,64.2 130,57.4 124.4,62.5 124.4,69.2 110.8,81.4 110.8,74.7 105.2,79.7 105.2,86.5 91.5,98.7 
			91.5,91.9 86,96.9 86,105.8 130,66.3 130,64.2 		"/>
		<rect x="51.7" y="97" class="st3" width="11.2" height="9.6"/>
		<rect x="30.2" y="97" class="st3" width="11.2" height="9.6"/>
		<rect x="73.1" y="97" class="st3" width="11.2" height="9.6"/>
		<polygon class="st3" points="108.5,61.4 115.2,55.4 109.9,55.4 103.1,61.4 		"/>
		<polygon class="st3" points="74.7,55.4 30.1,95.4 41.5,95.4 86.1,55.4 		"/>
		<polygon class="st3" points="89.4,78.5 95.2,73.3 89.9,73.3 84.1,78.5 		"/>
	</g>
</g>
</svg>
