<svg xmlns="http://www.w3.org/2000/svg" width="80.064" height="71.224" viewBox="0 0 80.064 71.224">
  <path id="GameIconsCardboardBox" d="M56.484,52.607,29.159,66.256l9.761,9.751L66.244,62.358l-9.761-9.751Zm24.881,0L71.6,62.358,98.929,76.007l9.761-9.751L81.365,52.607ZM68.924,64.566l-1.586.793V90.515l1.586.793,1.586-.793V65.358l-1.586-.793ZM39.043,79.928,28.892,92.605l24.6,13.652L66.244,93.515l-27.2-13.587Zm59.762,0L71.6,93.515l12.755,12.742,24.6-13.652L98.8,79.929ZM67.338,96.908l-13.3,13.284-13.848-7.685v7.766l27.145,13.559Zm3.173,0v26.923l27.145-13.559v-7.766l-13.848,7.686Z" transform="translate(-28.892 -52.607)"/>
</svg>
