<?xml version="1.0" encoding="utf-8"?>
<!-- Generator: Adobe Illustrator 25.4.1, SVG Export Plug-In . SVG Version: 6.00 Build 0)  -->
<svg version="1.1" id="Layer_1" xmlns="http://www.w3.org/2000/svg" xmlns:xlink="http://www.w3.org/1999/xlink" x="0px" y="0px"
	 width="160px" height="160px" viewBox="0 0 160 160" style="enable-background:new 0 0 160 160;" xml:space="preserve">
<style type="text/css">
	.st0{fill:#F0910A;}
	.st1{display:none;}
	.st2{display:inline;}
	.st3{fill:#FFFFFF;}
</style>
<g id="baggrund">
	<rect class="st0" width="160" height="160"/>
</g>
<g id="fraktion" class="st1">
	<g class="st2">
		<g>
			<path class="st3" d="M48.2,121.2v5.4h-2v-13.4h2.3c1.1,0,2,0.1,2.5,0.2c0.6,0.2,1.1,0.5,1.5,0.9c0.8,0.8,1.2,1.7,1.2,2.8
				c0,1.2-0.4,2.2-1.2,2.9c-0.8,0.7-1.9,1.1-3.3,1.1L48.2,121.2L48.2,121.2z M48.2,119.3H49c1.9,0,2.8-0.7,2.8-2.1
				c0-1.4-1-2.1-2.9-2.1h-0.7L48.2,119.3L48.2,119.3z"/>
			<path class="st3" d="M60.3,120.9l4.1,5.7H62l-3.8-5.5h-0.4v5.5h-2v-13.4h2.4c1.8,0,3.1,0.3,3.8,1c0.9,0.7,1.3,1.7,1.3,2.9
				c0,0.9-0.3,1.8-0.8,2.4C61.9,120.3,61.2,120.7,60.3,120.9z M57.8,119.4h0.6c1.9,0,2.9-0.7,2.9-2.2c0-1.4-0.9-2.1-2.8-2.1h-0.7
				V119.4z"/>
			<path class="st3" d="M68.5,113.2v13.4h-2v-13.4H68.5z"/>
			<path class="st3" d="M71.7,126.6v-14.3l9.8,10.2v-9.3h2v14.2l-9.8-10.2v9.4L71.7,126.6L71.7,126.6z"/>
			<path class="st3" d="M90.5,115.1v11.5h-2v-11.5h-3.1v-1.9h8.2v1.9H90.5z"/>
			<path class="st3" d="M102.7,115.1h-5.4v3.2h5.2v1.9h-5.2v4.5h5.4v1.9h-7.4v-13.4h7.4V115.1z"/>
			<path class="st3" d="M109.9,120.9l4.1,5.7h-2.5l-3.8-5.5h-0.4v5.5h-2v-13.4h2.4c1.8,0,3.1,0.3,3.8,1c0.9,0.7,1.3,1.7,1.3,2.9
				c0,0.9-0.3,1.8-0.8,2.4C111.5,120.3,110.8,120.7,109.9,120.9z M107.4,119.4h0.6c1.9,0,2.9-0.7,2.9-2.2c0-1.4-0.9-2.1-2.8-2.1
				h-0.7V119.4z"/>
		</g>
		<g>
			<path class="st3" d="M37.3,138.2v5.4h-2v-13.4h2.3c1.1,0,2,0.1,2.5,0.2c0.6,0.2,1.1,0.5,1.5,0.9c0.8,0.8,1.2,1.7,1.2,2.8
				c0,1.2-0.4,2.2-1.2,2.9c-0.8,0.7-1.9,1.1-3.3,1.1L37.3,138.2L37.3,138.2z M37.3,136.3H38c1.9,0,2.8-0.7,2.8-2.1
				c0-1.4-1-2.1-2.9-2.1h-0.7V136.3z"/>
			<path class="st3" d="M51.8,140.4H46l-1.5,3.3h-2.2l6.6-14.2l6.4,14.2h-2.2L51.8,140.4z M50.9,138.5l-2-4.6l-2.1,4.6H50.9z"/>
			<path class="st3" d="M60,132.2v11.5h-2v-11.5h-3.1v-1.9h8.2v1.9H60z"/>
			<path class="st3" d="M69.4,137.9l4.1,5.7h-2.5l-3.8-5.5h-0.4v5.5h-2v-13.4h2.4c1.8,0,3.1,0.3,3.8,1c0.9,0.7,1.3,1.7,1.3,2.9
				c0,0.9-0.3,1.8-0.8,2.4C71,137.3,70.3,137.8,69.4,137.9z M66.9,136.4h0.6c1.9,0,2.9-0.7,2.9-2.2c0-1.4-0.9-2.1-2.8-2.1h-0.7
				V136.4z"/>
			<path class="st3" d="M74.6,136.9c0-1.9,0.7-3.5,2.1-4.9c1.4-1.4,3-2,5-2c1.9,0,3.5,0.7,4.9,2c1.4,1.4,2.1,3,2.1,4.9
				c0,1.9-0.7,3.6-2.1,4.9c-1.4,1.3-3.1,2-5,2c-1.7,0-3.3-0.6-4.7-1.8C75.4,140.8,74.6,139,74.6,136.9z M76.7,136.9
				c0,1.5,0.5,2.7,1.5,3.7c1,1,2.1,1.4,3.4,1.4c1.4,0,2.6-0.5,3.6-1.5c1-1,1.4-2.2,1.4-3.6c0-1.4-0.5-2.6-1.4-3.6
				c-0.9-1-2.1-1.5-3.5-1.5c-1.4,0-2.6,0.5-3.5,1.5C77.1,134.3,76.7,135.5,76.7,136.9z"/>
			<path class="st3" d="M91.2,143.7v-14.3l9.8,10.2v-9.3h2v14.2l-9.8-10.2v9.4H91.2z"/>
			<path class="st3" d="M113.6,132.2h-5.4v3.2h5.2v1.9h-5.2v4.5h5.4v1.9h-7.4v-13.4h7.4V132.2z"/>
			<path class="st3" d="M120.8,137.9l4.1,5.7h-2.5l-3.8-5.5h-0.4v5.5h-2v-13.4h2.4c1.8,0,3.1,0.3,3.8,1c0.9,0.7,1.3,1.7,1.3,2.9
				c0,0.9-0.3,1.8-0.8,2.4C122.4,137.3,121.7,137.8,120.8,137.9z M118.3,136.4h0.6c1.9,0,2.9-0.7,2.9-2.2c0-1.4-0.9-2.1-2.8-2.1
				h-0.7L118.3,136.4L118.3,136.4z"/>
		</g>
		<path class="st3" d="M114.9,119.4h3.9v1.9h-3.9V119.4z"/>
	</g>
</g>
<g id="ikon">
	<g>
		<path class="st3" d="M88.9,60l-4.6-6.8H66.4V60H49.9v6.7h3.1v40.1h16.7V96.2h36.8V66.7h3.6V60L88.9,60L88.9,60z M93.8,83.3
			c0,2.9-2.1,5.2-4.8,5.2c-2.7,0-4.8-2.3-4.8-5.2c0-0.1,0-0.2,0-0.2h0c0-2.3,1.5-4.9,2.2-6.1c2.3-4,2.6-5.9,2.6-5.9
			c0,0,0.3,1.9,2.6,5.9c0.7,1.2,2.2,3.8,2.2,6.1h0C93.8,83.1,93.8,83.2,93.8,83.3z"/>
		<path class="st3" d="M91.4,85.9c-0.6,0.6-1.4,0.9-2.3,0.9v-1.6c0.5,0,0.9-0.1,1.2-0.4c0.4-0.4,0.7-1.2,0.7-2.2l1.6,0
			C92.5,83.9,92.1,85.1,91.4,85.9z"/>
	</g>
</g>
</svg>
