<svg xmlns="http://www.w3.org/2000/svg" width="59.652" height="59.654" viewBox="0 0 59.652 59.654">
  <path id="MdiFoodDrumstickOutline" d="M42.892,7.964a12.347,12.347,0,0,1,6.829,1.968,13.014,13.014,0,0,1,5.964,9.483,13.031,13.031,0,0,1-3.728,10.348,12.721,12.721,0,0,1-7.664,3.668,23.307,23.307,0,0,0-14.433,6.65,2.412,2.412,0,0,1-3.37,0l-2.952-2.952a2.216,2.216,0,0,1-.656-1.58,2.82,2.82,0,0,1,.954-2.028A22.675,22.675,0,0,0,30.189,19.5a12.753,12.753,0,0,1,5.964-9.6,12.27,12.27,0,0,1,6.739-1.938m0-5.964A18.45,18.45,0,0,0,32.9,4.893a18.667,18.667,0,0,0-8.648,14.045,16.726,16.726,0,0,1-4.622,10.348l-.089.089a8.366,8.366,0,0,0-.209,11.958l2.952,2.952a8.315,8.315,0,0,0,11.779,0,17.766,17.766,0,0,1,10.855-4.92A18.7,18.7,0,0,0,52.971,4.982,18.2,18.2,0,0,0,42.892,2M14.712,55.259a4.378,4.378,0,0,1-.865,5.069,4.443,4.443,0,0,1-7.6-2.922A4.455,4.455,0,1,1,8.39,48.937l7.4-7.246a15.417,15.417,0,0,0,1.431,1.759L20.169,46.4a10.23,10.23,0,0,0,2,1.551l-7.455,7.306Z" transform="translate(-1.996 -2)"/>
</svg>
