<?xml version="1.0" encoding="utf-8"?>
<!-- Generator: Adobe Illustrator 25.4.1, SVG Export Plug-In . SVG Version: 6.00 Build 0)  -->
<svg version="1.1" id="Layer_1" xmlns="http://www.w3.org/2000/svg" xmlns:xlink="http://www.w3.org/1999/xlink" x="0px" y="0px"
	 width="160px" height="160px" viewBox="0 0 160 160" style="enable-background:new 0 0 160 160;" xml:space="preserve">
<style type="text/css">
	.st0{fill:#F0910A;}
	.st1{display:none;}
	.st2{display:inline;}
	.st3{fill:#FFFFFF;}
</style>
<g id="baggrund">
	<rect x="0" class="st0" width="160" height="160"/>
</g>
<g id="fraktion" class="st1">
	<g class="st2">
		<g>
			<path class="st3" d="M35,131.9l-5.4,0l0,3.2l5.2,0l0,1.9l-5.2,0l0,4.5l5.4,0l0,1.9l-7.4,0l0-13.4l7.4,0L35,131.9z"/>
			<path class="st3" d="M39.3,130l0,11.5l3.9,0l0,1.9l-6,0l0-13.4L39.3,130z"/>
			<path class="st3" d="M53,131.9l-5.4,0l0,3.2l5.2,0l0,1.9l-5.2,0l0,4.5l5.4,0l0,1.9l-7.4,0l0-13.4l7.4,0L53,131.9z"/>
			<path class="st3" d="M57.3,135.3l5.2-5.4l2.7,0l-6,6.1l6.1,7.3l-2.7,0l-4.8-6l-0.4,0.4l0,5.5l-2,0l0-13.4l2,0L57.3,135.3z"/>
			<path class="st3" d="M71.8,131.8l0,11.5l-2,0l0-11.5l-3.1,0l0-1.9l8.2,0l0,1.9L71.8,131.8z"/>
			<path class="st3" d="M81.7,137.6l4.2,5.7l-2.5,0l-3.8-5.5l-0.4,0l0,5.5l-2,0l0-13.4l2.4,0c1.8,0,3.1,0.3,3.8,1
				c0.9,0.7,1.3,1.7,1.3,2.9c0,0.9-0.3,1.8-0.8,2.5C83.3,137,82.6,137.4,81.7,137.6z M79.2,136.1l0.6,0c1.9,0,2.9-0.7,2.9-2.2
				c0-1.4-0.9-2.1-2.8-2l-0.7,0L79.2,136.1z"/>
			<path class="st3" d="M86.5,136.5c0-1.9,0.7-3.5,2.1-4.9c1.4-1.4,3-2,5-2c1.9,0,3.5,0.7,4.9,2c1.4,1.4,2.1,3,2.1,4.9
				c0,1.9-0.7,3.6-2.1,4.9c-1.4,1.4-3,2-5,2c-1.7,0-3.3-0.6-4.7-1.8C87.3,140.4,86.5,138.7,86.5,136.5z M88.5,136.5
				c0,1.5,0.5,2.7,1.5,3.6c1,1,2.1,1.4,3.4,1.4c1.4,0,2.6-0.5,3.6-1.5c1-1,1.4-2.2,1.4-3.6c0-1.4-0.5-2.6-1.4-3.6
				c-1-1-2.1-1.5-3.5-1.4c-1.4,0-2.6,0.5-3.5,1.5C89,134,88.5,135.1,88.5,136.5z"/>
			<path class="st3" d="M102.9,143.3l0-14.3l9.8,10.2l0-9.3l2,0l0,14.2l-9.8-10.2l0,9.4L102.9,143.3z"/>
			<path class="st3" d="M119.5,129.8l0,13.4l-2,0l0-13.4L119.5,129.8z"/>
			<path class="st3" d="M124.4,135.1l5.2-5.4l2.7,0l-6,6.1l6.1,7.3l-2.7,0l-4.8-6l-0.4,0.4l0,5.5l-2,0l0-13.4l2,0L124.4,135.1z"/>
		</g>
		<g>
			<g>
				<path class="st3" d="M64.6,115l-1.6,1c-0.3-0.5-0.6-0.9-0.9-1c-0.3-0.2-0.7-0.3-1.1-0.3c-0.6,0-1,0.2-1.4,0.5
					c-0.4,0.3-0.6,0.7-0.6,1.2c0,0.7,0.5,1.2,1.5,1.6l1.3,0.5c1.1,0.4,1.9,1,2.4,1.6c0.5,0.6,0.8,1.4,0.8,2.3c0,1.2-0.4,2.3-1.2,3.1
					c-0.8,0.8-1.9,1.2-3.1,1.2c-1.2,0-2.1-0.3-2.9-1c-0.7-0.7-1.2-1.7-1.4-2.9l2-0.5c0.1,0.8,0.3,1.3,0.5,1.6c0.4,0.6,1,0.9,1.8,0.9
					c0.6,0,1.2-0.2,1.6-0.6c0.4-0.4,0.6-1,0.6-1.6c0-0.3,0-0.5-0.1-0.7c-0.1-0.2-0.2-0.4-0.3-0.6c-0.2-0.2-0.4-0.4-0.6-0.5
					s-0.5-0.3-0.9-0.5l-1.3-0.5c-1.8-0.8-2.8-1.9-2.8-3.4c0-1,0.4-1.8,1.1-2.5c0.8-0.7,1.7-1,2.9-1C62.5,112.7,63.8,113.5,64.6,115z
					"/>
				<path class="st3" d="M66.7,126.4l2.8-14.4l4.6,10.4l4.7-10.4l2.6,14.4l-2.1,0l-1.3-8.1l-3.9,8.7l-3.9-8.7l-1.4,8.1L66.7,126.4z"
					/>
				<path class="st3" d="M100.5,114.8l0,11.5l-2,0l0-11.5l-3.1,0l0-1.9l8.2,0l0,1.9L100.5,114.8z"/>
			</g>
			<path class="st3" d="M92.6,123h-5.7l-1.5,3.3h-2.2l6.6-14.2l6.4,14.2H94L92.6,123z M91.7,121.1l-2-4.6l-2.1,4.6H91.7z
				 M87.9,109.7c0-0.5,0.2-0.9,0.6-1.3c0.4-0.4,0.8-0.6,1.3-0.6c0.5,0,1,0.2,1.3,0.6c0.4,0.4,0.6,0.8,0.6,1.3s-0.2,1-0.6,1.3
				c-0.4,0.4-0.8,0.6-1.3,0.6c-0.5,0-1-0.2-1.3-0.6C88.1,110.7,87.9,110.3,87.9,109.7z M88.9,109.8c0,0.2,0.1,0.5,0.2,0.6
				c0.2,0.2,0.4,0.2,0.6,0.2s0.4-0.1,0.6-0.2c0.2-0.2,0.2-0.4,0.2-0.6s-0.1-0.4-0.2-0.6c-0.2-0.2-0.4-0.2-0.6-0.2
				c-0.1,0-0.2,0-0.3,0.1c-0.1,0-0.2,0.1-0.3,0.2c-0.1,0.1-0.1,0.2-0.2,0.3C89,109.5,88.9,109.6,88.9,109.8z"/>
		</g>
	</g>
</g>
<g id="ikon">
	<g>
		<path class="st3" d="M95.3,45L64.5,45c-1.4,0-2.6,1.2-2.6,2.6l0.2,66.8c0,1.4,1.2,2.6,2.6,2.6l30.8-0.1c1.4,0,2.6-1.2,2.6-2.6
			l-0.2-66.8C97.9,46.1,96.7,45,95.3,45z M73.3,110.5c0,0.3-0.2,0.5-0.5,0.5l-5.5,0c-0.3,0-0.5-0.2-0.5-0.5l0-3.1
			c0-0.3,0.2-0.5,0.5-0.5l5.5,0c0.3,0,0.5,0.2,0.5,0.5L73.3,110.5z M73.2,102.5c0,0.3-0.2,0.5-0.5,0.5l-5.5,0
			c-0.3,0-0.5-0.2-0.5-0.5l0-3.1c0-0.3,0.2-0.5,0.5-0.5l5.5,0c0.3,0,0.5,0.2,0.5,0.5L73.2,102.5z M73.2,94.5c0,0.3-0.2,0.5-0.5,0.5
			l-5.5,0c-0.3,0-0.5-0.2-0.5-0.5l0-3.1c0-0.3,0.2-0.5,0.5-0.5l5.5,0c0.3,0,0.5,0.2,0.5,0.5L73.2,94.5z M83.3,110.5
			c0,0.3-0.2,0.5-0.5,0.5l-5.5,0c-0.3,0-0.5-0.2-0.5-0.5l0-3.1c0-0.3,0.2-0.5,0.5-0.5l5.5,0c0.3,0,0.5,0.2,0.5,0.5L83.3,110.5z
			 M83.3,102.5c0,0.3-0.2,0.5-0.5,0.5l-5.5,0c-0.3,0-0.5-0.2-0.5-0.5l0-3.1c0-0.3,0.2-0.5,0.5-0.5l5.5,0c0.3,0,0.5,0.2,0.5,0.5
			L83.3,102.5z M83.2,94.5c0,0.3-0.2,0.5-0.5,0.5l-5.5,0c-0.3,0-0.5-0.2-0.5-0.5l0-3.1c0-0.3,0.2-0.5,0.5-0.5l5.5,0
			c0.3,0,0.5,0.2,0.5,0.5L83.2,94.5z M93.3,110.5c0,0.3-0.2,0.5-0.5,0.5l-5.5,0c-0.3,0-0.5-0.2-0.5-0.5l0-3.1c0-0.3,0.2-0.5,0.5-0.5
			l5.5,0c0.3,0,0.5,0.2,0.5,0.5L93.3,110.5z M93.3,102.5c0,0.3-0.2,0.5-0.5,0.5l-5.5,0c-0.3,0-0.5-0.2-0.5-0.5l0-3.1
			c0-0.3,0.2-0.5,0.5-0.5l5.5,0c0.3,0,0.5,0.2,0.5,0.5L93.3,102.5z M93.3,94.4c0,0.3-0.2,0.5-0.5,0.5l-5.5,0c-0.3,0-0.5-0.2-0.5-0.5
			l0-3.1c0-0.3,0.2-0.5,0.5-0.5l5.5,0c0.3,0,0.5,0.2,0.5,0.5L93.3,94.4z M94.8,83.3c0,0.9-0.7,1.6-1.6,1.6L66.8,85
			c-0.9,0-1.6-0.7-1.6-1.6l-0.1-33.6c0-0.9,0.7-1.6,1.6-1.6l26.4-0.1c0.9,0,1.6,0.7,1.6,1.6L94.8,83.3z"/>
		
			<rect x="66.8" y="49.7" transform="matrix(1 -2.699990e-03 2.699990e-03 1 -0.1793 0.2161)" class="st3" width="26.4" height="33.6"/>
	</g>
</g>
</svg>
