<?xml version="1.0" encoding="utf-8"?>
<!-- Generator: Adobe Illustrator 25.4.1, SVG Export Plug-In . SVG Version: 6.00 Build 0)  -->
<svg version="1.1" id="Layer_1" xmlns="http://www.w3.org/2000/svg" xmlns:xlink="http://www.w3.org/1999/xlink" x="0px" y="0px"
	 width="160px" height="160px" viewBox="0 0 160 160" style="enable-background:new 0 0 160 160;" xml:space="preserve">
<style type="text/css">
	.st0{fill:#E10F1E;}
	.st1{display:none;}
	.st2{display:inline;}
	.st3{fill:#FFFFFF;}
</style>
<g id="baggrund">
	<rect class="st0" width="160" height="160"/>
</g>
<g id="fraktion" class="st1">
	<g class="st2">
		<path class="st3" d="M27.3,131.8v11.6h-2v-11.6h-3.1v-1.9h8.2v1.9H27.3z"/>
		<path class="st3" d="M37.1,137.6l4.2,5.7h-2.5l-3.8-5.5h-0.4v5.5h-2v-13.5h2.4c1.8,0,3.1,0.3,3.9,1c0.9,0.7,1.3,1.7,1.3,2.9
			c0,1-0.3,1.8-0.8,2.5C38.7,137,37.9,137.4,37.1,137.6z M34.5,136h0.6c1.9,0,2.9-0.7,2.9-2.2c0-1.4-0.9-2.1-2.8-2.1h-0.7L34.5,136
			L34.5,136z"/>
		<path class="st3" d="M45.4,137.5l-4.4-7.7h2.3l3.1,5.4l3.1-5.4h2.3l-4.4,7.7v5.8h-2V137.5z"/>
		<path class="st3" d="M55.8,135.2l5.2-5.4h2.7l-6.1,6.1l6.1,7.4H61l-4.9-6l-0.4,0.4v5.6h-2v-13.5h2L55.8,135.2L55.8,135.2z"/>
		<path class="st3" d="M72.5,131.8h-4.7v3.2h4.5v1.9h-4.5v6.4h-2v-13.5h6.7C72.5,129.9,72.5,131.8,72.5,131.8z"/>
		<path class="st3" d="M76.6,129.9v11.6h4v1.9h-6v-13.5H76.6z"/>
		<path class="st3" d="M91.7,140.1H86l-1.5,3.3h-2.2L89,129l6.4,14.3h-2.2L91.7,140.1z M90.9,138.1l-2-4.6l-2.1,4.6H90.9z"/>
		<path class="st3" d="M104.7,131.9l-1.6,1c-0.3-0.5-0.6-0.9-0.9-1c-0.3-0.2-0.7-0.3-1.1-0.3c-0.6,0-1,0.2-1.4,0.5
			c-0.4,0.3-0.6,0.7-0.6,1.2c0,0.7,0.5,1.2,1.5,1.6l1.3,0.6c1.1,0.4,1.9,1,2.4,1.6c0.5,0.6,0.8,1.4,0.8,2.3c0,1.2-0.4,2.3-1.2,3.1
			c-0.8,0.8-1.9,1.2-3.1,1.2c-1.2,0-2.1-0.3-2.9-1c-0.8-0.7-1.2-1.7-1.4-2.9l2.1-0.5c0.1,0.8,0.3,1.3,0.5,1.6c0.4,0.6,1,0.9,1.8,0.9
			c0.6,0,1.2-0.2,1.6-0.6s0.6-1,0.6-1.6c0-0.3,0-0.5-0.1-0.7s-0.2-0.4-0.3-0.6c-0.2-0.2-0.4-0.4-0.6-0.5c-0.2-0.2-0.5-0.3-0.9-0.5
			l-1.3-0.5c-1.8-0.8-2.8-1.9-2.8-3.4c0-1,0.4-1.9,1.2-2.5c0.8-0.7,1.7-1,2.9-1C102.6,129.6,103.8,130.3,104.7,131.9z"/>
		<path class="st3" d="M109.2,135.2l5.2-5.4h2.7l-6.1,6.1l6.1,7.4h-2.7l-4.9-6l-0.4,0.4v5.6h-2v-13.5h2
			C109.2,129.9,109.2,135.2,109.2,135.2z"/>
		<path class="st3" d="M126.7,131.8h-5.4v3.2h5.2v1.9h-5.2v4.5h5.4v1.9h-7.4v-13.5h7.4V131.8z"/>
		<path class="st3" d="M133.6,137.6l4.2,5.7h-2.5l-3.8-5.5h-0.4v5.5h-2v-13.5h2.4c1.8,0,3.1,0.3,3.9,1c0.9,0.7,1.3,1.7,1.3,2.9
			c0,1-0.3,1.8-0.8,2.5C135.2,137,134.5,137.4,133.6,137.6z M131.1,136h0.6c1.9,0,2.9-0.7,2.9-2.2c0-1.4-0.9-2.1-2.8-2.1h-0.7
			L131.1,136L131.1,136z"/>
	</g>
</g>
<g id="ikon">
	<path class="st3" d="M95.3,105v-3.2h11.1V81.5v-0.1h0c0-8.2-9.4-15-21.6-16.5v-4h-2.4V49h-4.8V61h-2.4v4c-1.2,0.1-2.3,0.3-3.4,0.6
		l-2.5-4.2c-0.3-0.4-0.6-0.8-0.9-1.2c-1.1-1.4-2.3-2.3-3.6-3.1c-0.3,0.3-0.7,0.6-1.2,1c-1.2,0.8-2.7,1.6-4.4,2.3
		c-1.7,0.7-3.3,1.1-4.7,1.3c-0.7,0.1-1.3,0.1-1.7,0.1c0,0,0,0.6,0.1,1c0.2,0.9,0.4,1.8,0.9,2.7l0.6,1l3.6,5.9
		c-2.7,2.6-4.3,5.8-4.3,9.1h0v0.1v20.3h11.1v3.2H53.6v7.9h52.8V105L95.3,105L95.3,105z M61.8,69.4L58.5,64c0.6-0.2,1.3-0.4,1.8-0.7
		c1.2-0.5,2.4-1,3.5-1.7l3.2,5.2C65.1,67.6,63.4,68.4,61.8,69.4z M88,105H72v-3.2h16V105z"/>
</g>
</svg>
