<?xml version="1.0" encoding="utf-8"?>
<!-- Generator: Adobe Illustrator 25.4.1, SVG Export Plug-In . SVG Version: 6.00 Build 0)  -->
<svg version="1.1" id="Layer_1" xmlns="http://www.w3.org/2000/svg" xmlns:xlink="http://www.w3.org/1999/xlink" x="0px" y="0px"
	 width="160px" height="160px" viewBox="0 0 160 160" style="enable-background:new 0 0 160 160;" xml:space="preserve">
<style type="text/css">
	.st0{fill:#826428;}
	.st1{display:none;}
	.st2{display:inline;}
	.st3{fill:#FFFFFF;}
</style>
<g id="baggrund">
	<rect class="st0" width="160" height="160"/>
</g>
<g id="fraktion" class="st1">
	<g class="st2">
		<g>
			<path class="st3" d="M33.8,112.9v8.1c0,1.2,0.2,2,0.6,2.5c0.6,0.8,1.4,1.2,2.4,1.2c1,0,1.8-0.4,2.4-1.2c0.4-0.5,0.6-1.4,0.6-2.5
				v-8.1h2v8.6c0,1.4-0.4,2.6-1.3,3.5c-1,1-2.2,1.5-3.6,1.5s-2.7-0.5-3.6-1.5c-0.9-0.9-1.3-2.1-1.3-3.5v-8.6H33.8z"/>
			<path class="st3" d="M44.2,126.3v-13.4H47c1.3,0,2.4,0.1,3.2,0.4c0.8,0.3,1.6,0.7,2.3,1.3c1.4,1.3,2.1,2.9,2.1,5
				c0,2.1-0.7,3.7-2.2,5c-0.7,0.6-1.5,1.1-2.3,1.3c-0.7,0.2-1.8,0.4-3.2,0.4H44.2z M46.2,124.4h0.9c0.9,0,1.7-0.1,2.3-0.3
				c0.6-0.2,1.1-0.5,1.6-1c1-0.9,1.5-2.1,1.5-3.6c0-1.5-0.5-2.7-1.5-3.6c-0.9-0.8-2.2-1.2-3.9-1.2h-0.9L46.2,124.4L46.2,124.4z"/>
			<path class="st3" d="M64.5,114.8h-5.4v3.2h5.2v1.9h-5.2v4.5h5.4v1.9h-7.4v-13.4h7.4V114.8z"/>
			<path class="st3" d="M67,126.3V112l9.8,10.2v-9.3h2v14.2L69,116.9v9.4L67,126.3L67,126.3z"/>
			<path class="st3" d="M81.3,126.3v-13.4h2.8c1.3,0,2.4,0.1,3.2,0.4c0.8,0.3,1.6,0.7,2.3,1.3c1.4,1.3,2.1,2.9,2.1,5
				c0,2.1-0.7,3.7-2.2,5c-0.7,0.6-1.5,1.1-2.3,1.3c-0.7,0.2-1.8,0.4-3.2,0.4H81.3z M83.3,124.4h0.9c0.9,0,1.7-0.1,2.3-0.3
				c0.6-0.2,1.1-0.5,1.6-1c1-0.9,1.5-2.1,1.5-3.6c0-1.5-0.5-2.7-1.5-3.6c-0.9-0.8-2.2-1.2-3.9-1.2h-0.9L83.3,124.4L83.3,124.4z"/>
			<path class="st3" d="M104.8,114.1l1.4-1.5l1.2,1.2l-1.4,1.5c1.1,1.3,1.6,2.8,1.6,4.4c0,1.9-0.7,3.5-2.1,4.9c-1.4,1.4-3,2-4.9,2
				c-1.6,0-3.1-0.5-4.4-1.5l-1.4,1.4l-1.1-1.1l1.4-1.4c-0.9-1.3-1.4-2.7-1.4-4.2c0-2,0.7-3.7,2.1-5c1.4-1.3,3-2,4.9-2
				C102.2,112.7,103.6,113.1,104.8,114.1z M103.4,115.4c-0.8-0.6-1.8-0.8-2.8-0.8c-1.4,0-2.6,0.5-3.6,1.5c-0.9,1-1.4,2.2-1.4,3.7
				c0,1,0.3,1.9,0.8,2.8L103.4,115.4z M104.6,116.5l-7,7.1c1,0.7,2,1,3,1c1.4,0,2.5-0.5,3.5-1.5c1-1,1.4-2.2,1.4-3.6
				C105.6,118.5,105.2,117.5,104.6,116.5z"/>
			<path class="st3" d="M114.5,120.6l4.1,5.7h-2.5l-3.8-5.5H112v5.5h-2v-13.4h2.4c1.8,0,3.1,0.3,3.8,1c0.9,0.7,1.3,1.7,1.3,2.9
				c0,0.9-0.3,1.8-0.8,2.4C116.1,120,115.4,120.4,114.5,120.6z M112,119.1h0.6c1.9,0,2.9-0.7,2.9-2.2c0-1.4-0.9-2.1-2.8-2.1H112
				C112,114.8,112,119.1,112,119.1z"/>
			<path class="st3" d="M127.9,114.9l-1.6,1c-0.3-0.5-0.6-0.9-0.9-1c-0.3-0.2-0.7-0.3-1.1-0.3c-0.6,0-1,0.2-1.4,0.5
				c-0.4,0.3-0.6,0.7-0.6,1.2c0,0.7,0.5,1.2,1.5,1.6l1.3,0.5c1.1,0.4,1.9,1,2.4,1.6c0.5,0.6,0.8,1.4,0.8,2.3c0,1.2-0.4,2.3-1.2,3.1
				c-0.8,0.8-1.9,1.2-3.1,1.2c-1.2,0-2.1-0.3-2.9-1c-0.7-0.7-1.2-1.7-1.4-2.9l2-0.5c0.1,0.8,0.3,1.3,0.5,1.6c0.4,0.6,1,0.9,1.8,0.9
				c0.6,0,1.2-0.2,1.6-0.6c0.4-0.4,0.6-1,0.6-1.6c0-0.3,0-0.5-0.1-0.7c-0.1-0.2-0.2-0.4-0.3-0.6c-0.2-0.2-0.4-0.4-0.6-0.5
				c-0.2-0.2-0.5-0.3-0.9-0.5l-1.3-0.5c-1.8-0.8-2.8-1.9-2.8-3.4c0-1,0.4-1.8,1.2-2.5c0.8-0.7,1.7-1,2.9-1
				C125.8,112.7,127.1,113.4,127.9,114.9z"/>
		</g>
		<g>
			<path class="st3" d="M66.4,131.7v11.5h-2v-11.5h-3.1v-1.9h8.2v1.9H66.4z"/>
			<path class="st3" d="M76.2,137.5l4.1,5.7h-2.5l-3.8-5.5h-0.4v5.5h-2v-13.4h2.4c1.8,0,3.1,0.3,3.8,1c0.9,0.7,1.3,1.7,1.3,2.9
				c0,0.9-0.3,1.8-0.8,2.4C77.8,136.9,77.1,137.3,76.2,137.5z M73.7,136h0.6c1.9,0,2.9-0.7,2.9-2.2c0-1.4-0.9-2.1-2.8-2.1h-0.7V136z
				"/>
			<path class="st3" d="M90.7,140H85l-1.5,3.2h-2.2l6.4-13.4h5.9l0.8,1.9h-5.3l1.4,3.2h5.2l0.9,1.9h-5.2l1.9,4.5h5.4l0.8,1.9h-7.4
				L90.7,140z M89.9,138.1l-1.9-4.4l-2.1,4.4H89.9z"/>
		</g>
	</g>
</g>
<g id="ikon">
	<g>
		<rect x="64.2" y="66.5" class="st3" width="7.5" height="7.2"/>
		<rect x="88.4" y="66.5" class="st3" width="7.5" height="7.2"/>
		<rect x="40" y="66.5" class="st3" width="7.3" height="7.2"/>
		<rect x="112.7" y="66.5" class="st3" width="7.3" height="7.2"/>
		<rect x="40" y="97.7" class="st3" width="7.3" height="7.4"/>
		<rect x="64.2" y="97.7" class="st3" width="7.5" height="7.4"/>
		<rect x="88.4" y="97.7" class="st3" width="7.5" height="7.4"/>
		<rect x="112.7" y="97.7" class="st3" width="7.3" height="7.4"/>
		<polygon class="st3" points="86.8,62.6 80,53 73.2,62.6 73.2,109 86.8,109 		"/>
		<polygon class="st3" points="111.1,62.6 104.2,53 97.5,62.6 97.5,109 111.1,109 		"/>
		<polygon class="st3" points="62.6,62.6 55.7,53 49,62.6 49,109 62.6,109 		"/>
	</g>
</g>
</svg>
