<svg xmlns="http://www.w3.org/2000/svg" width="32.808" height="72.262" viewBox="0 0 32.808 72.262">
  <g id="_013-water_bottle" data-name="013-water bottle" transform="translate(-139.776)">
    <path id="Path_31" data-name="Path 31" d="M172.583,35.032V20.172a5.447,5.447,0,0,0-1.26-3.48l-3.389-4.063a1.059,1.059,0,1,0-1.626,1.356l1.94,2.326H144.111l8.18-9.81h7.778l3.284,3.939a1.059,1.059,0,0,0,1.626-1.356L162.823,6.5a1.059,1.059,0,0,0,.992-1.056V1.059A1.059,1.059,0,0,0,162.756,0H149.6a1.059,1.059,0,0,0-1.059,1.059V5.443a1.059,1.059,0,0,0,.991,1.056l-8.5,10.194,0,0h0a5.447,5.447,0,0,0-1.257,3.475v14.86a4.339,4.339,0,0,0,1.509,3.29,4.341,4.341,0,0,0,0,6.579,4.341,4.341,0,0,0,0,6.576,4.341,4.341,0,0,0,0,6.576,4.339,4.339,0,0,0-1.507,3.288v6.574a4.351,4.351,0,0,0,4.347,4.346h24.113a4.351,4.351,0,0,0,4.347-4.346V61.342a4.338,4.338,0,0,0-1.507-3.288,4.341,4.341,0,0,0,0-6.576,4.341,4.341,0,0,0,0-6.576,4.341,4.341,0,0,0,0-6.579,4.339,4.339,0,0,0,1.509-3.29Zm-2.117-14.86v14.86a2.233,2.233,0,0,1-2.23,2.23h-9.522a1.058,1.058,0,0,0-1.059,1.059v0a1.059,1.059,0,0,0,1.059,1.059h9.522a2.229,2.229,0,1,1,0,4.459H144.122a2.229,2.229,0,0,1,0-4.459H154.1a1.059,1.059,0,0,0,1.059-1.059v0a1.059,1.059,0,0,0-1.059-1.059h-9.977a2.233,2.233,0,0,1-2.23-2.23V20.172a3.325,3.325,0,0,1,.5-1.744H169.97A3.326,3.326,0,0,1,170.466,20.172Zm-19.8-18.055H161.7V4.384H150.662Zm-6.539,48.3a2.23,2.23,0,0,1,0-4.459h24.113a2.23,2.23,0,1,1,0,4.459ZM155.2,59.112h13.037a2.233,2.233,0,0,1,2.23,2.23v6.574a2.232,2.232,0,0,1-2.23,2.229H144.123a2.232,2.232,0,0,1-2.23-2.229V61.342a2.233,2.233,0,0,1,2.23-2.23h6.462a1.059,1.059,0,1,0,0-2.117h-6.462a2.229,2.229,0,1,1,0-4.459h24.114a2.229,2.229,0,0,1,0,4.459H155.2a1.059,1.059,0,1,0,0,2.117Z"/>
    <path id="Path_32" data-name="Path 32" d="M227.224,168.278a4.734,4.734,0,0,0,4.729-4.729c0-2.244-3.214-7.007-3.858-7.939a1.059,1.059,0,0,0-1.742,0c-.644.932-3.858,5.7-3.858,7.939A4.734,4.734,0,0,0,227.224,168.278Zm0-10.145c1.276,2.012,2.612,4.47,2.612,5.417a2.612,2.612,0,0,1-5.223,0C224.612,162.6,225.948,160.145,227.224,158.132Z" transform="translate(-71.044 -133.255)"/>
  </g>
</svg>