<svg xmlns="http://www.w3.org/2000/svg" width="28.422" height="72.262" viewBox="0 0 28.422 72.262">
  <g id="_036-battery" data-name="036-battery" transform="translate(-155.31)">
    <path id="Path_26" data-name="Path 26" d="M180.557,8.769h-3.4V3.176A3.179,3.179,0,0,0,173.98,0h-8.918a3.179,3.179,0,0,0-3.176,3.176V8.769h-3.4a3.179,3.179,0,0,0-3.176,3.176V37.112a1.059,1.059,0,0,0,2.117,0v-8.69h15.267a1.059,1.059,0,1,0,0-2.117H157.427V24.037h24.188V26.3h-4.307a1.059,1.059,0,1,0,0,2.117h4.307v2.673l-8.116,4.09c-.8.453-.9.947-.278,1.687l3.371,3.427-9.807,5.884A1.059,1.059,0,0,0,167.874,48l10.96-6.576c.708-.446.9-.908.21-1.65l-3.3-3.351,5.867-2.957V52.609H157.427V41.726a1.059,1.059,0,1,0-2.117,0V69.087a3.179,3.179,0,0,0,3.176,3.176h8.5a1.059,1.059,0,0,0,0-2.117h-8.5a1.06,1.06,0,0,1-1.059-1.059V59.11h24.188v9.977a1.06,1.06,0,0,1-1.059,1.059H171.6a1.059,1.059,0,0,0,0,2.117h8.954a3.179,3.179,0,0,0,3.176-3.176V11.944a3.179,3.179,0,0,0-3.176-3.176Zm1.059,48.224H157.427V54.726h24.188ZM164,3.176a1.06,1.06,0,0,1,1.059-1.059h8.918a1.06,1.06,0,0,1,1.059,1.059V8.768H164ZM181.615,21.92H157.427V11.944a1.06,1.06,0,0,1,1.059-1.059h22.071a1.06,1.06,0,0,1,1.059,1.059Z" transform="translate(0 0)"/>
    <path id="Path_27" data-name="Path 27" d="M238.412,95.379h-1.133V94.246a1.059,1.059,0,0,0-2.117,0v1.133h-1.133a1.059,1.059,0,1,0,0,2.117h1.133V98.63a1.059,1.059,0,0,0,2.117,0V97.5h1.133a1.059,1.059,0,1,0,0-2.117Z" transform="translate(-66.698 -80.035)"/>
    <path id="Path_28" data-name="Path 28" d="M239.469,451.463a1.058,1.058,0,0,0-1.059-1.059h-4.384a1.059,1.059,0,1,0,0,2.117h4.384A1.058,1.058,0,0,0,239.469,451.463Z" transform="translate(-66.698 -386.835)"/>
  </g>
</svg>
