<svg xmlns="http://www.w3.org/2000/svg" width="59.11" height="72.262" viewBox="0 0 59.11 72.262">
  <g id="_035-glass_bottle" data-name="035-glass bottle" transform="translate(-46.595)">
    <path id="Path_29" data-name="Path 29" d="M292.452,320.261c0-.011,0-.022,0-.033V312.7a1.059,1.059,0,0,0-2.117,0v6.5H266.147V298.994l3.116-1.558,3.535,3.535v3.747a1.059,1.059,0,0,0,.552.929l3.487,1.9-1.735,3.47a1.059,1.059,0,0,0,.2,1.222l2.192,2.192a1.059,1.059,0,1,0,1.5-1.5l-1.653-1.652,1.851-3.7a1.058,1.058,0,0,0-.44-1.4l-3.832-2.09v-2.9l3.326-1.664,3.91,1.956a1.058,1.058,0,0,0,.947,0l4.16-2.081h3.075v8.691a1.059,1.059,0,1,0,2.117,0v-9.75a1.058,1.058,0,0,0-1.058-1.059h-4.384a1.056,1.056,0,0,0-.474.112l-3.91,1.956-3.91-1.956a1.058,1.058,0,0,0-.947,0l-3.7,1.852-3.845-3.846a1.058,1.058,0,0,0-1.222-.2l-4.384,2.192a1.059,1.059,0,0,0-.585.947v21.93a5.44,5.44,0,0,0,5.434,5.434h17.553a5.58,5.58,0,0,0,5.434-5.443Zm-5.434,3.326H269.464a3.323,3.323,0,0,1-3.147-2.267h23.847A3.323,3.323,0,0,1,287.017,323.586Z" transform="translate(-186.747 -253.441)"/>
    <path id="Path_30" data-name="Path 30" d="M75.017,22.97a5.44,5.44,0,0,0-5.434-5.434H67.306a1.06,1.06,0,0,1-1.058-1.031c0-.009,0-10.181,0-10.181A3.251,3.251,0,0,0,65.19,0H56.422a3.251,3.251,0,0,0-1.059,6.324V16.477A1.06,1.06,0,0,1,54.3,17.536H52.029A5.44,5.44,0,0,0,46.6,22.97V66.787c0,.011,0,.022,0,.033s0,.025,0,.038a5.44,5.44,0,0,0,5.434,5.405H69.583a5.44,5.44,0,0,0,5.434-5.434V47.2a1.059,1.059,0,1,0-2.117,0V65.761H48.713V59.11H60.806a1.058,1.058,0,0,0,1.059-1.059v-26.3a1.058,1.058,0,0,0-1.059-1.059H48.713v-6.66H58.5a1.059,1.059,0,0,0,0-2.117H48.886a3.323,3.323,0,0,1,3.144-2.258H54.3A3.181,3.181,0,0,0,57.3,17.536h7.013a3.181,3.181,0,0,0,2.994,2.117h2.277a3.323,3.323,0,0,1,3.144,2.258H63.113a1.059,1.059,0,0,0,0,2.117H72.9v7.064l-3.8,1.9a1.059,1.059,0,0,0-.585.947v3.946l-1.882,1.882a1.059,1.059,0,0,0-.31.748v3.878l-1.9,1.962a1.059,1.059,0,0,0,1.523,1.471l2.192-2.27a1.059,1.059,0,0,0,.3-.735V40.953l1.882-1.882a1.059,1.059,0,0,0,.31-.748v-3.73L72.9,33.459v9.128a1.059,1.059,0,0,0,2.117,0Zm-26.3,14.22h6.65V52.453h-6.65Zm20.87,32.956H52.029a3.323,3.323,0,0,1-3.147-2.267H72.729A3.323,3.323,0,0,1,69.583,70.145Zm-9.836-37.34V56.993H48.713V54.57h7.709a1.058,1.058,0,0,0,1.059-1.059V36.131a1.058,1.058,0,0,0-1.059-1.059H48.713V32.805ZM64.131,6.5v8.918H57.48V6.5ZM56.422,2.117H65.19a1.133,1.133,0,0,1,.027,2.267H56.394a1.133,1.133,0,0,1,.027-2.267Z" transform="translate(0)"/>
  </g>
</svg>
