<?xml version="1.0" encoding="utf-8"?>
<!-- Generator: Adobe Illustrator 25.4.1, SVG Export Plug-In . SVG Version: 6.00 Build 0)  -->
<svg version="1.1" id="Layer_1" xmlns="http://www.w3.org/2000/svg" xmlns:xlink="http://www.w3.org/1999/xlink" x="0px" y="0px"
	 width="160px" height="160px" viewBox="0 0 160 160" style="enable-background:new 0 0 160 160;" xml:space="preserve">
<style type="text/css">
	.st0{fill:#004B82;}
	.st1{display:none;}
	.st2{display:inline;}
	.st3{fill:#FFFFFF;}
</style>
<g id="baggrund">
	<rect class="st0" width="160" height="160"/>
</g>
<g id="fraktion" class="st1">
	<g class="st2">
		<path class="st3" d="M51.7,143.2v-13.4h2c0.9,0,1.6,0.1,2.1,0.2c0.5,0.1,1,0.4,1.4,0.7c0.4,0.3,0.7,0.8,0.9,1.3
			c0.2,0.5,0.3,1,0.3,1.6c0,1-0.4,1.8-1.1,2.4c0.7,0.2,1.3,0.7,1.7,1.3c0.4,0.6,0.6,1.3,0.6,2.1c0,1-0.4,1.9-1.1,2.7
			c-0.4,0.4-0.9,0.8-1.5,0.9c-0.6,0.2-1.4,0.3-2.3,0.3L51.7,143.2L51.7,143.2z M53.7,135.6h0.6c0.8,0,1.3-0.2,1.7-0.5
			c0.4-0.3,0.5-0.8,0.5-1.5c0-0.6-0.2-1.1-0.5-1.4c-0.4-0.3-0.9-0.5-1.6-0.5h-0.7L53.7,135.6L53.7,135.6z M53.7,141.3h1.3
			c0.9,0,1.6-0.2,2-0.5c0.5-0.4,0.7-0.9,0.7-1.5c0-0.6-0.2-1.1-0.7-1.5c-0.4-0.4-1.2-0.6-2.3-0.6h-1L53.7,141.3L53.7,141.3z"/>
		<path class="st3" d="M69,131.7h-5.4v3.2h5.2v1.9h-5.2v4.5H69v1.9h-7.4v-13.4H69V131.7z"/>
		<path class="st3" d="M76.3,131.7v11.5h-2v-11.5h-3.1v-1.9h8.2v1.9H76.3z"/>
		<path class="st3" d="M80.1,136.5c0-1.9,0.7-3.5,2.1-4.9c1.4-1.4,3-2,5-2c1.9,0,3.5,0.7,4.9,2c1.4,1.4,2.1,3,2.1,4.9
			c0,1.9-0.7,3.6-2.1,4.9c-1.4,1.3-3.1,2-5,2c-1.7,0-3.3-0.6-4.7-1.8C80.8,140.3,80.1,138.6,80.1,136.5z M82.1,136.5
			c0,1.5,0.5,2.7,1.5,3.7c1,1,2.1,1.4,3.4,1.4c1.4,0,2.6-0.5,3.6-1.5c1-1,1.4-2.2,1.4-3.6c0-1.4-0.5-2.6-1.4-3.6
			c-0.9-1-2.1-1.5-3.5-1.5c-1.4,0-2.6,0.5-3.5,1.5C82.6,133.9,82.1,135.1,82.1,136.5z"/>
		<path class="st3" d="M96.3,143.2v-14.3l9.8,10.2v-9.3h2V144l-9.8-10.2v9.4L96.3,143.2L96.3,143.2z"/>
	</g>
</g>
<g id="ikon">
	<path class="st3" d="M109.1,93.6c-2.3,0-4.2-1.9-4.2-4.2V70.5c0-2.3,1.9-4.2,4.2-4.2h12.5v-8H38.4v8H51c2.3,0,4.2,1.9,4.2,4.2v18.9
		c0,2.3-1.9,4.2-4.2,4.2H38.4v8h83.2v-8L109.1,93.6L109.1,93.6z M96.9,89.4c0,2.3-1.9,4.2-4.2,4.2H67.4c-2.3,0-4.2-1.9-4.2-4.2V70.5
		c0-2.3,1.9-4.2,4.2-4.2h25.3c2.3,0,4.2,1.9,4.2,4.2V89.4z"/>
</g>
</svg>
