<?xml version="1.0" encoding="utf-8"?>
<!-- Generator: Adobe Illustrator 25.4.1, SVG Export Plug-In . SVG Version: 6.00 Build 0)  -->
<svg version="1.1" id="Layer_1" xmlns="http://www.w3.org/2000/svg" xmlns:xlink="http://www.w3.org/1999/xlink" x="0px" y="0px"
	 width="160px" height="160px" viewBox="0 0 160 160" style="enable-background:new 0 0 160 160;" xml:space="preserve">
<style type="text/css">
	.st0{fill:#E10F1E;}
	.st1{display:none;}
	.st2{display:inline;}
	.st3{fill:#FFFFFF;}
	.st4{fill:none;}
</style>
<g id="baggrund">
	<rect class="st0" width="160" height="160"/>
</g>
<g id="fraktion" class="st1">
	<g class="st2">
		<g>
			<path class="st3" d="M49.5,143.2v-13.4h2c0.9,0,1.6,0.1,2.1,0.2c0.5,0.1,1,0.4,1.4,0.7c0.4,0.3,0.7,0.8,0.9,1.3
				c0.2,0.5,0.3,1,0.3,1.6c0,1-0.4,1.8-1.1,2.4c0.7,0.2,1.3,0.7,1.7,1.3c0.4,0.6,0.6,1.3,0.6,2.1c0,1-0.4,1.9-1.1,2.7
				c-0.4,0.4-0.9,0.8-1.5,0.9c-0.6,0.2-1.4,0.3-2.3,0.3L49.5,143.2L49.5,143.2z M51.5,135.6h0.6c0.8,0,1.3-0.2,1.7-0.5
				c0.4-0.3,0.5-0.8,0.5-1.5c0-0.6-0.2-1.1-0.5-1.4c-0.4-0.3-0.9-0.5-1.6-0.5h-0.7L51.5,135.6L51.5,135.6z M51.5,141.3h1.3
				c0.9,0,1.6-0.2,2-0.5c0.5-0.4,0.7-0.9,0.7-1.5c0-0.6-0.2-1.1-0.7-1.5c-0.4-0.4-1.2-0.6-2.3-0.6h-1V141.3z"/>
			<path class="st3" d="M67.8,140h-5.7l-1.5,3.3h-2.2l6.6-14.2l6.4,14.2h-2.2L67.8,140z M67,138.1l-2-4.6l-2.1,4.6H67z"/>
			<path class="st3" d="M75.7,131.7v11.5h-2v-11.5h-3.1v-1.9h8.2v1.9H75.7z"/>
			<path class="st3" d="M84.8,131.7v11.5h-2v-11.5h-3.1v-1.9h8.2v1.9H84.8z"/>
			<path class="st3" d="M97.5,131.7h-5.4v3.2h5.2v1.9h-5.2v4.5h5.4v1.9h-7.4v-13.4h7.4V131.7z"/>
			<path class="st3" d="M104.4,137.5l4.1,5.7h-2.5l-3.8-5.5h-0.4v5.5h-2v-13.4h2.4c1.8,0,3.1,0.3,3.8,1c0.9,0.7,1.3,1.7,1.3,2.9
				c0,0.9-0.3,1.8-0.8,2.4C106.1,136.9,105.3,137.3,104.4,137.5z M101.9,136h0.6c1.9,0,2.9-0.7,2.9-2.2c0-1.4-0.9-2.1-2.8-2.1h-0.7
				L101.9,136L101.9,136z"/>
			<path class="st3" d="M112.6,129.8v13.4h-2v-13.4H112.6z"/>
			<path class="st3" d="M122.6,131.7h-5.4v3.2h5.2v1.9h-5.2v4.5h5.4v1.9h-7.4v-13.4h7.4V131.7z"/>
			<path class="st3" d="M129.7,137.5l4.1,5.7h-2.5l-3.8-5.5h-0.4v5.5h-2v-13.4h2.4c1.8,0,3.1,0.3,3.8,1c0.9,0.7,1.3,1.7,1.3,2.9
				c0,0.9-0.3,1.8-0.8,2.4C131.3,136.9,130.6,137.3,129.7,137.5z M127.2,136h0.6c1.9,0,2.9-0.7,2.9-2.2c0-1.4-0.9-2.1-2.8-2.1h-0.7
				C127.2,131.7,127.2,136,127.2,136z"/>
		</g>
		<g>
			<path class="st3" d="M26.2,143.2v-13.5h2c0.9,0,1.6,0.1,2.2,0.2c0.5,0.1,1,0.4,1.4,0.7c0.4,0.3,0.7,0.8,0.9,1.3
				c0.2,0.5,0.3,1,0.3,1.6c0,1-0.4,1.8-1.1,2.5c0.7,0.2,1.3,0.7,1.7,1.3c0.4,0.6,0.6,1.3,0.6,2.1c0,1.1-0.4,1.9-1.1,2.7
				c-0.4,0.4-1,0.8-1.5,0.9c-0.6,0.2-1.4,0.3-2.3,0.3L26.2,143.2L26.2,143.2z M28.2,135.6h0.6c0.8,0,1.3-0.2,1.7-0.5
				c0.4-0.3,0.5-0.8,0.5-1.5c0-0.6-0.2-1.1-0.5-1.4c-0.4-0.3-0.9-0.5-1.6-0.5h-0.7V135.6z M28.2,141.3h1.3c0.9,0,1.6-0.2,2-0.5
				c0.5-0.4,0.7-0.9,0.7-1.5c0-0.6-0.2-1.1-0.7-1.5c-0.4-0.4-1.2-0.6-2.3-0.6h-1V141.3z"/>
			<path class="st3" d="M38.5,129.8v13.5h-2v-13.5H38.5z"/>
			<path class="st3" d="M43.2,129.8v11.6h4v1.9h-6v-13.5H43.2z"/>
		</g>
	</g>
</g>
<g id="ikon">
	<g>
		<polygon class="st4" points="59.2,73.9 57.5,73.9 57.5,77.1 54.3,77.1 54.3,78.8 57.5,78.8 57.5,81.9 59.2,81.9 59.2,78.8 
			62.3,78.8 62.3,77.1 59.2,77.1 		"/>
		<rect x="97.6" y="77.2" class="st4" width="8" height="1.6"/>
		<path class="st3" d="M113.6,69.3H46.4v35.1h67.2V69.3z M62.3,78.8h-3.1v3.1h-1.7v-3.1h-3.1v-1.7h3.1v-3.1h1.7v3.1h3.1V78.8z
			 M97.6,78.8v-1.6h8v1.6H97.6z"/>
		<rect x="46.4" y="64.4" class="st3" width="67.2" height="3.3"/>
		<rect x="52.7" y="59.6" class="st3" width="11.2" height="3.2"/>
		<rect x="96" y="59.6" class="st3" width="11.2" height="3.2"/>
	</g>
</g>
</svg>
