<?xml version="1.0" encoding="utf-8"?>
<!-- Generator: Adobe Illustrator 25.4.1, SVG Export Plug-In . SVG Version: 6.00 Build 0)  -->
<svg version="1.1" id="Layer_1" xmlns="http://www.w3.org/2000/svg" xmlns:xlink="http://www.w3.org/1999/xlink" x="0px" y="0px"
	 width="160px" height="160px" viewBox="0 0 160 160" style="enable-background:new 0 0 160 160;" xml:space="preserve">
<style type="text/css">
	.st0{fill:#0082BE;}
	.st1{display:none;}
	.st2{display:inline;}
	.st3{fill:#FFFFFF;}
	.st4{fill:none;}
</style>
<g id="baggrund">
	<rect class="st0" width="160" height="160"/>
</g>
<g id="fraktion" class="st1">
	<g class="st2">
		<path class="st3" d="M50.2,143.5v-13.4h2c0.9,0,1.6,0.1,2.1,0.2c0.5,0.1,1,0.4,1.4,0.7c0.4,0.3,0.7,0.8,0.9,1.3
			c0.2,0.5,0.3,1,0.3,1.6c0,1-0.4,1.8-1.1,2.4c0.7,0.2,1.3,0.7,1.7,1.3c0.4,0.6,0.6,1.3,0.6,2.1c0,1-0.4,1.9-1.1,2.7
			c-0.4,0.4-0.9,0.8-1.5,0.9c-0.6,0.2-1.4,0.3-2.3,0.3H50.2z M52.3,135.9h0.6c0.8,0,1.3-0.2,1.7-0.5c0.4-0.3,0.5-0.8,0.5-1.5
			c0-0.6-0.2-1.1-0.5-1.4c-0.4-0.3-0.9-0.5-1.6-0.5h-0.7V135.9z M52.3,141.6h1.3c0.9,0,1.6-0.2,2-0.5c0.5-0.4,0.7-0.9,0.7-1.5
			c0-0.6-0.2-1.1-0.7-1.5c-0.4-0.4-1.2-0.6-2.3-0.6h-1V141.6z"/>
		<path class="st3" d="M71.4,131.2l1.4-1.5l1.2,1.2l-1.4,1.5c1.1,1.3,1.6,2.8,1.6,4.4c0,1.9-0.7,3.5-2.1,4.9c-1.4,1.4-3,2-4.9,2
			c-1.6,0-3.1-0.5-4.4-1.5l-1.4,1.4l-1.1-1.1l1.4-1.4c-0.9-1.3-1.4-2.7-1.4-4.2c0-2,0.7-3.7,2.1-5c1.4-1.3,3-2,4.9-2
			C68.7,129.8,70.1,130.3,71.4,131.2z M70,132.6c-0.8-0.6-1.8-0.8-2.8-0.8c-1.4,0-2.6,0.5-3.6,1.5c-0.9,1-1.4,2.2-1.4,3.7
			c0,1,0.3,1.9,0.8,2.8L70,132.6z M71.1,133.7l-7,7.1c1,0.7,2,1,3,1c1.4,0,2.5-0.5,3.5-1.5c1-1,1.4-2.2,1.4-3.6
			C72.1,135.7,71.8,134.7,71.1,133.7z"/>
		<path class="st3" d="M83.8,136.5h5.5v0.4c0,1-0.1,1.9-0.4,2.7c-0.2,0.7-0.6,1.4-1.2,2c-1.2,1.4-2.8,2.1-4.7,2.1
			c-1.9,0-3.5-0.7-4.8-2c-1.3-1.4-2-3-2-4.9c0-1.9,0.7-3.6,2-4.9c1.4-1.4,3-2,5-2c1,0,2,0.2,2.9,0.6c0.9,0.4,1.7,1.1,2.6,2.1
			l-1.4,1.4c-1.1-1.5-2.4-2.2-4-2.2c-1.4,0-2.6,0.5-3.6,1.5c-1,1-1.4,2.2-1.4,3.6c0,1.5,0.5,2.7,1.6,3.7c1,0.9,2.1,1.3,3.3,1.3
			c1,0,1.9-0.3,2.7-1c0.8-0.7,1.2-1.5,1.3-2.4h-3.3L83.8,136.5L83.8,136.5z"/>
		<path class="st3" d="M99.2,132h-5.4v3.2H99v1.9h-5.2v4.5h5.4v1.9h-7.4v-13.4h7.4L99.2,132L99.2,132z"/>
		<path class="st3" d="M106.2,137.8l4.1,5.7h-2.5l-3.8-5.5h-0.4v5.5h-2v-13.4h2.4c1.8,0,3.1,0.3,3.8,1c0.9,0.7,1.3,1.7,1.3,2.9
			c0,0.9-0.3,1.8-0.8,2.4C107.8,137.2,107.1,137.6,106.2,137.8z M103.7,136.3h0.6c1.9,0,2.9-0.7,2.9-2.2c0-1.4-0.9-2.1-2.8-2.1h-0.7
			C103.7,132,103.7,136.3,103.7,136.3z"/>
	</g>
</g>
<g id="ikon">
	<g>
		<path class="st3" d="M120.2,55.9v49.9c-0.5-0.1-1.1-0.2-1.6-0.4c-6-1.3-12.2-1.9-18.4-1.9c-6.5,0-12.9,0.7-19.2,2.1h0
			c-0.3,0.1-0.5,0.1-0.8,0.2c-0.3-0.1-0.5-0.1-0.8-0.2h0c-6.3-1.4-12.7-2.1-19.2-2.1c-6.3,0-12.4,0.7-18.4,1.9
			c-0.5,0.1-1.1,0.2-1.6,0.4v0v0V55.9h-4v52.6h38.9c0.9,1.9,2.8,3.2,5.1,3.2s4.2-1.3,5.1-3.2h38.9V55.9H120.2z"/>
		<path class="st3" d="M60.2,52.3c-6.3,0-12.4,0.7-18.4,1.9v49.6c0.2,0,0.3-0.1,0.5-0.1c5.9-1.2,11.9-1.8,17.9-1.8
			c6,0,12,0.6,17.9,1.8c0.4,0.1,0.9,0.2,1.3,0.3h0V54.4h0C73.2,53,66.8,52.3,60.2,52.3z"/>
		<path class="st3" d="M81,54.4V104c0.4-0.1,0.9-0.2,1.3-0.3c5.9-1.2,11.9-1.8,17.9-1.8c6,0,12,0.6,17.9,1.8c0.2,0,0.3,0.1,0.5,0.1
			V54.2c-6-1.3-12.2-1.9-18.4-1.9C93.7,52.3,87.3,53,81,54.4z"/>
		<line class="st4" x1="40.2" y1="105.8" x2="40.2" y2="105.8"/>
	</g>
</g>
</svg>
