<?xml version="1.0" encoding="utf-8"?>
<!-- Generator: Adobe Illustrator 25.4.1, SVG Export Plug-In . SVG Version: 6.00 Build 0)  -->
<svg version="1.1" id="Layer_1" xmlns="http://www.w3.org/2000/svg" xmlns:xlink="http://www.w3.org/1999/xlink" x="0px" y="0px"
	 width="160px" height="160px" viewBox="0 0 160 160" style="enable-background:new 0 0 160 160;" xml:space="preserve">
<style type="text/css">
	.st0{fill:#5A6E78;}
	.st1{display:none;}
	.st2{display:inline;}
	.st3{fill:#FFFFFF;}
</style>
<g id="baggrund">
	<g>
		<rect class="st0" width="160" height="160"/>
	</g>
</g>
<g id="fraktion" class="st1">
	<g class="st2">
		<g>
			<g>
				<path class="st3" d="M103.2,140h-5.7l-1.5,3.3h-2.2l6.6-14.2l6.4,14.2h-2.2L103.2,140z M102.4,138.1l-2-4.6l-2.1,4.6H102.4z
					 M98.5,126.7c0-0.5,0.2-0.9,0.6-1.3c0.4-0.4,0.8-0.6,1.3-0.6c0.5,0,1,0.2,1.3,0.6c0.4,0.4,0.6,0.8,0.6,1.3s-0.2,1-0.6,1.3
					c-0.4,0.4-0.8,0.6-1.3,0.6c-0.5,0-1-0.2-1.3-0.6C98.7,127.7,98.5,127.3,98.5,126.7z M99.6,126.7c0,0.2,0.1,0.5,0.2,0.6
					c0.2,0.2,0.4,0.2,0.6,0.2s0.4-0.1,0.6-0.2s0.2-0.4,0.2-0.6s-0.1-0.4-0.2-0.6c-0.2-0.2-0.4-0.2-0.6-0.2c-0.1,0-0.2,0-0.3,0.1
					c-0.1,0-0.2,0.1-0.3,0.2c-0.1,0.1-0.1,0.2-0.2,0.3C99.6,126.5,99.6,126.6,99.6,126.7z"/>
			</g>
			<path class="st3" d="M83.6,143.3v-13.4h2.8c1.3,0,2.4,0.1,3.2,0.4c0.8,0.3,1.6,0.7,2.3,1.3c1.4,1.3,2.1,2.9,2.1,5
				c0,2.1-0.7,3.7-2.2,5c-0.7,0.6-1.5,1.1-2.3,1.3c-0.7,0.2-1.8,0.4-3.2,0.4L83.6,143.3L83.6,143.3z M85.6,141.4h0.9
				c0.9,0,1.7-0.1,2.3-0.3c0.6-0.2,1.1-0.5,1.6-1c1-0.9,1.5-2.1,1.5-3.6c0-1.5-0.5-2.7-1.5-3.6c-0.9-0.8-2.2-1.2-3.9-1.2h-0.9
				C85.6,131.8,85.6,141.4,85.6,141.4z"/>
			<path class="st3" d="M115.8,131.9l-1.6,1c-0.3-0.5-0.6-0.9-0.9-1c-0.3-0.2-0.7-0.3-1.1-0.3c-0.6,0-1,0.2-1.4,0.5
				c-0.4,0.3-0.6,0.7-0.6,1.2c0,0.7,0.5,1.2,1.5,1.6l1.3,0.5c1.1,0.4,1.9,1,2.4,1.6c0.5,0.6,0.8,1.4,0.8,2.3c0,1.2-0.4,2.3-1.2,3.1
				c-0.8,0.8-1.9,1.2-3.1,1.2c-1.2,0-2.1-0.3-2.9-1c-0.7-0.7-1.2-1.7-1.4-2.9l2-0.5c0.1,0.8,0.3,1.3,0.5,1.6c0.4,0.6,1,0.9,1.8,0.9
				c0.6,0,1.2-0.2,1.6-0.6c0.4-0.4,0.6-1,0.6-1.6c0-0.3,0-0.5-0.1-0.7c-0.1-0.2-0.2-0.4-0.3-0.6c-0.2-0.2-0.4-0.4-0.6-0.5
				s-0.5-0.3-0.9-0.5l-1.3-0.5c-1.8-0.8-2.8-1.9-2.8-3.4c0-1,0.4-1.8,1.2-2.5c0.8-0.7,1.7-1,2.9-1
				C113.8,129.6,115,130.4,115.8,131.9z"/>
			<path class="st3" d="M125.9,131.8h-5.4v3.2h5.2v1.9h-5.2v4.5h5.4v1.9h-7.4v-13.4h7.4V131.8z"/>
			<path class="st3" d="M132.8,137.6l4.1,5.7h-2.5l-3.8-5.5h-0.4v5.5h-2v-13.4h2.4c1.8,0,3.1,0.3,3.8,1c0.9,0.7,1.3,1.7,1.3,2.9
				c0,0.9-0.3,1.8-0.8,2.4C134.4,136.9,133.7,137.4,132.8,137.6z M130.3,136h0.6c1.9,0,2.9-0.7,2.9-2.2c0-1.4-0.9-2.1-2.8-2.1h-0.7
				L130.3,136L130.3,136z"/>
		</g>
		<g>
			<path class="st3" d="M23,143.3v-13.4h2.8c1.3,0,2.4,0.1,3.2,0.4c0.8,0.3,1.6,0.7,2.3,1.3c1.4,1.3,2.1,2.9,2.1,5
				c0,2.1-0.7,3.7-2.2,5c-0.7,0.6-1.5,1.1-2.3,1.3c-0.7,0.2-1.8,0.4-3.2,0.4L23,143.3L23,143.3z M25,141.4H26c0.9,0,1.7-0.1,2.3-0.3
				c0.6-0.2,1.1-0.5,1.6-1c1-0.9,1.5-2.1,1.5-3.6c0-1.5-0.5-2.7-1.5-3.6c-0.9-0.8-2.2-1.2-3.9-1.2H25L25,141.4L25,141.4z"/>
			<path class="st3" d="M40,137.6l4.1,5.7h-2.5l-3.8-5.5h-0.4v5.5h-2v-13.4h2.4c1.8,0,3.1,0.3,3.8,1c0.9,0.7,1.3,1.7,1.3,2.9
				c0,0.9-0.3,1.8-0.8,2.4C41.6,136.9,40.9,137.4,40,137.6z M37.5,136h0.6c1.9,0,2.9-0.7,2.9-2.2c0-1.4-0.9-2.1-2.8-2.1h-0.7V136z"
				/>
			<path class="st3" d="M47.8,129.9v13.4h-2v-13.4H47.8z"/>
			<path class="st3" d="M52.3,135.2l5.2-5.3h2.7l-6.1,6.1l6.1,7.3h-2.7l-4.8-6l-0.4,0.4v5.5h-2v-13.4h2
				C52.3,129.9,52.3,135.2,52.3,135.2z"/>
			<path class="st3" d="M64,135.2l5.2-5.3h2.7l-6.1,6.1l6.1,7.3h-2.7l-4.8-6l-0.4,0.4v5.5h-2v-13.4h2C64,129.9,64,135.2,64,135.2z"
				/>
			<path class="st3" d="M81.1,131.8h-5.4v3.2H81v1.9h-5.2v4.5h5.4v1.9h-7.4v-13.4h7.4V131.8z"/>
		</g>
	</g>
</g>
<g id="ikon">
	<g>
		<g>
			<path class="st3" d="M89,46c-2.2-0.4-4.5,0.4-6.1,3l-2.7,4.5h8.9l1.7-2.8c0.2-0.4,0.4-0.9,0.5-1.3C91.6,47.9,90.7,46.3,89,46z
				 M89.1,50.2c-0.6,1.1-2.1,1.9-3.2,1.7s-1.6-1.3-1-2.5c0.7-1.3,2.1-1.9,3.2-1.7C89.3,47.9,89.7,49,89.1,50.2z"/>
		</g>
		<polygon class="st3" points="67,114 93.1,114 96.1,110.7 64,110.7 		"/>
		<path class="st3" d="M96.8,108.2c0.1-1,0-41.6,0-42.9c0-2.7-3.2-6.6-3.7-7.8v-2.4H67v2.4c-0.5,1.2-3.7,5.1-3.7,7.8
			c0,1.3-0.1,41.9,0,42.9c0,0.3,0,0.6,0.1,0.8h33.3C96.8,108.8,96.8,108.5,96.8,108.2z"/>
	</g>
</g>
</svg>
