<?xml version="1.0" encoding="utf-8"?>
<!-- Generator: Adobe Illustrator 25.4.1, SVG Export Plug-In . SVG Version: 6.00 Build 0)  -->
<svg version="1.1" id="Layer_1" xmlns="http://www.w3.org/2000/svg" xmlns:xlink="http://www.w3.org/1999/xlink" x="0px" y="0px"
	 width="160px" height="160px" viewBox="0 0 160 160" style="enable-background:new 0 0 160 160;" xml:space="preserve">
<style type="text/css">
	.st0{fill:#E10F1E;}
	.st1{display:none;}
	.st2{display:inline;}
	.st3{fill:#FFFFFF;}
</style>
<g id="baggrund">
	<rect class="st0" width="160" height="160"/>
</g>
<g id="fraktion" class="st1">
	<g class="st2">
		<path class="st3" d="M50.9,131.8h-5.4v3.2h5.2v1.9h-5.2v4.5h5.4v1.9h-7.4v-13.4h7.4V131.8z"/>
		<path class="st3" d="M55.2,129.9v11.5h3.9v1.9h-6v-13.4L55.2,129.9L55.2,129.9z"/>
		<path class="st3" d="M63.4,137.9v5.4h-2v-13.4h2.3c1.1,0,2,0.1,2.5,0.2c0.6,0.2,1.1,0.5,1.5,0.9c0.8,0.8,1.2,1.7,1.2,2.8
			c0,1.2-0.4,2.2-1.2,2.9c-0.8,0.7-1.9,1.1-3.3,1.1L63.4,137.9L63.4,137.9z M63.4,136h0.8c1.9,0,2.8-0.7,2.8-2.1
			c0-1.4-1-2.1-2.9-2.1h-0.7V136z"/>
		<path class="st3" d="M77,140.1h-5.7l-1.5,3.2h-2.2l6.4-13.4H80l0.8,1.9h-5.3l1.4,3.2h5.2L83,137h-5.2l1.9,4.5H85l0.8,1.9h-7.4
			L77,140.1z M76.2,138.2l-1.9-4.4l-2.1,4.4H76.2z"/>
		<path class="st3" d="M92.2,137.6l4.1,5.7h-2.5l-3.8-5.5h-0.4v5.5h-2v-13.4H90c1.8,0,3.1,0.3,3.8,1c0.9,0.7,1.3,1.7,1.3,2.9
			c0,0.9-0.3,1.8-0.8,2.4C93.8,137,93.1,137.4,92.2,137.6z M89.6,136.1h0.6c1.9,0,2.9-0.7,2.9-2.2c0-1.4-0.9-2.1-2.8-2.1h-0.7
			L89.6,136.1L89.6,136.1z"/>
		<path class="st3" d="M105.6,131.8h-5.4v3.2h5.2v1.9h-5.2v4.5h5.4v1.9h-7.4v-13.4h7.4V131.8z"/>
		<path class="st3" d="M112.4,137.6l4.1,5.7H114l-3.8-5.5h-0.4v5.5h-2v-13.4h2.4c1.8,0,3.1,0.3,3.8,1c0.9,0.7,1.3,1.7,1.3,2.9
			c0,0.9-0.3,1.8-0.8,2.4C114,137,113.3,137.4,112.4,137.6z M109.8,136.1h0.6c1.9,0,2.9-0.7,2.9-2.2c0-1.4-0.9-2.1-2.8-2.1h-0.7
			L109.8,136.1L109.8,136.1z"/>
	</g>
</g>
<g id="ikon">
	<g>
		<g>
			<path class="st3" d="M80,112.9c4.5,0,8.2-3.5,8.4-7.9H71.6C71.8,109.4,75.5,112.9,80,112.9z"/>
			<path class="st3" d="M94.8,79.4L94.8,79.4c2.5-3.2,4-7.2,4-11.5c0-10.4-8.4-18.8-18.8-18.8s-18.8,8.4-18.8,18.8
				c0,4.4,1.5,8.4,4,11.5h0c3.1,4.5,6.3,8.6,6.4,15.9h16.8C88.5,88,91.8,83.9,94.8,79.4z"/>
			<rect x="71.6" y="101" class="st3" width="16.8" height="2.4"/>
			<rect x="71.6" y="97" class="st3" width="16.8" height="2.4"/>
		</g>
	</g>
</g>
</svg>
