<?xml version="1.0" encoding="utf-8"?>
<!-- Generator: Adobe Illustrator 25.4.1, SVG Export Plug-In . SVG Version: 6.00 Build 0)  -->
<svg version="1.1" id="Layer_1" xmlns="http://www.w3.org/2000/svg" xmlns:xlink="http://www.w3.org/1999/xlink" x="0px" y="0px"
	 width="160px" height="160px" viewBox="0 0 160 160" style="enable-background:new 0 0 160 160;" xml:space="preserve">
<style type="text/css">
	.st0{fill:#004B82;}
	.st1{display:none;}
	.st2{display:inline;}
	.st3{fill:#FFFFFF;}
</style>
<g id="baggrund">
	<rect class="st0" width="160" height="160"/>
</g>
<g id="fraktion" class="st1">
	<g class="st2">
		<path class="st3" d="M68.5,136.2h5.5v0.4c0,1-0.1,1.9-0.4,2.7c-0.2,0.7-0.6,1.4-1.2,2c-1.2,1.4-2.8,2.1-4.7,2.1
			c-1.9,0-3.5-0.7-4.8-2c-1.3-1.4-2-3-2-4.9c0-1.9,0.7-3.6,2-4.9c1.4-1.4,3-2,5-2c1,0,2,0.2,2.9,0.6c0.9,0.4,1.7,1.1,2.6,2.1
			l-1.4,1.4c-1.1-1.5-2.4-2.2-4-2.2c-1.4,0-2.6,0.5-3.6,1.5c-1,1-1.4,2.2-1.4,3.6c0,1.5,0.5,2.7,1.6,3.7c1,0.9,2.1,1.3,3.3,1.3
			c1,0,1.9-0.3,2.7-1c0.8-0.7,1.2-1.5,1.3-2.4h-3.3L68.5,136.2L68.5,136.2z"/>
		<path class="st3" d="M78.6,129.7v13.4h-2v-13.4H78.6z"/>
		<path class="st3" d="M83.3,137.7v5.4h-2v-13.4h2.3c1.1,0,2,0.1,2.5,0.2c0.6,0.2,1.1,0.5,1.5,0.9c0.8,0.8,1.2,1.7,1.2,2.8
			c0,1.2-0.4,2.2-1.2,2.9c-0.8,0.7-1.9,1.1-3.3,1.1L83.3,137.7L83.3,137.7z M83.3,135.8h0.8c1.9,0,2.8-0.7,2.8-2.1
			c0-1.4-1-2.1-2.9-2.1h-0.7V135.8z"/>
		<path class="st3" d="M98.6,131.7l-1.6,1c-0.3-0.5-0.6-0.9-0.9-1c-0.3-0.2-0.7-0.3-1.1-0.3c-0.6,0-1,0.2-1.4,0.5
			c-0.4,0.3-0.6,0.7-0.6,1.2c0,0.7,0.5,1.2,1.5,1.6l1.3,0.5c1.1,0.4,1.9,1,2.4,1.6c0.5,0.6,0.8,1.4,0.8,2.3c0,1.2-0.4,2.3-1.2,3.1
			c-0.8,0.8-1.9,1.2-3.1,1.2c-1.2,0-2.1-0.3-2.9-1c-0.7-0.7-1.2-1.7-1.4-2.9l2-0.5c0.1,0.8,0.3,1.3,0.5,1.6c0.4,0.6,1,0.9,1.8,0.9
			c0.6,0,1.2-0.2,1.6-0.6c0.4-0.4,0.6-1,0.6-1.6c0-0.3,0-0.5-0.1-0.7c-0.1-0.2-0.2-0.4-0.3-0.6c-0.2-0.2-0.4-0.4-0.6-0.5
			s-0.5-0.3-0.9-0.5l-1.3-0.5c-1.8-0.8-2.8-1.9-2.8-3.4c0-1,0.4-1.8,1.2-2.5c0.8-0.7,1.7-1,2.9-1C96.6,129.5,97.8,130.2,98.6,131.7z
			"/>
	</g>
</g>
<g id="ikon">
	<g>
		<polygon class="st3" points="99.6,86 99.6,90.8 133.1,60.9 133.1,56.1 		"/>
		<polygon class="st3" points="79.2,54.5 27.1,101.1 62.6,101.1 69.4,95 78.2,95 83.1,88.4 98.6,84.8 132.5,54.5 		"/>
		<polygon class="st3" points="79,96.6 70,96.6 64.2,101.8 64.2,106.7 70.1,101.4 79,101.4 84.1,94.6 98.1,91.3 98.1,86.5 84,89.8 
					"/>
		<rect x="27" y="102.7" class="st3" width="35.6" height="4.8"/>
	</g>
</g>
</svg>
