<?xml version="1.0" encoding="utf-8"?>
<!-- Generator: Adobe Illustrator 25.4.1, SVG Export Plug-In . SVG Version: 6.00 Build 0)  -->
<svg version="1.1" id="Layer_1" xmlns="http://www.w3.org/2000/svg" xmlns:xlink="http://www.w3.org/1999/xlink" x="0px" y="0px"
	 width="160px" height="160px" viewBox="0 0 160 160" style="enable-background:new 0 0 160 160;" xml:space="preserve">
<style type="text/css">
	.st0{fill:#006432;}
	.st1{display:none;}
	.st2{display:inline;}
	.st3{fill:#FFFFFF;}
</style>
<g id="baggrund">
	<rect class="st0" width="160" height="160"/>
</g>
<g id="fraktion" class="st1">
	<g class="st2">
		<path class="st3" d="M27.2,135.2H33v-5.2h2v13.4h-2v-6.3h-5.8v6.3h-2v-13.4h2V135.2z"/>
		<path class="st3" d="M46.7,140.1H41l-1.5,3.3h-2.2l6.6-14.2l6.4,14.2h-2.2L46.7,140.1z M45.9,138.2l-2-4.6l-2.1,4.6H45.9z"/>
		<path class="st3" d="M50.5,129.9l3.7,9.3l3.8-9.3h2.2l-6,14.4l-5.9-14.4H50.5z"/>
		<path class="st3" d="M69.5,131.8h-5.4v3.2h5.2v1.9h-5.2v4.5h5.4v1.9h-7.4v-13.4h7.4V131.8z"/>
		<path class="st3" d="M80.6,140.1h-5.7l-1.5,3.3h-2.2l6.6-14.2l6.4,14.2H82L80.6,140.1z M79.8,138.2l-2-4.6l-2.1,4.6H79.8z"/>
		<path class="st3" d="M92.6,131.8h-4.7v3.2h4.5v1.9h-4.5v6.4h-2v-13.4h6.7L92.6,131.8L92.6,131.8z"/>
		<path class="st3" d="M101.6,131.8H97v3.2h4.5v1.9H97v6.4h-2v-13.4h6.7V131.8z"/>
		<path class="st3" d="M110.7,140.1h-5.7l-1.5,3.3h-2.2l6.6-14.2l6.4,14.2h-2.2L110.7,140.1z M109.9,138.2l-2-4.6l-2.1,4.6H109.9z"
			/>
		<path class="st3" d="M118.3,129.9v11.5h3.9v1.9h-6v-13.4L118.3,129.9L118.3,129.9z"/>
		<path class="st3" d="M124.4,143.3v-13.4h2.8c1.3,0,2.4,0.1,3.2,0.4c0.8,0.3,1.6,0.7,2.3,1.3c1.4,1.3,2.1,2.9,2.1,5
			c0,2.1-0.7,3.7-2.2,5c-0.7,0.6-1.5,1.1-2.3,1.3c-0.7,0.2-1.8,0.4-3.2,0.4H124.4z M126.4,141.4h0.9c0.9,0,1.7-0.1,2.3-0.3
			c0.6-0.2,1.1-0.5,1.6-1c1-0.9,1.5-2.1,1.5-3.6c0-1.5-0.5-2.7-1.5-3.6c-0.9-0.8-2.2-1.2-3.9-1.2h-0.9L126.4,141.4L126.4,141.4z"/>
	</g>
</g>
<g id="ikon">
	<g>
		<g>
			<path class="st3" d="M58.4,82.5c0.6,4.5,2.5,13.2,9.2,20.6c4.6,5.2,11,8.6,11.6,9V98L58.4,82.5z"/>
			<path class="st3" d="M95.4,53.1c-2.1-3.1-5-6.1-7.2-8.8c-2-2.4-4.6-4.9-6-8.3L80.8,32v32.1L95.4,53.1z"/>
			<path class="st3" d="M79.2,82L58.9,66.8c0,0,0,0,0,0c-0.8,3.9-1.1,10.2-0.7,13.4L79.2,96V82z"/>
			<path class="st3" d="M79.2,66.1L63.7,54.5c0,0,0,0,0,0c-2.1,3.4-3.6,7.5-4.4,10.6L79.2,80V66.1z"/>
			<path class="st3" d="M79.2,32L77.7,36c-1.4,3.4-4,5.9-6,8.3c-2.1,2.7-5,5.7-7.2,8.8l14.6,10.9C79.2,64.1,79.2,32,79.2,32z"/>
			<path class="st3" d="M80.8,98v14h0v0c0.6-0.3,7-3.8,11.6-9c6.6-7.4,8.5-16.1,9.2-20.6L80.8,98z"/>
			<path class="st3" d="M80.8,96l21.1-15.8c0.3-3.2,0.1-9.5-0.7-13.4c0,0,0,0,0,0L80.8,82V96z"/>
			<path class="st3" d="M80.8,80l19.9-14.9c-0.8-3.1-2.4-7.2-4.4-10.6c0,0,0,0,0,0L80.8,66.1V80z"/>
			<rect x="79.2" y="112" class="st3" width="1.6" height="16"/>
		</g>
	</g>
</g>
</svg>
