<?xml version="1.0" encoding="utf-8"?>
<!-- Generator: Adobe Illustrator 25.4.1, SVG Export Plug-In . SVG Version: 6.00 Build 0)  -->
<svg version="1.1" id="Layer_1" xmlns="http://www.w3.org/2000/svg" xmlns:xlink="http://www.w3.org/1999/xlink" x="0px" y="0px"
	 width="160px" height="160px" viewBox="0 0 160 160" style="enable-background:new 0 0 160 160;" xml:space="preserve">
<style type="text/css">
	.st0{fill:#F0910A;}
	.st1{display:none;}
	.st2{display:inline;}
	.st3{fill:#FFFFFF;}
</style>
<g id="baggrund">
	<rect class="st0" width="160" height="160"/>
</g>
<g id="fraktion" class="st1">
	<g class="st2">
		<path class="st3" d="M30.2,110.3h2.2v5.6l4.8-5.6h2.7l-5.3,6l6,7.5h-2.8l-5.3-6.9v6.9h-2.2C30.2,123.8,30.2,110.3,30.2,110.3z"/>
		<path class="st3" d="M41.6,123.5l1.7-1.8c-1.2-1.3-1.7-2.8-1.7-4.6c0-1.9,0.7-3.7,2.1-5c1.4-1.3,3.2-2.1,5.1-2.1
			c1.4,0,2.8,0.5,4.2,1.3l1.6-1.7l1.2,1l-1.6,1.7c1.3,1.4,1.9,2.9,1.9,4.7c0,1.9-0.7,3.7-2.1,5c-1.4,1.3-3.2,2.1-5.1,2.1
			c-1.6,0-3-0.5-4.3-1.4l-1.7,1.8L41.6,123.5z M48.8,112c-1.3,0-2.6,0.5-3.5,1.5c-0.9,1-1.4,2.2-1.4,3.6c0,1.1,0.3,2.1,1,3l6.7-7.1
			C50.6,112.3,49.8,112,48.8,112z M48.6,122.1c1.5,0,2.7-0.5,3.6-1.5c0.9-1,1.4-2.2,1.4-3.6c0-1.2-0.4-2.2-1.1-3.1l-6.7,7.2
			C46.7,121.8,47.6,122.1,48.6,122.1z"/>
		<path class="st3" d="M58.3,110.3h2.2v11.5h4.9v2h-7.1V110.3z"/>
		<path class="st3" d="M66.9,110.3h7.5v1.9h-5.3v3.4h5.3v1.9h-5.3v4.3h5.3v2h-7.5V110.3z"/>
		<path class="st3" d="M77.7,120.3c0.3,1.2,1.2,1.8,2.6,1.8c1.3,0,2.1-0.8,2.1-2c0-1.3-1-1.6-2.4-2.3c-2.4-1.2-3.7-2.1-3.7-4.1
			c0-2.2,1.6-3.7,4-3.7c2,0,3.4,0.8,3.9,2.2l-1.7,0.9c-0.5-0.8-1.1-1.2-2-1.2c-1.2,0-1.9,0.7-1.9,1.7c0,1.3,1.1,1.7,2.6,2.4
			c2.4,1.1,3.5,2.1,3.5,4c0,2.5-1.7,4.2-4.5,4.2c-2.3,0-3.8-1.1-4.3-3L77.7,120.3z"/>
		<path class="st3" d="M86.9,110.3h2.2v5.6l4.8-5.6h2.7l-5.3,6l6,7.5h-2.8l-5.3-6.9v6.9h-2.2L86.9,110.3L86.9,110.3z"/>
		<path class="st3" d="M106.9,120.3h-5.3l-1.6,3.5h-2.3l6.5-14l6.5,14h-2.3L106.9,120.3z M106.1,118.5l-1.4-3.1
			c-0.2-0.4-0.3-0.8-0.5-1.5c-0.2,0.7-0.3,1.2-0.5,1.5l-1.4,3.1H106.1z"/>
		<path class="st3" d="M112,110.3h3.4c1.4,0,2.5,0.1,3.3,0.7c0.8,0.6,1.3,1.6,1.3,2.8c0,1.4-0.7,2.4-1.9,2.8
			c1.6,0.2,2.5,1.5,2.5,3.3c0,1.1-0.4,2.1-1.1,2.8c-1,1-2.2,1-4.1,1H112L112,110.3L112,110.3z M115,116c2,0,2.9-0.5,2.9-1.9
			c0-1.7-0.9-2-2.9-2h-0.8v3.9C114.2,116,115,116,115,116z M114.9,122c1.2,0,2.1-0.1,2.6-0.4s0.8-1,0.8-1.7c0-0.8-0.4-1.5-1-1.9
			c-0.5-0.3-1.1-0.3-1.8-0.3c-0.2,0-0.4,0-0.7,0h-0.8v4.3L114.9,122L114.9,122z"/>
		<path class="st3" d="M122.9,110.3h7.5v1.9h-5.3v3.4h5.3v1.9h-5.3v4.3h5.3v2h-7.5V110.3z"/>
		<path class="st3" d="M44.3,141.9c-1.3,1.1-2.6,1.6-4.2,1.6c-2.5,0-4.2-1.6-4.2-3.8c0-1.6,1-2.8,3-4.1l-0.5-0.6
			c-0.6-0.7-0.9-1.4-0.9-2.2c0-1.7,1.4-3,3.5-3s3.3,1.1,3.3,2.8c0,1.4-0.9,2.4-2.6,3.4l2.8,3.3c0.6-0.6,1.2-1.3,1.7-2.1l1.3,1.4
			c-0.5,0.8-1.1,1.5-1.8,2.1l2.3,2.6h-2.5L44.3,141.9z M40.1,137.1l-0.3,0.2c-1.1,0.7-1.7,1.3-1.7,2.3c0,1.2,0.9,2.1,2.2,2.1
			c0.9,0,1.8-0.4,2.8-1.3L40.1,137.1z M41.2,134.4c0.7-0.4,1-0.9,1-1.6c0-0.8-0.5-1.3-1.3-1.3c-0.8,0-1.4,0.5-1.4,1.3
			c0,0.4,0.2,0.7,0.4,1.1l0.7,0.8L41.2,134.4z"/>
		<path class="st3" d="M55.3,129.8h7.5v1.9h-5.3v3.3h5.3v1.9h-5.3v6.3h-2.2V129.8z"/>
		<path class="st3" d="M66.9,143.2h-2.1v-13.5h3c1.4,0,2.5,0.1,3.3,0.8c0.8,0.6,1.3,1.7,1.3,3c0,2.2-1.1,3.4-3.1,3.6l4.6,6.1h-2.5
			l-4.5-6h-0.2V143.2z M67.4,135.5c1.9,0,2.9-0.2,2.9-1.8c0-1.7-0.9-2-2.9-2H67v3.9H67.4z"/>
		<path class="st3" d="M77.6,137.1l-4.5-7.3h2.3l2.8,4.6c0.1,0.1,0.3,0.5,0.6,1.1c0.2-0.4,0.4-0.8,0.6-1.1l2.9-4.5h2.2l-4.6,7.3v6.2
			h-2.2L77.6,137.1L77.6,137.1z"/>
		<path class="st3" d="M86.4,139.7c0.3,1.2,1.2,1.8,2.6,1.8c1.3,0,2.1-0.8,2.1-2c0-1.3-1-1.6-2.4-2.3c-2.4-1.2-3.7-2.1-3.7-4.1
			c0-2.2,1.6-3.7,4-3.7c2,0,3.4,0.8,3.9,2.2l-1.7,0.9c-0.5-0.8-1.1-1.2-2-1.2c-1.2,0-1.9,0.7-1.9,1.7c0,1.3,1.1,1.7,2.6,2.4
			c2.4,1.1,3.5,2.1,3.5,4c0,2.5-1.7,4.2-4.5,4.2c-2.3,0-3.8-1.1-4.3-3L86.4,139.7z"/>
		<path class="st3" d="M95.6,129.8h7.5v1.9h-5.3v3.4h5.3v1.9h-5.3v4.3h5.3v2h-7.5V129.8z"/>
		<path class="st3" d="M107.6,143.2h-2.1v-13.5h3c1.4,0,2.5,0.1,3.3,0.8c0.8,0.6,1.3,1.7,1.3,3c0,2.2-1.1,3.4-3.1,3.6l4.6,6.1h-2.5
			l-4.5-6h-0.2L107.6,143.2L107.6,143.2z M108.2,135.5c1.9,0,2.9-0.2,2.9-1.8c0-1.7-0.9-2-2.9-2h-0.4v3.9H108.2z"/>
		<path class="st3" d="M116.2,129.8h7.5v1.9h-5.3v3.4h5.3v1.9h-5.3v4.3h5.3v2h-7.5V129.8z"/>
	</g>
</g>
<g id="ikon">
	<g>
		<path class="st3" d="M101.6,63.4V37H58.4v26.4H101.6z M62,56.1h12v3.2H62V56.1z"/>
		<path class="st3" d="M58.4,65v60h43.2V65H58.4z M74,72.2H62V69h12V72.2z"/>
	</g>
</g>
</svg>
