<?xml version="1.0" encoding="utf-8"?>
<!-- Generator: Adobe Illustrator 25.4.1, SVG Export Plug-In . SVG Version: 6.00 Build 0)  -->
<svg version="1.1" id="Layer_1" xmlns="http://www.w3.org/2000/svg" xmlns:xlink="http://www.w3.org/1999/xlink" x="0px" y="0px"
	 width="160px" height="160px" viewBox="0 0 160 160" style="enable-background:new 0 0 160 160;" xml:space="preserve">
<style type="text/css">
	.st0{fill:#F0910A;}
	.st1{display:none;}
	.st2{display:inline;}
	.st3{fill:#FFFFFF;}
</style>
<g id="baggrund">
	<rect class="st0" width="160" height="160"/>
</g>
<g id="fraktion" class="st1">
	<g class="st2">
		<path class="st3" d="M32.9,113v11.5h3.9v1.9h-6V113C30.9,113,32.9,113,32.9,113z"/>
		<path class="st3" d="M46.6,114.9h-5.4v3.2h5.2v1.9h-5.2v4.5h5.4v1.9h-7.4V113h7.4V114.9z"/>
		<path class="st3" d="M49.1,126.4V113h2.8c1.3,0,2.4,0.1,3.2,0.4c0.8,0.3,1.6,0.7,2.3,1.3c1.4,1.3,2.1,2.9,2.1,5
			c0,2.1-0.7,3.7-2.2,5c-0.7,0.6-1.5,1.1-2.3,1.3c-0.7,0.2-1.8,0.4-3.2,0.4C51.9,126.4,49.1,126.4,49.1,126.4z M51.2,124.5h0.9
			c0.9,0,1.7-0.1,2.3-0.3c0.6-0.2,1.1-0.5,1.6-1c1-0.9,1.5-2.1,1.5-3.6c0-1.5-0.5-2.7-1.5-3.6c-0.9-0.8-2.2-1.2-3.9-1.2h-0.9
			C51.2,114.9,51.2,124.5,51.2,124.5z"/>
		<path class="st3" d="M62,126.4v-14.3l9.8,10.2V113h2v14.2L64.1,117v9.4C64.1,126.4,62,126.4,62,126.4z"/>
		<path class="st3" d="M78.5,113v13.4h-2V113C76.5,113,78.5,113,78.5,113z"/>
		<path class="st3" d="M81.1,126.4v-14.3l9.8,10.2V113h2v14.2L83.1,117v9.4C83.1,126.4,81.1,126.4,81.1,126.4z"/>
		<path class="st3" d="M103.1,119.4h5.5v0.4c0,1-0.1,1.9-0.4,2.7c-0.2,0.7-0.6,1.4-1.2,2c-1.2,1.4-2.8,2.1-4.7,2.1
			c-1.9,0-3.5-0.7-4.8-2c-1.3-1.4-2-3-2-4.9c0-1.9,0.7-3.6,2-4.9c1.4-1.4,3-2,5-2c1,0,2,0.2,2.9,0.6c0.9,0.4,1.7,1.1,2.6,2.1
			l-1.4,1.4c-1.1-1.5-2.4-2.2-4-2.2c-1.4,0-2.6,0.5-3.6,1.5c-1,1-1.4,2.2-1.4,3.6c0,1.5,0.5,2.7,1.6,3.7c1,0.9,2.1,1.3,3.3,1.3
			c1,0,1.9-0.3,2.7-1c0.8-0.7,1.2-1.5,1.3-2.4h-3.3L103.1,119.4L103.1,119.4z"/>
		<path class="st3" d="M118.5,114.9h-5.4v3.2h5.2v1.9h-5.2v4.5h5.4v1.9h-7.4V113h7.4L118.5,114.9L118.5,114.9z"/>
		<path class="st3" d="M125.4,120.7l4.1,5.7h-2.5l-3.8-5.5h-0.4v5.5h-2V113h2.4c1.8,0,3.1,0.3,3.8,1c0.9,0.7,1.3,1.7,1.3,2.9
			c0,0.9-0.3,1.8-0.8,2.4C127,120,126.3,120.5,125.4,120.7z M122.9,119.1h0.6c1.9,0,2.9-0.7,2.9-2.2c0-1.4-0.9-2.1-2.8-2.1h-0.7
			V119.1z"/>
		<path class="st3" d="M44.8,135.8l2.4,2.9l0.1-0.1c0.3-0.3,0.5-0.6,0.7-0.8c0.2-0.3,0.5-0.5,0.7-0.8l1.3,1.4
			c-0.2,0.2-0.4,0.5-0.6,0.8c-0.3,0.3-0.6,0.7-0.9,1.1l2.5,3.1h-2.5l-1.3-1.6c-1.2,1.3-2.5,1.9-3.8,1.9c-1.2,0-2.2-0.4-3-1.1
			c-0.8-0.8-1.2-1.7-1.2-2.8c0-1.3,0.6-2.4,1.9-3.3l0.9-0.6c0,0,0,0,0.1,0c0,0,0.1-0.1,0.1-0.1c-0.9-0.9-1.3-1.9-1.3-2.8
			c0-0.9,0.3-1.6,0.9-2.2c0.6-0.6,1.4-0.9,2.3-0.9c0.9,0,1.7,0.3,2.3,0.8c0.6,0.5,0.9,1.2,0.9,2.1c0,0.6-0.2,1.1-0.5,1.6
			C46.2,134.6,45.6,135.2,44.8,135.8z M43.2,136.9l-0.1,0.1c-0.8,0.6-1.4,1-1.7,1.4c-0.3,0.3-0.4,0.7-0.4,1.1c0,0.6,0.2,1.1,0.7,1.5
			c0.5,0.4,1,0.7,1.5,0.7c0.8,0,1.7-0.5,2.7-1.5L43.2,136.9z M43.6,134.4l0.2-0.1c0.3-0.2,0.5-0.4,0.7-0.6c0.2-0.2,0.3-0.3,0.4-0.4
			c0.2-0.2,0.3-0.5,0.3-0.8c0-0.4-0.1-0.6-0.4-0.9c-0.2-0.2-0.6-0.3-1-0.3c-0.4,0-0.7,0.1-0.9,0.3c-0.2,0.2-0.4,0.5-0.4,0.8
			c0,0.4,0.2,0.8,0.5,1.2l0.5,0.6C43.5,134.3,43.6,134.3,43.6,134.4z"/>
		<path class="st3" d="M60.3,135.2l5.2-5.3h2.7l-6.1,6.1l6.1,7.3h-2.7l-4.8-6l-0.4,0.4v5.5h-2v-13.4h2V135.2z"/>
		<path class="st3" d="M79,140h-5.7l-1.5,3.3h-2.2l6.6-14.2l6.4,14.2h-2.2L79,140z M78.1,138.1l-2-4.6l-2.1,4.6H78.1z"/>
		<path class="st3" d="M84.5,143.3v-13.4h2c0.9,0,1.6,0.1,2.1,0.2c0.5,0.1,1,0.4,1.4,0.7c0.4,0.3,0.7,0.8,0.9,1.3
			c0.2,0.5,0.3,1,0.3,1.6c0,1-0.4,1.8-1.1,2.4c0.7,0.2,1.3,0.7,1.7,1.3c0.4,0.6,0.6,1.3,0.6,2.1c0,1-0.4,1.9-1.1,2.7
			c-0.4,0.4-0.9,0.8-1.5,0.9c-0.6,0.2-1.4,0.3-2.3,0.3H84.5z M86.5,135.6h0.6c0.8,0,1.3-0.2,1.7-0.5c0.4-0.3,0.5-0.8,0.5-1.5
			c0-0.6-0.2-1.1-0.5-1.4c-0.4-0.3-0.9-0.5-1.6-0.5h-0.7V135.6z M86.5,141.4h1.3c0.9,0,1.6-0.2,2-0.5c0.5-0.4,0.7-0.9,0.7-1.5
			c0-0.6-0.2-1.1-0.7-1.5c-0.4-0.4-1.2-0.6-2.3-0.6h-1L86.5,141.4L86.5,141.4z"/>
		<path class="st3" d="M96.8,129.9v11.5h3.9v1.9h-6v-13.4L96.8,129.9L96.8,129.9z"/>
		<path class="st3" d="M110.6,131.8h-5.4v3.2h5.2v1.9h-5.2v4.5h5.4v1.9h-7.4v-13.4h7.4V131.8z"/>
		<path class="st3" d="M117.5,137.6l4.1,5.7h-2.5l-3.8-5.5H115v5.5h-2v-13.4h2.4c1.8,0,3.1,0.3,3.8,1c0.9,0.7,1.3,1.7,1.3,2.9
			c0,0.9-0.3,1.8-0.8,2.4C119.1,136.9,118.4,137.4,117.5,137.6z M115,136h0.6c1.9,0,2.9-0.7,2.9-2.2c0-1.4-0.9-2.1-2.8-2.1H115V136z
			"/>
	</g>
</g>
<g id="ikon">
	<g>
		<rect x="130.1" y="90.5" class="st3" width="6.4" height="1.6"/>
		
			<rect x="127.4" y="79.5" transform="matrix(0.8897 -0.4566 0.4566 0.8897 -22.2411 68.5039)" class="st3" width="6.4" height="1.6"/>
		
			<rect x="119.2" y="71.2" transform="matrix(0.5453 -0.8382 0.8382 0.5453 -4.7333 135.3723)" class="st3" width="6.4" height="1.6"/>
		<path class="st3" d="M109.7,93.4c-1.1-1.2-1.8-2.6-2.3-4.1l-22.1,16.6c-3,2.1-6.3,3.2-9.5,3.2c0,0,0,0,0,0c-2.9,0-5.7-0.9-8-2.6
			c-2.2-1.6-3.8-3.8-4.7-6.4c-0.9-2.8-0.9-6.1,0.1-9.4c0.1-0.3,1-3.1,2.5-5.8c1.5-2.6,3.1-6.9,3.2-7l0.1-0.2l0-0.2
			c2.8-9.1,1.8-17.5-2.8-23.7C64,51,61.3,48.8,58,47.3c-3.3-1.5-6.9-2.3-10.8-2.3l-30.7,0l0,8l30.8,0c5.4,0,9.9,2,12.6,5.6
			c1.4,1.9,2.3,4.2,2.6,6.9c0.4,2.9,0,6.1-1,9.6c-0.3,0.7-1.6,4-2.7,5.9c-2,3.5-3.1,7.1-3.1,7.3l0,0.1c-1.5,4.9-1.5,9.8,0,14.3
			c1.4,4.2,4,7.8,7.6,10.4c3.7,2.7,8.1,4.1,12.7,4.1c0,0,0,0,0,0c4.9,0,9.8-1.6,14.1-4.6l0.1,0l22.3-16.7
			C111.4,95,110.5,94.3,109.7,93.4z"/>
		<path class="st3" d="M113.2,94.3c-0.9-0.5-1.6-1.2-2.3-2c-1-1.1-1.6-2.4-2-3.8l0,0c2.6-2.6,5.2-6.7,7.1-9.6c1-1.5,1.9-2.9,2.4-3.8
			l2.7,1.7c-0.5,0.8-1.4,2.2-2.4,3.7c-1.4,2.1-3,4.6-4.7,6.9c4.6-2.9,10.2-5.8,11.7-6.5l1.5,2.8c-1.4,0.7-6.7,3.4-11,6.1
			c1.4-0.3,3.1-0.4,5.1-0.4c3.8,0,6.2,0,7.2,0v3.2c-1,0-3.4,0-7.2,0C117.3,92.9,115,93.4,113.2,94.3L113.2,94.3z"/>
	</g>
</g>
</svg>
