<?xml version="1.0" encoding="utf-8"?>
<!-- Generator: Adobe Illustrator 25.4.1, SVG Export Plug-In . SVG Version: 6.00 Build 0)  -->
<svg version="1.1" id="Layer_1" xmlns="http://www.w3.org/2000/svg" xmlns:xlink="http://www.w3.org/1999/xlink" x="0px" y="0px"
	 width="160px" height="160px" viewBox="0 0 160 160" style="enable-background:new 0 0 160 160;" xml:space="preserve">
<style type="text/css">
	.st0{fill:#E10F1E;}
	.st1{display:none;}
	.st2{display:inline;}
	.st3{fill:#FFFFFF;}
</style>
<g id="baggrund">
	<rect class="st0" width="160" height="160"/>
</g>
<g id="fraktion" class="st1">
	<g class="st2">
		<path class="st3" d="M28,129.7v11.6h4v1.9h-6v-13.5H28z"/>
		<path class="st3" d="M35.8,137.4l-4.4-7.7h2.3l3.1,5.4l3.1-5.4h2.3l-4.4,7.7v5.8h-2L35.8,137.4L35.8,137.4z"/>
		<path class="st3" d="M51.2,131.7l-1.6,1c-0.3-0.5-0.6-0.9-0.9-1c-0.3-0.2-0.7-0.3-1.1-0.3c-0.6,0-1,0.2-1.4,0.5
			c-0.4,0.3-0.6,0.7-0.6,1.2c0,0.7,0.5,1.2,1.5,1.6l1.3,0.6c1.1,0.4,1.9,1,2.4,1.6c0.5,0.6,0.8,1.4,0.8,2.3c0,1.2-0.4,2.3-1.2,3.1
			c-0.8,0.8-1.9,1.2-3.1,1.2c-1.2,0-2.1-0.3-2.9-1c-0.8-0.7-1.2-1.7-1.4-2.9L45,139c0.1,0.8,0.3,1.3,0.5,1.6c0.4,0.6,1,0.9,1.8,0.9
			c0.6,0,1.2-0.2,1.6-0.6s0.6-1,0.6-1.6c0-0.3,0-0.5-0.1-0.7c-0.1-0.2-0.2-0.4-0.3-0.6c-0.2-0.2-0.4-0.4-0.6-0.5
			c-0.2-0.2-0.5-0.3-0.9-0.5l-1.3-0.5c-1.8-0.8-2.8-1.9-2.8-3.4c0-1,0.4-1.9,1.2-2.5c0.8-0.7,1.7-1,2.9-1
			C49.2,129.5,50.4,130.2,51.2,131.7z"/>
		<path class="st3" d="M61.7,131.7l-1.6,1c-0.3-0.5-0.6-0.9-0.9-1c-0.3-0.2-0.7-0.3-1.1-0.3c-0.6,0-1,0.2-1.4,0.5
			c-0.4,0.3-0.6,0.7-0.6,1.2c0,0.7,0.5,1.2,1.5,1.6l1.3,0.6c1.1,0.4,1.9,1,2.4,1.6c0.5,0.6,0.8,1.4,0.8,2.3c0,1.2-0.4,2.3-1.2,3.1
			c-0.8,0.8-1.9,1.2-3.1,1.2c-1.2,0-2.1-0.3-2.9-1c-0.8-0.7-1.2-1.7-1.4-2.9l2.1-0.5c0.1,0.8,0.3,1.3,0.5,1.6c0.4,0.6,1,0.9,1.8,0.9
			c0.6,0,1.2-0.2,1.6-0.6s0.6-1,0.6-1.6c0-0.3,0-0.5-0.1-0.7s-0.2-0.4-0.3-0.6c-0.2-0.2-0.4-0.4-0.6-0.5c-0.2-0.2-0.5-0.3-0.9-0.5
			l-1.3-0.5c-1.8-0.8-2.8-1.9-2.8-3.4c0-1,0.4-1.9,1.2-2.5c0.8-0.7,1.7-1,2.9-1C59.6,129.5,60.8,130.2,61.7,131.7z"/>
		<path class="st3" d="M68.7,131.7v11.6h-2v-11.6h-3.1v-1.9h8.2v1.9H68.7z"/>
		<path class="st3" d="M72.9,136.4c0-1.9,0.7-3.5,2.1-4.9c1.4-1.4,3-2,5-2c1.9,0,3.6,0.7,4.9,2.1c1.4,1.4,2.1,3,2.1,4.9
			c0,1.9-0.7,3.6-2.1,4.9c-1.4,1.4-3.1,2-5,2c-1.7,0-3.3-0.6-4.7-1.8C73.6,140.3,72.9,138.6,72.9,136.4z M74.9,136.4
			c0,1.5,0.5,2.7,1.5,3.7c1,1,2.1,1.4,3.4,1.4c1.4,0,2.6-0.5,3.6-1.5c1-1,1.5-2.2,1.5-3.6c0-1.4-0.5-2.6-1.4-3.6
			c-1-1-2.1-1.5-3.5-1.5c-1.4,0-2.6,0.5-3.6,1.5C75.4,133.8,74.9,135,74.9,136.4z"/>
		<path class="st3" d="M96.2,131.7h-4.7v3.2H96v1.9h-4.5v6.4h-2v-13.5h6.7V131.7z"/>
		<path class="st3" d="M103.3,137.5l4.2,5.7H105l-3.8-5.5h-0.4v5.5h-2v-13.5h2.4c1.8,0,3.1,0.3,3.9,1c0.9,0.7,1.3,1.7,1.3,2.9
			c0,1-0.3,1.8-0.8,2.5C104.9,136.9,104.2,137.3,103.3,137.5z M100.8,135.9h0.6c1.9,0,2.9-0.7,2.9-2.2c0-1.4-0.9-2.1-2.8-2.1h-0.7
			C100.8,131.7,100.8,135.9,100.8,135.9z"/>
		<path class="st3" d="M120.2,130.9l1.5-1.5l1.2,1.2l-1.4,1.5c1.1,1.3,1.6,2.8,1.6,4.5c0,1.9-0.7,3.5-2.1,4.9c-1.4,1.4-3,2-5,2
			c-1.6,0-3.1-0.5-4.5-1.5l-1.4,1.4l-1.1-1.1l1.4-1.4c-0.9-1.3-1.4-2.7-1.4-4.2c0-2,0.7-3.7,2.1-5.1c1.4-1.3,3-2,4.9-2
			C117.5,129.5,118.9,130,120.2,130.9z M118.8,132.3c-0.8-0.6-1.8-0.8-2.8-0.8c-1.4,0-2.6,0.5-3.6,1.5c-1,1-1.4,2.2-1.4,3.7
			c0,1,0.3,1.9,0.8,2.8L118.8,132.3z M119.9,133.4l-7,7.1c1,0.7,2,1,3,1c1.4,0,2.5-0.5,3.5-1.5c1-1,1.4-2.2,1.4-3.6
			C120.9,135.4,120.6,134.3,119.9,133.4z"/>
		<path class="st3" d="M130,137.5l4.2,5.7h-2.5l-3.8-5.5h-0.4v5.5h-2v-13.5h2.4c1.8,0,3.1,0.3,3.9,1c0.9,0.7,1.3,1.7,1.3,2.9
			c0,1-0.3,1.8-0.8,2.5C131.7,136.9,130.9,137.3,130,137.5z M127.5,135.9h0.6c1.9,0,2.9-0.7,2.9-2.2c0-1.4-0.9-2.1-2.8-2.1h-0.7
			L127.5,135.9L127.5,135.9z"/>
	</g>
</g>
<g id="ikon">
	<g>
		<rect x="38.5" y="73.6" class="st3" width="83.2" height="12.8"/>
		<polygon class="st3" points="36.9,86.4 36.9,73.6 24,73.6 24,77.6 16,77.6 16,79.2 24,79.2 24,80.8 16,80.8 16,82.4 24,82.4 
			24,86.4 		"/>
		<polygon class="st3" points="144,79.2 144,77.6 136,77.6 136,73.6 123.3,73.6 123.3,86.4 136,86.4 136,82.4 144,82.4 144,80.8 
			136,80.8 136,79.2 		"/>
	</g>
</g>
</svg>
