<?xml version="1.0" encoding="utf-8"?>
<!-- Generator: Adobe Illustrator 25.4.1, SVG Export Plug-In . SVG Version: 6.00 Build 0)  -->
<svg version="1.1" id="Layer_1" xmlns="http://www.w3.org/2000/svg" xmlns:xlink="http://www.w3.org/1999/xlink" x="0px" y="0px"
	 width="160px" height="160px" viewBox="0 0 160 160" style="enable-background:new 0 0 160 160;" xml:space="preserve">
<style type="text/css">
	.st0{fill:#5A6E78;}
	.st1{display:none;}
	.st2{display:inline;}
	.st3{fill:#FFFFFF;}
</style>
<g id="baggrund">
	<rect class="st0" width="160" height="160"/>
</g>
<g id="fraktion" class="st1">
	<g class="st2">
		<path class="st3" d="M52.4,143.3l2.8-14.4l4.6,10.4l4.8-10.4l2.5,14.4h-2.1l-1.3-8.1l-4,8.7l-3.9-8.7l-1.4,8.1L52.4,143.3
			L52.4,143.3z"/>
		<path class="st3" d="M76.9,131.8h-5.4v3.2h5.2v1.9h-5.2v4.5h5.4v1.9h-7.4v-13.4h7.4V131.8z"/>
		<path class="st3" d="M84.2,131.8v11.5h-2v-11.5h-3.1v-1.9h8.2v1.9H84.2z"/>
		<path class="st3" d="M96,140.1h-5.7l-1.5,3.3h-2.2l6.6-14.2l6.4,14.2h-2.2L96,140.1z M95.1,138.2l-2-4.6l-2.1,4.6H95.1z"/>
		<path class="st3" d="M103.6,129.9v11.5h3.9v1.9h-6v-13.4L103.6,129.9L103.6,129.9z"/>
	</g>
</g>
<g id="ikon">
	<g>
		<path class="st3" d="M69.9,96.7c9.7,0,18.8-1.1,25.7-3.2c0.4-0.1,0.8-0.2,1.1-0.4c-0.3-1.1-2.4-2.5-7.5-3.7c-5.2-1.3-12-2-19.4-2
			c-7.3,0-14.2,0.7-19.4,2c-5,1.2-7.1,2.7-7.5,3.7c0.4,0.1,0.8,0.2,1.1,0.4C51.1,95.5,60.2,96.7,69.9,96.7z"/>
		<path class="st3" d="M95.7,95.1c-6.9,2.1-16.2,3.2-26,3.2c-9.8,0-19-1.2-26-3.2c-3.4-1-6.2-2.2-8.1-3.6c-0.5-0.3-0.9-0.7-1.2-1
			c0,0,0,0.1,0.1,0.4c0.2,0.8,0.9,3,1.7,5.5c2.1,6.3,8.8,8.4,10.6,9c2.2,0.8,4.7,1.4,7.3,1.9c3,0.6,6.4,1,10,1.1
			c1.7,0.1,3.5,0.1,5.3,0.1c0.1,0,0.1,0,0.2,0c0.1,0,0.1,0,0.2,0c1.8,0,3.6-0.1,5.3-0.1c3.6-0.2,6.9-0.6,10-1.1
			c2.7-0.5,5.1-1.1,7.3-1.9c1.8-0.6,8.5-2.7,10.6-9c0.8-2.5,1.5-4.6,1.7-5.5c0.1-0.2,0.1-0.4,0.1-0.4c-0.4,0.3-0.8,0.7-1.2,1
			C101.9,92.8,99.2,94,95.7,95.1z"/>
		<path class="st3" d="M126.7,50.6c-0.2-0.2-0.4-0.3-0.7-0.5c-2-1-4.7-1.1-7.1,1l-4,3.8L94.1,74.6c-0.5,0.5-0.9,0.9-1.3,1.7
			l-1.3,2.5c-6-1.5-13.5-2.4-21.6-2.4c-18.9,0-34.4,4.8-35.7,10.9c0.3,0.9,1.1,1.8,2.4,2.8c1.3,0.9,3,1.7,5,2.5
			c0.3-0.9,1.1-1.7,2.4-2.5c1.5-0.8,3.5-1.6,6.1-2.2c5.3-1.3,12.3-2,19.7-2c7.4,0,14.4,0.7,19.7,2c2.6,0.6,4.7,1.4,6.1,2.2
			c1.3,0.8,2.1,1.6,2.4,2.5c2.1-0.8,3.8-1.6,5-2.5c1.3-0.9,2.1-1.8,2.4-2.8c-0.4-2-2.5-3.9-5.7-5.6l1.5-2.6c0.1-0.1,0.6-0.8,1-1.2
			l23.9-22.5c0.4-0.4,0.7-0.8,0.9-1.2C127.9,53,127.8,51.5,126.7,50.6z M124.2,54.1c-0.5,0.5-2,2-2.5,2.5c-0.1,0.1-0.3,0.3-0.5,0.4
			c-0.8,0.5-1.9,0.6-2.6,0.2c-0.5-0.3-0.7-0.8-0.7-1.3c0-0.4,0.2-0.7,0.6-1c0.6-0.6,2-2,2.5-2.5c0.9-0.9,2.2-1,3.1-0.6
			C125,52.3,125,53.3,124.2,54.1z"/>
	</g>
</g>
</svg>
