<?xml version="1.0" encoding="utf-8"?>
<!-- Generator: Adobe Illustrator 25.4.1, SVG Export Plug-In . SVG Version: 6.00 Build 0)  -->
<svg version="1.1" id="Layer_1" xmlns="http://www.w3.org/2000/svg" xmlns:xlink="http://www.w3.org/1999/xlink" x="0px" y="0px"
	 width="160px" height="160px" viewBox="0 0 160 160" style="enable-background:new 0 0 160 160;" xml:space="preserve">
<style type="text/css">
	.st0{fill:#004B82;}
	.st1{display:none;}
	.st2{display:inline;}
	.st3{fill:#FFFFFF;}
</style>
<g id="baggrund">
	<rect class="st0" width="160" height="160"/>
</g>
<g id="fraktion" class="st1">
	<g class="st2">
		<path class="st3" d="M49.8,115.3c-0.1,0.6-0.3,1.2-0.6,1.9l-3.5,7.2l-3.5-7.3c-0.3-0.5-0.5-1.1-0.7-1.7c0,0.6-0.1,1.3-0.2,1.9
			l-1.4,6.6h-2l3.2-14l4,8.4c0.1,0.2,0.4,0.8,0.7,1.8c0.3-0.8,0.6-1.4,0.8-1.8l3.9-8.4l3.3,14h-2l-1.5-6.6
			C50,116.9,49.9,116.3,49.8,115.3z"/>
		<path class="st3" d="M57.2,110.3v8.2c0,2.4,1.1,3.7,3.3,3.7c2.2,0,3.3-1.2,3.3-3.7v-8.2H66v8.4c0,3.6-1.8,5.4-5.5,5.4
			c-3.7,0-5.5-1.8-5.5-5.4v-8.4H57.2z"/>
		<path class="st3" d="M71,123.8H69v-13.5h3c1.4,0,2.5,0.1,3.3,0.8c0.8,0.6,1.3,1.7,1.3,3c0,2.2-1.1,3.4-3.1,3.6l4.6,6.1h-2.5
			l-4.5-6H71V123.8z M71.5,116.1c1.9,0,2.9-0.2,2.9-1.8c0-1.7-0.9-2-2.9-2h-0.4v3.9H71.5z"/>
		<path class="st3" d="M80.2,120.3c0.3,1.2,1.2,1.8,2.6,1.8c1.3,0,2.1-0.8,2.1-2c0-1.3-1-1.6-2.4-2.3c-2.4-1.2-3.7-2.1-3.7-4.1
			c0-2.2,1.6-3.7,4-3.7c2,0,3.4,0.8,3.9,2.2l-1.7,0.9c-0.5-0.8-1.1-1.2-2-1.2c-1.2,0-1.9,0.7-1.9,1.7c0,1.3,1.1,1.7,2.6,2.4
			c2.4,1.1,3.5,2.1,3.5,4c0,2.5-1.7,4.2-4.5,4.2c-2.3,0-3.8-1.1-4.3-3L80.2,120.3z"/>
		<path class="st3" d="M93.9,123.8h-2.2v-11.6h-3.6v-1.9h9.3v1.9h-3.6V123.8z"/>
		<path class="st3" d="M98.9,110.3h7.5v1.9h-5.3v3.4h5.3v1.9h-5.3v4.3h5.3v2h-7.5V110.3z"/>
		<path class="st3" d="M109,109.8l8.5,8.2c0.5,0.5,1,1.1,1.5,1.6v-9.3h2v14l-8.7-8.4c-0.5-0.5-0.9-1-1.3-1.5v9.4h-2L109,109.8
			L109,109.8z"/>
		<path class="st3" d="M58.2,141.9c-1.3,1.1-2.6,1.6-4.2,1.6c-2.5,0-4.2-1.6-4.2-3.8c0-1.6,1-2.8,3-4.1l-0.5-0.6
			c-0.6-0.7-0.9-1.4-0.9-2.2c0-1.7,1.4-3,3.5-3s3.3,1.1,3.3,2.8c0,1.4-0.9,2.4-2.6,3.4l2.8,3.3c0.6-0.6,1.2-1.3,1.7-2.1l1.3,1.4
			c-0.5,0.8-1.1,1.5-1.8,2.1l2.3,2.6h-2.5L58.2,141.9z M54.1,137.1l-0.3,0.2c-1.1,0.7-1.7,1.3-1.7,2.3c0,1.2,0.9,2.1,2.2,2.1
			c0.9,0,1.8-0.4,2.8-1.3L54.1,137.1z M55.1,134.4c0.7-0.4,1-0.9,1-1.6c0-0.8-0.5-1.3-1.3-1.3c-0.8,0-1.4,0.5-1.4,1.3
			c0,0.4,0.2,0.7,0.4,1.1l0.7,0.8L55.1,134.4z"/>
		<path class="st3" d="M73.5,143.2h-2.2v-11.6h-3.6v-1.9h9.3v1.9h-3.6C73.5,131.6,73.5,143.2,73.5,143.2z"/>
		<path class="st3" d="M78.6,129.8h7.5v1.9h-5.3v3.4h5.3v1.9h-5.3v4.3h5.3v2h-7.5V129.8z"/>
		<path class="st3" d="M101.2,136.3c0,0.5,0,1,0,1.3c0,3.8-2.3,6-6.2,6c-2.2,0-3.9-0.6-5.2-2c-1.3-1.3-2-3.1-2-5.1
			c0-2,0.7-3.8,2.1-5.1c1.3-1.3,3.1-2,5.1-2c2.1,0,3.8,0.8,5.1,2.4l-1.6,1.2c-0.9-1.1-2-1.6-3.4-1.6c-2.9,0-4.9,2-4.9,5
			c0,3.1,2.1,5.1,5,5.1c2.5,0,4-1.3,4-3.3c0-0.1,0-0.1,0-0.2h-3.2v-1.8L101.2,136.3L101.2,136.3z"/>
		<path class="st3" d="M103.4,129.8h2.2v11.5h4.9v2h-7.1C103.4,143.2,103.4,129.8,103.4,129.8z"/>
	</g>
</g>
<g id="ikon">
	<g>
		<g>
			<rect x="37.6" y="51.6" class="st3" width="32" height="12.8"/>
		</g>
		<rect x="37.6" y="99.6" class="st3" width="14.4" height="12.8"/>
		<rect x="90.4" y="99.6" class="st3" width="32" height="12.8"/>
		<rect x="55.2" y="99.6" class="st3" width="32" height="12.8"/>
		<rect x="72.7" y="83.6" class="st3" width="32" height="12.8"/>
		<rect x="37.6" y="83.6" class="st3" width="32" height="12.8"/>
		<rect x="55.2" y="67.6" class="st3" width="32" height="12.8"/>
		<rect x="37.6" y="67.6" class="st3" width="14.4" height="12.8"/>
	</g>
</g>
</svg>
