<?xml version="1.0" encoding="utf-8"?>
<!-- Generator: Adobe Illustrator 25.4.1, SVG Export Plug-In . SVG Version: 6.00 Build 0)  -->
<svg version="1.1" id="Layer_1" xmlns="http://www.w3.org/2000/svg" xmlns:xlink="http://www.w3.org/1999/xlink" x="0px" y="0px"
	 width="160px" height="160px" viewBox="0 0 160 160" style="enable-background:new 0 0 160 160;" xml:space="preserve">
<style type="text/css">
	.st0{fill:#0082BE;}
	.st1{display:none;}
	.st2{display:inline;}
	.st3{fill:#FFFFFF;}
</style>
<g id="baggrund">
	<rect class="st0" width="160" height="160"/>
</g>
<g id="fraktion" class="st1">
	<g class="st2">
		<g>
			<path class="st3" d="M46.4,121.3v5.4h-2v-13.4h2.3c1.1,0,2,0.1,2.5,0.2c0.6,0.2,1.1,0.5,1.5,0.9c0.8,0.8,1.2,1.7,1.2,2.8
				c0,1.2-0.4,2.2-1.2,2.9c-0.8,0.7-1.9,1.1-3.3,1.1H46.4z M46.4,119.4h0.8c1.9,0,2.8-0.7,2.8-2.1c0-1.4-1-2.1-2.9-2.1h-0.7V119.4z"
				/>
			<path class="st3" d="M60.3,123.5h-5.7l-1.5,3.3h-2.2l6.6-14.2l6.4,14.2h-2.2L60.3,123.5z M59.5,121.6l-2-4.6l-2.1,4.6H59.5z"/>
			<path class="st3" d="M67.9,121.3v5.4h-2v-13.4h2.3c1.1,0,2,0.1,2.5,0.2c0.6,0.2,1.1,0.5,1.5,0.9c0.8,0.8,1.2,1.7,1.2,2.8
				c0,1.2-0.4,2.2-1.2,2.9c-0.8,0.7-1.9,1.1-3.3,1.1H67.9z M67.9,119.4h0.8c1.9,0,2.8-0.7,2.8-2.1c0-1.4-1-2.1-2.9-2.1h-0.7V119.4z"
				/>
			<path class="st3" d="M77.7,113.3v13.4h-2v-13.4H77.7z"/>
			<path class="st3" d="M85.2,121l4.1,5.7h-2.5l-3.8-5.5h-0.4v5.5h-2v-13.4H83c1.8,0,3.1,0.3,3.8,1c0.9,0.7,1.3,1.7,1.3,2.9
				c0,0.9-0.3,1.8-0.8,2.4C86.8,120.4,86.1,120.8,85.2,121z M82.6,119.5h0.6c1.9,0,2.9-0.7,2.9-2.2c0-1.4-0.9-2.1-2.8-2.1h-0.7
				V119.5z"/>
			<path class="st3" d="M100.5,115.2v11.5h-2v-11.5h-3.1v-1.9h8.2v1.9H100.5z"/>
			<path class="st3" d="M107.8,113.3v13.4h-2v-13.4H107.8z"/>
			<path class="st3" d="M112.5,113.3v11.5h3.9v1.9h-6v-13.4H112.5z"/>
		</g>
		<g>
			<path class="st3" d="M21.5,143.5l2.8-14.4l4.6,10.4l4.8-10.4l2.5,14.4h-2.1l-1.3-8.1l-4,8.7l-3.9-8.7l-1.4,8.1H21.5z"/>
			<path class="st3" d="M47.3,140.2h-5.7l-1.5,3.3h-2.2l6.6-14.2l6.4,14.2h-2.2L47.3,140.2z M46.5,138.3l-2-4.6l-2.1,4.6H46.5z"/>
			<path class="st3" d="M55,135.4l5.2-5.3h2.7l-6.1,6.1l6.1,7.3h-2.7l-4.8-6L55,138v5.5h-2v-13.4h2L55,135.4L55,135.4z"/>
			<path class="st3" d="M66.9,130.1v8.1c0,1.2,0.2,2,0.6,2.5c0.6,0.8,1.4,1.2,2.4,1.2c1,0,1.8-0.4,2.4-1.2c0.4-0.5,0.6-1.4,0.6-2.5
				v-8.1h2v8.6c0,1.4-0.4,2.6-1.3,3.5c-1,1-2.2,1.5-3.6,1.5s-2.7-0.5-3.6-1.5c-0.9-0.9-1.3-2.1-1.3-3.5v-8.6H66.9z"/>
			<path class="st3" d="M79.4,130.1v11.5h3.9v1.9h-6v-13.4H79.4z"/>
			<path class="st3" d="M93.2,132h-5.4v3.2H93v1.9h-5.2v4.5h5.4v1.9h-7.4v-13.4h7.4V132z"/>
			<path class="st3" d="M100.3,137.8l4.1,5.7H102l-3.8-5.5h-0.4v5.5h-2v-13.4h2.4c1.8,0,3.1,0.3,3.8,1c0.9,0.7,1.3,1.7,1.3,2.9
				c0,0.9-0.3,1.8-0.8,2.4C101.9,137.2,101.2,137.6,100.3,137.8z M97.8,136.3h0.6c1.9,0,2.9-0.7,2.9-2.2c0-1.4-0.9-2.1-2.8-2.1h-0.7
				C97.8,132,97.8,136.3,97.8,136.3z"/>
			<path class="st3" d="M108.5,130.1v13.4h-2v-13.4H108.5z"/>
			<path class="st3" d="M111.2,143.5v-14.3l9.8,10.2v-9.3h2v14.2l-9.8-10.2v9.4L111.2,143.5L111.2,143.5z"/>
			<path class="st3" d="M133.2,136.5h5.5v0.4c0,1-0.1,1.9-0.4,2.7c-0.2,0.7-0.6,1.4-1.2,2c-1.2,1.4-2.8,2.1-4.7,2.1
				c-1.9,0-3.5-0.7-4.8-2c-1.3-1.4-2-3-2-4.9c0-1.9,0.7-3.6,2-4.9c1.4-1.4,3-2,5-2c1,0,2,0.2,2.9,0.6c0.9,0.4,1.7,1.1,2.6,2.1
				l-1.4,1.4c-1.1-1.5-2.4-2.2-4-2.2c-1.4,0-2.6,0.5-3.6,1.5c-1,1-1.4,2.2-1.4,3.6c0,1.5,0.5,2.7,1.6,3.7c1,0.9,2.1,1.3,3.3,1.3
				c1,0,1.9-0.3,2.7-1c0.8-0.7,1.2-1.5,1.3-2.4h-3.3L133.2,136.5L133.2,136.5z"/>
		</g>
	</g>
</g>
<g id="ikon">
	<g>
		<polygon class="st3" points="79.3,41.4 53.5,67.2 79.3,67.2 		"/>
		<polygon class="st3" points="95.3,84.8 95.3,108 100.9,108 100.9,84.8 102.5,84.8 102.5,112 108.1,112 108.1,40 80.9,40 
			80.9,68.8 52.1,68.8 52.1,112 57.7,112 57.7,84.8 59.3,84.8 59.3,120 64.9,120 64.9,84.8 66.5,84.8 66.5,108 72.1,108 72.1,84.8 
			73.7,84.8 73.7,116 79.3,116 79.3,84.8 80.9,84.8 80.9,112 86.5,112 86.5,84.8 88.1,84.8 88.1,120 93.7,120 93.7,84.8 		"/>
	</g>
</g>
</svg>
