<?xml version="1.0" encoding="utf-8"?>
<!-- Generator: Adobe Illustrator 25.4.1, SVG Export Plug-In . SVG Version: 6.00 Build 0)  -->
<svg version="1.1" id="Layer_1" xmlns="http://www.w3.org/2000/svg" xmlns:xlink="http://www.w3.org/1999/xlink" x="0px" y="0px"
	 width="160px" height="160px" viewBox="0 0 160 160" style="enable-background:new 0 0 160 160;" xml:space="preserve">
<style type="text/css">
	.st0{fill:#961E82;}
	.st1{fill:#FFFFFF;}
</style>
<g id="baggrund">
	<rect class="st0" width="160" height="160"/>
</g>
<g>
	<g id="ikon_2">
		<g>
			<g>
				<path class="st1" d="M69.3,116.5l16.1,9.3v-4.8h24.9c5.9,0,11.1-3,14.1-8.1c2.9-5.1,2.9-11.1,0-16.2l-6.6-11.4l-7.9,4.6
					l6.6,11.4c1.9,3.2,0.6,6,0,7.1c-0.6,1.1-2.5,3.6-6.1,3.6H85.4v-4.8L69.3,116.5z"/>
			</g>
			<g>
				<path class="st1" d="M94.5,72.8l16.1,9.3V63.5l-4.1,2.4L94.1,44.3c-2.9-5.1-8.2-8.1-14.1-8.1c-5.9,0-11.1,3-14.1,8.1l-6.6,11.4
					l7.9,4.6l6.6-11.4c1.8-3.2,4.9-3.5,6.1-3.5s4.3,0.3,6.1,3.5l12.5,21.6L94.5,72.8z"/>
			</g>
			<g>
				<path class="st1" d="M44,72.8l4.1,2.4L35.6,96.8c-2.9,5.1-2.9,11.1,0,16.2c2.9,5.1,8.2,8.1,14.1,8.1h13.1V112H49.7
					c-3.7,0-5.5-2.5-6.1-3.6c-0.6-1.1-1.8-3.9,0-7.1L56,79.8l4.1,2.3V63.5L44,72.8z"/>
			</g>
		</g>
	</g>
	<g id="_x30_1_PET">
		<g>
			<path class="st1" d="M77.3,79.4h-5.8l3.2-6.1H84v26.6h-6.7L77.3,79.4L77.3,79.4z"/>
		</g>
	</g>
</g>
</svg>
