<?xml version="1.0" encoding="utf-8"?>
<!-- Generator: Adobe Illustrator 25.4.1, SVG Export Plug-In . SVG Version: 6.00 Build 0)  -->
<svg version="1.1" id="Layer_1" xmlns="http://www.w3.org/2000/svg" xmlns:xlink="http://www.w3.org/1999/xlink" x="0px" y="0px"
	 width="160px" height="160px" viewBox="0 0 160 160" style="enable-background:new 0 0 160 160;" xml:space="preserve">
<style type="text/css">
	.st0{fill:#961E82;}
	.st1{display:none;}
	.st2{display:inline;}
	.st3{fill:#FFFFFF;}
</style>
<g id="baggrund">
	<rect class="st0" width="160" height="160"/>
</g>
<g id="fraktion" class="st1">
	<g class="st2">
		<g>
			<path class="st3" d="M23.4,135.1h5.8v-5.2h2v13.4h-2V137h-5.8v6.3h-2v-13.4h2V135.1z"/>
			<path class="st3" d="M42.7,140h-5.7l-1.5,3.3h-2.2l6.6-14.2l6.4,14.2h-2.2L42.7,140z M41.9,138.1l-2-4.6l-2.1,4.6H41.9z"/>
			<path class="st3" d="M46.4,129.8l3.7,9.3l3.8-9.3h2.2l-6,14.4l-5.9-14.4H46.4z"/>
			<path class="st3" d="M65.6,131.7h-5.4v3.2h5.2v1.9h-5.2v4.5h5.4v1.9h-7.4v-13.4h7.4V131.7z"/>
			<path class="st3" d="M68.1,143.2l2.8-14.4l4.6,10.4l4.8-10.4l2.5,14.4h-2.1l-1.3-8.1l-4,8.7l-3.9-8.7l-1.4,8.1L68.1,143.2
				L68.1,143.2z"/>
			<path class="st3" d="M96.3,131l1.4-1.5l1.2,1.2l-1.4,1.5c1.1,1.3,1.6,2.8,1.6,4.4c0,1.9-0.7,3.5-2.1,4.9c-1.4,1.4-3,2-4.9,2
				c-1.6,0-3.1-0.5-4.4-1.5l-1.4,1.4l-1.1-1.1l1.4-1.4c-0.9-1.3-1.4-2.7-1.4-4.2c0-2,0.7-3.7,2.1-5c1.4-1.3,3-2,4.9-2
				C93.6,129.6,95,130,96.3,131z M94.8,132.3c-0.8-0.6-1.8-0.8-2.8-0.8c-1.4,0-2.6,0.5-3.6,1.5c-0.9,1-1.4,2.2-1.4,3.7
				c0,1,0.3,1.9,0.8,2.8L94.8,132.3z M96,133.4l-7,7.1c1,0.7,2,1,3,1c1.4,0,2.5-0.5,3.5-1.5c1-1,1.4-2.2,1.4-3.6
				C97,135.4,96.7,134.4,96,133.4z"/>
			<path class="st3" d="M101.5,143.2v-13.4h2c0.9,0,1.6,0.1,2.1,0.2c0.5,0.1,1,0.4,1.4,0.7c0.4,0.3,0.7,0.8,0.9,1.3
				c0.2,0.5,0.3,1,0.3,1.6c0,1-0.4,1.8-1.1,2.4c0.7,0.2,1.3,0.7,1.7,1.3c0.4,0.6,0.6,1.3,0.6,2.1c0,1-0.4,1.9-1.1,2.7
				c-0.4,0.4-0.9,0.8-1.5,0.9c-0.6,0.2-1.4,0.3-2.3,0.3H101.5z M103.5,135.6h0.6c0.8,0,1.3-0.2,1.7-0.5c0.4-0.3,0.5-0.8,0.5-1.5
				c0-0.6-0.2-1.1-0.5-1.4c-0.4-0.3-0.9-0.5-1.6-0.5h-0.7V135.6z M103.5,141.3h1.3c0.9,0,1.6-0.2,2-0.5c0.5-0.4,0.7-0.9,0.7-1.5
				c0-0.6-0.2-1.1-0.7-1.5c-0.4-0.4-1.2-0.6-2.3-0.6h-1L103.5,141.3L103.5,141.3z"/>
			<path class="st3" d="M113.9,129.8v11.5h3.9v1.9h-6v-13.4L113.9,129.8L113.9,129.8z"/>
			<path class="st3" d="M127.6,131.7h-5.4v3.2h5.2v1.9h-5.2v4.5h5.4v1.9h-7.4v-13.4h7.4V131.7z"/>
			<path class="st3" d="M134.5,137.5l4.1,5.7h-2.5l-3.8-5.5H132v5.5h-2v-13.4h2.4c1.8,0,3.1,0.3,3.8,1c0.9,0.7,1.3,1.7,1.3,2.9
				c0,0.9-0.3,1.8-0.8,2.4C136.1,136.9,135.4,137.3,134.5,137.5z M132,136h0.6c1.9,0,2.9-0.7,2.9-2.2c0-1.4-0.9-2.1-2.8-2.1H132V136
				z"/>
		</g>
		<path class="st3" d="M57.6,121v5.4h-2V113h2.3c1.1,0,2,0.1,2.5,0.2c0.6,0.2,1.1,0.5,1.5,0.9c0.8,0.8,1.2,1.7,1.2,2.8
			c0,1.2-0.4,2.2-1.2,2.9c-0.8,0.7-1.9,1.1-3.3,1.1L57.6,121L57.6,121z M57.6,119.1h0.8c1.9,0,2.8-0.7,2.8-2.1c0-1.4-1-2.1-2.9-2.1
			h-0.7L57.6,119.1L57.6,119.1z"/>
		<path class="st3" d="M67.2,113v11.5h3.9v1.9h-6V113C65.2,113,67.2,113,67.2,113z"/>
		<path class="st3" d="M82.3,123.2h-5.7l-1.5,3.3h-2.2l6.6-14.2l6.4,14.2h-2.2L82.3,123.2z M81.5,121.3l-2-4.6l-2.1,4.6H81.5z"/>
		<path class="st3" d="M95,115l-1.6,1c-0.3-0.5-0.6-0.9-0.9-1c-0.3-0.2-0.7-0.3-1.1-0.3c-0.6,0-1,0.2-1.4,0.5
			c-0.4,0.3-0.6,0.7-0.6,1.2c0,0.7,0.5,1.2,1.5,1.6l1.3,0.5c1.1,0.4,1.9,1,2.4,1.6c0.5,0.6,0.8,1.4,0.8,2.3c0,1.2-0.4,2.3-1.2,3.1
			c-0.8,0.8-1.9,1.2-3.1,1.2c-1.2,0-2.1-0.3-2.9-1c-0.7-0.7-1.2-1.7-1.4-2.9l2-0.5c0.1,0.8,0.3,1.3,0.5,1.6c0.4,0.6,1,0.9,1.8,0.9
			c0.6,0,1.2-0.2,1.6-0.6c0.4-0.4,0.6-1,0.6-1.6c0-0.3,0-0.5-0.1-0.7c-0.1-0.2-0.2-0.4-0.3-0.6c-0.2-0.2-0.4-0.4-0.6-0.5
			c-0.2-0.2-0.5-0.3-0.9-0.5l-1.3-0.5c-1.8-0.8-2.8-1.9-2.8-3.4c0-1,0.4-1.8,1.2-2.5c0.8-0.7,1.7-1,2.9-1
			C92.9,112.8,94.1,113.5,95,115z"/>
		<path class="st3" d="M101.8,114.9v11.5h-2v-11.5h-3.1V113h8.2v1.9H101.8z"/>
		<path class="st3" d="M104.9,119.1h3.9v1.9h-3.9V119.1z"/>
	</g>
</g>
<g id="ikon">
	<path class="st3" d="M104.9,67.6h-3.5c-1.3,0-1.8-0.8-1.8-1.6v-6.3h0c0-2.6-0.5-5.2-1.5-7.6c-1-2.3-2.4-4.4-4.2-6.2
		s-3.9-3.2-6.2-4.2c-2.4-1-5-1.5-7.6-1.5s-5.2,0.5-7.6,1.5c-2.3,1-4.4,2.4-6.2,4.2s-3.2,3.9-4.2,6.2c-1,2.4-1.5,5-1.5,7.6v6.3
		c0,0.8-0.5,1.6-1.8,1.6h-3.5c-1.1,0-2,1-1.9,2.1l3.1,48.8c0.1,0.8,0.8,1.5,1.6,1.5h0.9c0.9,0,1.6-0.7,1.6-1.6V97.6
		c0.2-6.8,1.2-9.5,6.3-9.6h26.4c5.4,0,6.4,2.7,6.5,9.6v20.7c0,0.9,0.7,1.6,1.6,1.6h0.9c0.8,0,1.5-0.7,1.6-1.5l3.1-48.8
		C106.9,68.5,106,67.6,104.9,67.6z M95.6,59.6V66h0c0,2.5,1.7,4.6,4,5.3c0.5,0.2,1.1,0.2,1.6,0.2c-0.1,4.3-0.9,6.8-2.1,8.3
		c-1,1.2-2.1,1.7-4.4,1.8h-6.6c0-5.4,0.4-10.4,0.9-14.7c0.5-3.7,1.2-7,2.1-9.6c1-2.9,1.9-4.6,2.5-5.3C94.9,54.3,95.6,56.9,95.6,59.6
		z M91,48.6c0.2,0.2,0.5,0.5,0.7,0.7c-0.9,1-2.3,3.1-3.4,6.4c-1,2.9-1.8,6.3-2.4,10.3c-0.7,4.6-1,9.8-1,15.6h-3.3V44.1
		C85.2,44.5,88.5,46,91,48.6z M69,48.6c2.6-2.6,5.9-4.1,9.4-4.5v37.5h-3.3c0-5.8-0.4-11.1-1-15.6c-0.6-4-1.4-7.4-2.4-10.3
		c-1.2-3.3-2.5-5.4-3.4-6.4C68.5,49.1,68.7,48.8,69,48.6z M60.4,71.4c2.3-0.7,4-2.8,4-5.3h0v-6.4c0-2.7,0.7-5.3,2-7.6
		c0.6,0.8,1.5,2.4,2.5,5.3c0.9,2.7,1.6,5.9,2.1,9.6c0.6,4.3,0.9,9.2,0.9,14.7h-6.6c-2.4-0.1-3.5-0.6-4.5-1.8c-1.2-1.5-2-4-2-8.3
		C59.3,71.6,59.9,71.5,60.4,71.4z"/>
</g>
</svg>
