<?xml version="1.0" encoding="utf-8"?>
<!-- Generator: Adobe Illustrator 25.4.1, SVG Export Plug-In . SVG Version: 6.00 Build 0)  -->
<svg version="1.1" id="Layer_1" xmlns="http://www.w3.org/2000/svg" xmlns:xlink="http://www.w3.org/1999/xlink" x="0px" y="0px"
	 width="160px" height="160px" viewBox="0 0 160 160" style="enable-background:new 0 0 160 160;" xml:space="preserve">
<style type="text/css">
	.st0{fill:#004B82;}
	.st1{display:none;}
	.st2{display:inline;}
	.st3{fill:#FFFFFF;}
</style>
<g id="baggrund">
	<rect class="st0" width="160" height="160"/>
</g>
<g id="fraktion" class="st1">
	<g class="st2">
		<path class="st3" d="M51.8,131.8v11.6h-2v-11.6h-3.1v-1.9h8.2v1.9H51.8z"/>
		<path class="st3" d="M63.8,140.1H58l-1.5,3.3h-2.2L61,129l6.4,14.3h-2.2L63.8,140.1z M62.9,138.2l-2-4.6l-2.1,4.6H62.9z"/>
		<path class="st3" d="M75.6,136.3h5.6v0.4c0,1-0.1,1.9-0.4,2.7c-0.2,0.7-0.6,1.4-1.2,2c-1.3,1.4-2.8,2.1-4.8,2.1
			c-1.9,0-3.5-0.7-4.8-2c-1.3-1.4-2-3-2-4.9c0-2,0.7-3.6,2.1-5c1.4-1.4,3-2.1,5-2.1c1.1,0,2,0.2,2.9,0.6c0.9,0.4,1.7,1.1,2.6,2.1
			l-1.4,1.4c-1.1-1.5-2.5-2.2-4-2.2c-1.4,0-2.6,0.5-3.6,1.5c-1,1-1.4,2.2-1.4,3.6c0,1.5,0.5,2.7,1.6,3.7c1,0.9,2.1,1.4,3.3,1.4
			c1,0,1.9-0.3,2.7-1c0.8-0.7,1.2-1.5,1.3-2.4h-3.4C75.6,138.2,75.6,136.3,75.6,136.3z"/>
		<path class="st3" d="M85.8,137.9v5.5h-2v-13.5h2.3c1.1,0,2,0.1,2.6,0.2c0.6,0.2,1.1,0.5,1.5,0.9c0.8,0.8,1.2,1.7,1.2,2.9
			c0,1.2-0.4,2.2-1.2,2.9c-0.8,0.7-1.9,1.1-3.3,1.1L85.8,137.9L85.8,137.9z M85.8,136h0.8c1.9,0,2.8-0.7,2.8-2.2
			c0-1.4-1-2.1-2.9-2.1h-0.7V136z"/>
		<path class="st3" d="M99.8,140.1H94l-1.5,3.3h-2.2L97,129l6.4,14.3h-2.2L99.8,140.1z M98.9,138.2l-2-4.6l-2.1,4.6H98.9z"/>
		<path class="st3" d="M107.8,137.9v5.5h-2v-13.5h2.3c1.1,0,2,0.1,2.6,0.2c0.6,0.2,1.1,0.5,1.5,0.9c0.8,0.8,1.2,1.7,1.2,2.9
			c0,1.2-0.4,2.2-1.2,2.9c-0.8,0.7-1.9,1.1-3.3,1.1L107.8,137.9L107.8,137.9z M107.8,136h0.8c1.9,0,2.8-0.7,2.8-2.2
			c0-1.4-1-2.1-2.9-2.1h-0.7V136z"/>
	</g>
</g>
<g id="ikon">
	<g>
		<path class="st3" d="M81.1,98.5L81.1,98.5c-0.8-1.9-1.2-3.9-1.2-6c0-3.1,0.8-5.9,2.3-8.1c0.5-0.8,1.1-1.4,1.7-1.9H28.1
			c-3.4,0.5-6,4.8-6,10c0,5.4,2.8,9.9,6.4,10.1v0h0h55.9C83,101.7,81.9,100.3,81.1,98.5z"/>
		<g>
			<path class="st3" d="M75.3,59.3L52,80.8l36.4,0c2.1,0.1,4.1,1.3,5.6,3.5c0.9,1.3,1.6,2.9,1.9,4.6c0.2,1.5,0,2.9-0.6,4.2
				c-0.7,1.5-2,2.9-4,4.3c-0.5,0.3-1.3,0.6-2.2,0.6c-0.3,0-0.6,0-1-0.1c-0.8-0.2-2-0.8-2.8-2.4c-1.2-2.5-0.8-5.6,0.2-7.1
				c0.6-0.8,1.3-1.7,2.6-1.7l0,0l0.2,0c1.2,0.1,2.2,0.7,2.6,1.9c0.4,0.9,0.4,1.8,0.2,2.7c-0.1,0.4-0.3,0.6-0.3,0.6
				c-1,1.4-2.2,0.8-1.7-0.1c0,0,0.1-0.1,0.1-0.2c0.5-0.7,0.5-1.5,0.2-2.4c-0.2-0.5-0.6-0.8-1.2-0.8h-0.1c-0.3,0-0.7,0.2-1.3,1.1
				c-0.7,1-1.1,3.5-0.1,5.5c0.4,0.9,1,1.4,1.7,1.6c0.8,0.2,1.6-0.1,1.9-0.3c1.7-1.2,2.8-2.4,3.4-3.6c0.7-1.5,0.7-3.3-0.2-5.3l0,0.1
				c-0.3-0.7-0.6-1.4-1.1-2c-1.2-1.8-2.7-2.7-4.4-2.8H88c-1.6,0.1-3.2,1.1-4.4,2.8c-1.3,1.9-2,4.5-2,7.2c0,1.9,0.3,3.7,1,5.3l0,0
				c1,2.4,2.7,3.9,4.8,4.4c0.9,0.2,1.8,0.2,2.7,0c0,0,1.1-0.1,2.4-1.1l45.5-41.6L75.3,59.3L75.3,59.3z"/>
		</g>
	</g>
</g>
</svg>
