<?xml version="1.0" encoding="utf-8"?>
<!-- Generator: Adobe Illustrator 25.4.1, SVG Export Plug-In . SVG Version: 6.00 Build 0)  -->
<svg version="1.1" id="Layer_1" xmlns="http://www.w3.org/2000/svg" xmlns:xlink="http://www.w3.org/1999/xlink" x="0px" y="0px"
	 width="160px" height="160px" viewBox="0 0 160 160" style="enable-background:new 0 0 160 160;" xml:space="preserve">
<style type="text/css">
	.st0{fill:#004B82;}
	.st1{display:none;}
	.st2{display:inline;}
	.st3{fill:#FFFFFF;}
</style>
<g id="baggrund">
	<rect class="st0" width="160" height="160"/>
</g>
<g id="fraktion" class="st1">
	<g class="st2">
		<path class="st3" d="M32.3,123.8h-2.2v-11.6h-3.6v-1.9h9.3v1.9h-3.6V123.8z"/>
		<path class="st3" d="M48.4,122.1c-1.4,1.3-3.2,2.1-5.1,2.1s-3.7-0.7-5.1-2.1c-1.4-1.3-2.1-3.1-2.1-5c0-1.9,0.7-3.7,2.1-5
			c1.4-1.3,3.2-2.1,5.1-2.1s3.7,0.7,5.1,2.1c1.4,1.4,2.1,3.1,2.1,5C50.5,119,49.7,120.7,48.4,122.1z M46.8,113.5
			c-0.9-1-2.2-1.5-3.5-1.5s-2.5,0.5-3.5,1.5c-0.9,1-1.4,2.2-1.4,3.6c0,1.4,0.5,2.6,1.4,3.6c0.9,1,2.2,1.5,3.5,1.5s2.5-0.5,3.5-1.5
			c0.9-1,1.4-2.2,1.4-3.6C48.2,115.7,47.7,114.5,46.8,113.5z"/>
		<path class="st3" d="M52.8,110.3H55v13.5h-2.2V110.3z"/>
		<path class="st3" d="M58,110.3h2.2v11.5h4.9v2H58V110.3z"/>
		<path class="st3" d="M66.6,110.3h7.5v1.9h-5.3v3.4h5.3v1.9h-5.3v4.3h5.3v2h-7.5V110.3z"/>
		<path class="st3" d="M81.1,123.8h-2.2v-11.6h-3.6v-1.9h9.3v1.9h-3.6L81.1,123.8L81.1,123.8z"/>
		<path class="st3" d="M91.2,123.8h-2.2v-11.6h-3.6v-1.9h9.3v1.9h-3.6L91.2,123.8L91.2,123.8z"/>
		<path class="st3" d="M96.3,110.3h7.5v1.9h-5.3v3.4h5.3v1.9h-5.3v4.3h5.3v2h-7.5V110.3z"/>
		<path class="st3" d="M108.4,123.8h-2.1v-13.5h3c1.4,0,2.5,0.1,3.3,0.8c0.8,0.6,1.3,1.7,1.3,3c0,2.2-1.1,3.4-3.1,3.6l4.6,6.1h-2.5
			l-4.5-6h-0.2L108.4,123.8L108.4,123.8z M108.9,116.1c1.9,0,2.9-0.2,2.9-1.8c0-1.7-0.9-2-2.9-2h-0.4v3.9H108.9z"/>
		<path class="st3" d="M129.9,122.5c-1.3,1.1-2.6,1.6-4.2,1.6c-2.5,0-4.2-1.6-4.2-3.8c0-1.6,1-2.8,3-4.1l-0.5-0.6
			c-0.6-0.7-0.9-1.4-0.9-2.2c0-1.7,1.4-3,3.5-3c2.1,0,3.3,1.1,3.3,2.8c0,1.4-0.9,2.4-2.6,3.4l2.8,3.3c0.6-0.6,1.2-1.3,1.7-2.1
			l1.3,1.4c-0.5,0.8-1.1,1.5-1.8,2.1l2.3,2.6H131L129.9,122.5z M125.7,117.7l-0.3,0.2c-1.1,0.7-1.7,1.3-1.7,2.3
			c0,1.2,0.9,2.1,2.2,2.1c0.9,0,1.8-0.4,2.8-1.3L125.7,117.7z M126.7,114.9c0.7-0.4,1-0.9,1-1.6c0-0.8-0.5-1.3-1.3-1.3
			c-0.8,0-1.4,0.5-1.4,1.3c0,0.4,0.2,0.7,0.4,1.1l0.7,0.8L126.7,114.9z"/>
		<path class="st3" d="M26.9,129.8h2.2v5h6.6v-5h2.2v13.5h-2.2v-6.5h-6.6v6.5h-2.2V129.8z"/>
		<path class="st3" d="M48.4,139.8H43l-1.6,3.5h-2.3l6.3-13.5h0.5l6.3,13.5h-2.3L48.4,139.8z M45.7,125.1c1.2,0,2.2,1,2.2,2.2
			c0,1.2-1,2.2-2.2,2.2c-1.2,0-2.2-0.9-2.2-2.2C43.5,126.1,44.5,125.1,45.7,125.1z M47.6,137.9l-1.4-3.1c-0.2-0.4-0.3-0.8-0.5-1.5
			c-0.2,0.7-0.3,1.2-0.5,1.5l-1.4,3.1H47.6z M45.7,128.3c0.6,0,1.1-0.5,1.1-1c0-0.6-0.5-1.1-1.1-1.1c-0.6,0-1.1,0.5-1.1,1.1
			C44.7,127.9,45.1,128.3,45.7,128.3z"/>
		<path class="st3" d="M53.5,129.2l8.5,8.2c0.5,0.5,1,1.1,1.5,1.6v-9.3h2v14l-8.7-8.4c-0.5-0.5-0.9-1-1.3-1.5v9.4h-2V129.2z"/>
		<path class="st3" d="M68.5,129.8h3c2.5,0,4.5,0,6.1,1.3c1.5,1.2,2.4,3.1,2.4,5.5c0,2.4-0.8,4.3-2.4,5.5c-1.6,1.2-3.3,1.3-5.5,1.3
			c-0.2,0-0.4,0-0.6,0h-3C68.5,143.2,68.5,129.8,68.5,129.8z M71.5,141.2c0.4,0,0.7,0,1.1,0c1.5,0,2.6-0.1,3.6-0.9
			c1-0.9,1.5-2.2,1.5-3.9c0-1.7-0.5-3-1.5-3.9c-1-0.8-2.2-0.9-3.9-0.9c-0.2,0-0.5,0-0.8,0h-0.8v9.5L71.5,141.2L71.5,141.2z"/>
		<path class="st3" d="M80,129.8h2.3l3,7.2c0.3,0.8,0.6,1.4,0.7,2.2c0.2-0.7,0.4-1.4,0.7-2.2l3-7.2H92l-6,14L80,129.8z"/>
		<path class="st3" d="M99.4,139.8H94l-1.6,3.5h-2.3l6.5-14l6.5,14h-2.3L99.4,139.8z M98.6,137.9l-1.4-3.1c-0.2-0.4-0.3-0.8-0.5-1.5
			c-0.2,0.7-0.3,1.2-0.5,1.5l-1.4,3.1H98.6z"/>
		<path class="st3" d="M105.4,139.7c0.3,1.2,1.2,1.8,2.6,1.8c1.3,0,2.1-0.8,2.1-2c0-1.3-1-1.6-2.4-2.3c-2.4-1.2-3.7-2.1-3.7-4.1
			c0-2.2,1.6-3.7,4-3.7c2,0,3.4,0.8,3.9,2.2l-1.7,0.9c-0.5-0.8-1.1-1.2-2-1.2c-1.2,0-1.9,0.7-1.9,1.7c0,1.3,1.1,1.7,2.6,2.4
			c2.4,1.1,3.5,2.1,3.5,4c0,2.5-1.7,4.2-4.5,4.2c-2.3,0-3.8-1.1-4.3-3L105.4,139.7z"/>
		<path class="st3" d="M114.6,129.8h2.2v5.6l4.8-5.6h2.7l-5.3,6l6,7.5h-2.8l-5.3-6.9v6.9h-2.2L114.6,129.8L114.6,129.8z"/>
		<path class="st3" d="M126.2,129.8h7.5v1.9h-5.3v3.4h5.3v1.9h-5.3v4.3h5.3v2h-7.5V129.8z"/>
	</g>
</g>
<g id="ikon">
	<path class="st3" d="M92.5,103.3c0,0,13.7-16.4,16.4-22.3c0.8-1.8,0.5-4.4,0.5-4.4H67.4c0,0,0-12.4,0-18c0-9-2.1-16.3-5.6-18
		c-1.1-0.6-7.6-0.8-9.4,0.1c-1.7,0.9-1.7,3.9-1.7,3.9v32.3c0,3.8,1,7.4,2.5,10c1.2,2.1,5.5,8,6.5,10.8c1,2.8,0.9,4,1.1,6.1
		c0.1,2.1-0.7,16.2-0.7,16.2H95c0,0,0-1.7-0.9-4.5c-0.9-2.8-1.7-4.5-2.6-7.6C90.7,104.8,92.5,103.3,92.5,103.3z"/>
</g>
</svg>
