<?xml version="1.0" encoding="utf-8"?>
<!-- Generator: Adobe Illustrator 25.4.1, SVG Export Plug-In . SVG Version: 6.00 Build 0)  -->
<svg version="1.1" id="Layer_1" xmlns="http://www.w3.org/2000/svg" xmlns:xlink="http://www.w3.org/1999/xlink" x="0px" y="0px"
	 width="160px" height="160px" viewBox="0 0 160 160" style="enable-background:new 0 0 160 160;" xml:space="preserve">
<style type="text/css">
	.st0{fill:#004B82;}
	.st1{display:none;}
	.st2{display:inline;}
	.st3{fill:#FFFFFF;}
</style>
<g id="baggrund">
	<rect class="st0" width="160" height="160"/>
</g>
<g id="fraktion" class="st1">
	<g class="st2">
		<path class="st3" d="M43.2,129.8l3.7,9.3l3.8-9.3h2.2l-6,14.4l-5.9-14.4H43.2z"/>
		<path class="st3" d="M57.2,129.8v13.4h-2v-13.4H57.2z"/>
		<path class="st3" d="M60,143.2v-14.3l9.8,10.2v-9.3h2V144L62,133.8v9.4L60,143.2L60,143.2z"/>
		<path class="st3" d="M74.8,143.2v-13.4h2.8c1.3,0,2.4,0.1,3.2,0.4c0.8,0.3,1.6,0.7,2.3,1.3c1.4,1.3,2.1,2.9,2.1,5
			c0,2.1-0.7,3.7-2.2,5c-0.7,0.6-1.5,1.1-2.3,1.3c-0.7,0.2-1.8,0.4-3.2,0.4L74.8,143.2L74.8,143.2z M76.8,141.3h0.9
			c0.9,0,1.7-0.1,2.3-0.3c0.6-0.2,1.1-0.5,1.6-1c1-0.9,1.5-2.1,1.5-3.6c0-1.5-0.5-2.7-1.5-3.6c-0.9-0.8-2.2-1.2-3.9-1.2h-0.9
			L76.8,141.3L76.8,141.3z"/>
		<path class="st3" d="M89.7,129.8v8.1c0,1.2,0.2,2,0.6,2.5c0.6,0.8,1.4,1.2,2.4,1.2c1,0,1.8-0.4,2.4-1.2c0.4-0.5,0.6-1.4,0.6-2.5
			v-8.1h2v8.6c0,1.4-0.4,2.6-1.3,3.5c-1,1-2.2,1.5-3.6,1.5s-2.7-0.5-3.6-1.5c-0.9-0.9-1.3-2.1-1.3-3.5v-8.6H89.7z"/>
		<path class="st3" d="M107.8,131.7h-5.4v3.2h5.2v1.9h-5.2v4.5h5.4v1.9h-7.4v-13.4h7.4V131.7z"/>
		<path class="st3" d="M115,137.5l4.1,5.7h-2.5l-3.8-5.5h-0.4v5.5h-2v-13.4h2.4c1.8,0,3.1,0.3,3.8,1c0.9,0.7,1.3,1.7,1.3,2.9
			c0,0.9-0.3,1.8-0.8,2.4C116.6,136.8,115.9,137.3,115,137.5z M112.5,135.9h0.6c1.9,0,2.9-0.7,2.9-2.2c0-1.4-0.9-2.1-2.8-2.1h-0.7
			V135.9z"/>
	</g>
</g>
<g id="ikon">
	<g>
		<path class="st3" d="M52,41v80h56V41H52z M103.2,68H82.4V45.8h20.8V68z M77.6,45.8V68H56.8V45.8H77.6z M56.8,72.8h20.8v43.4H56.8
			V72.8z M82.4,116.2V72.8h20.8v43.4H82.4z"/>
		<g>
			<polygon class="st3" points="87.8,95.8 100,78.5 98.1,78.5 85.9,95.8 			"/>
			<polygon class="st3" points="98.6,84.3 91.5,94.3 93.5,94.3 100.6,84.3 			"/>
			<polygon class="st3" points="92.3,80 85.2,90 87.2,90 94.3,80 			"/>
		</g>
	</g>
</g>
</svg>
