<?xml version="1.0" encoding="utf-8"?>
<!-- Generator: Adobe Illustrator 25.4.1, SVG Export Plug-In . SVG Version: 6.00 Build 0)  -->
<svg version="1.1" id="Layer_1" xmlns="http://www.w3.org/2000/svg" xmlns:xlink="http://www.w3.org/1999/xlink" x="0px" y="0px"
	 width="160px" height="160px" viewBox="0 0 160 160" style="enable-background:new 0 0 160 160;" xml:space="preserve">
<style type="text/css">
	.st0{fill:#961E82;}
	.st1{display:none;}
	.st2{display:inline;}
	.st3{fill:#FFFFFF;}
</style>
<g id="baggrund">
	<rect class="st0" width="160" height="160"/>
</g>
<g id="fraktion" class="st1">
	<g class="st2">
		<path class="st3" d="M29.2,143.3v-13.4h2c0.9,0,1.6,0.1,2.1,0.2c0.5,0.1,1,0.4,1.4,0.7c0.4,0.3,0.7,0.8,0.9,1.3
			c0.2,0.5,0.3,1,0.3,1.6c0,1-0.4,1.8-1.1,2.4c0.7,0.2,1.3,0.7,1.7,1.3c0.4,0.6,0.6,1.3,0.6,2.1c0,1-0.4,1.9-1.1,2.7
			c-0.4,0.4-0.9,0.8-1.5,0.9c-0.6,0.2-1.4,0.3-2.3,0.3H29.2z M31.2,135.7h0.6c0.8,0,1.3-0.2,1.7-0.5c0.4-0.3,0.5-0.8,0.5-1.5
			c0-0.6-0.2-1.1-0.5-1.4c-0.4-0.3-0.9-0.5-1.6-0.5h-0.7L31.2,135.7L31.2,135.7z M31.2,141.4h1.3c0.9,0,1.6-0.2,2-0.5
			c0.5-0.4,0.7-0.9,0.7-1.5c0-0.6-0.2-1.1-0.7-1.5c-0.4-0.4-1.2-0.6-2.3-0.6h-1L31.2,141.4L31.2,141.4z"/>
		<path class="st3" d="M41.6,129.9v11.5h3.9v1.9h-6v-13.4L41.6,129.9L41.6,129.9z"/>
		<path class="st3" d="M58.5,131.1l1.4-1.5l1.2,1.2l-1.4,1.5c1.1,1.3,1.6,2.8,1.6,4.4c0,1.9-0.7,3.5-2.1,4.9c-1.4,1.4-3,2-4.9,2
			c-1.6,0-3.1-0.5-4.4-1.5l-1.4,1.4l-1.1-1.1l1.4-1.4c-0.9-1.3-1.4-2.7-1.4-4.2c0-2,0.7-3.7,2.1-5c1.4-1.3,3-2,4.9-2
			C55.8,129.7,57.2,130.1,58.5,131.1z M57.1,132.4c-0.8-0.6-1.8-0.8-2.8-0.8c-1.4,0-2.6,0.5-3.6,1.5c-0.9,1-1.4,2.2-1.4,3.7
			c0,1,0.3,1.9,0.8,2.8L57.1,132.4z M58.3,133.5l-7,7.1c1,0.7,2,1,3,1c1.4,0,2.5-0.5,3.5-1.5c1-1,1.4-2.2,1.4-3.6
			C59.2,135.5,58.9,134.5,58.3,133.5z"/>
		<path class="st3" d="M63.6,143.3v-13.4h2.8c1.3,0,2.4,0.1,3.2,0.4c0.8,0.3,1.6,0.7,2.3,1.3c1.4,1.3,2.1,2.9,2.1,5
			c0,2.1-0.7,3.7-2.2,5c-0.7,0.6-1.5,1.1-2.3,1.3c-0.7,0.2-1.8,0.4-3.2,0.4L63.6,143.3L63.6,143.3z M65.6,141.4h0.9
			c0.9,0,1.7-0.1,2.3-0.3c0.6-0.2,1.1-0.5,1.6-1c1-0.9,1.5-2.1,1.5-3.6c0-1.5-0.5-2.7-1.5-3.6c-0.9-0.8-2.2-1.2-3.9-1.2h-0.9
			C65.6,131.8,65.6,141.4,65.6,141.4z"/>
		<path class="st3" d="M83.7,137.9v5.4h-2v-13.4H84c1.1,0,2,0.1,2.5,0.2c0.6,0.2,1.1,0.5,1.5,0.9c0.8,0.8,1.2,1.7,1.2,2.8
			c0,1.2-0.4,2.2-1.2,2.9c-0.8,0.7-1.9,1.1-3.3,1.1L83.7,137.9L83.7,137.9z M83.7,136h0.8c1.9,0,2.8-0.7,2.8-2.1
			c0-1.4-1-2.1-2.9-2.1h-0.7C83.7,131.8,83.7,136,83.7,136z"/>
		<path class="st3" d="M93.3,129.9v11.5h3.9v1.9h-6v-13.4L93.3,129.9L93.3,129.9z"/>
		<path class="st3" d="M108.4,140.1h-5.7l-1.5,3.3h-2.2l6.6-14.2l6.4,14.2h-2.2L108.4,140.1z M107.5,138.2l-2-4.6l-2.1,4.6H107.5z"
			/>
		<path class="st3" d="M121,131.9l-1.6,1c-0.3-0.5-0.6-0.9-0.9-1c-0.3-0.2-0.7-0.3-1.1-0.3c-0.6,0-1,0.2-1.4,0.5
			c-0.4,0.3-0.6,0.7-0.6,1.2c0,0.7,0.5,1.2,1.5,1.6l1.3,0.5c1.1,0.4,1.9,1,2.4,1.6c0.5,0.6,0.8,1.4,0.8,2.3c0,1.2-0.4,2.3-1.2,3.1
			c-0.8,0.8-1.9,1.2-3.1,1.2c-1.2,0-2.1-0.3-2.9-1c-0.7-0.7-1.2-1.7-1.4-2.9l2-0.5c0.1,0.8,0.3,1.3,0.5,1.6c0.4,0.6,1,0.9,1.8,0.9
			c0.6,0,1.2-0.2,1.6-0.6c0.4-0.4,0.6-1,0.6-1.6c0-0.3,0-0.5-0.1-0.7c-0.1-0.2-0.2-0.4-0.3-0.6c-0.2-0.2-0.4-0.4-0.6-0.5
			s-0.5-0.3-0.9-0.5l-1.3-0.5c-1.8-0.8-2.8-1.9-2.8-3.4c0-1,0.4-1.8,1.2-2.5c0.8-0.7,1.7-1,2.9-1C118.9,129.7,120.1,130.4,121,131.9
			z"/>
		<path class="st3" d="M127.7,131.8v11.5h-2v-11.5h-3.1v-1.9h8.2v1.9H127.7z"/>
	</g>
</g>
<g id="ikon">
	<g>
		<path class="st3" d="M104.3,94.3c-0.2-2.1-0.4-4.3-0.2-6.4c0.2-1.7,0.8-3.4,0.9-5.1c0.2-2.2-0.3-4.4-0.8-6.5
			c-0.4-1.5-0.7-3.2-0.3-4.7c0.2-0.8,0.6-1.6,0.9-2.3c0.4-1.1,3.3-11,3.4-21.6c0-1.4,0.3-2.6,0.1-4c-5.6-1.6-23.1-1.3-29.9-1.3
			c-25.5,0-26.2-1.3-26.2-1.4l1.2,23.3c0.7,6.3,1.7,12.9,5.1,18.2c0.3,0.5,0.7,1,0.7,1.6c0,0.5-0.3,0.9-0.5,1.3
			c-2.1,3.9-2.6,8.3-3,12.7c-0.3,3.2-0.7,6.3-1,9.5c-0.3,2.6-0.3,4.3-0.5,6.9c0,1-0.9,1.8-1.5,2.6s-0.8,2.5-0.8,3.8
			c1.2,0.5,9,0.3,15.6,0c4.2-0.1,8-0.7,9-0.8c10.4-1.3,21.5-0.6,32-0.2c-0.7-2.2-1.3-4.6-1.5-6.9
			C106.1,106.8,104.9,100.5,104.3,94.3z M92.2,52.8c0,1.5-1.3,2.8-2.8,2.8H71c-1.5,0-2.8-1.3-2.8-2.8l0,0c0-1.5,1.3-2.8,2.8-2.8
			h18.4C90.9,50,92.2,51.3,92.2,52.8L92.2,52.8z"/>
		<path class="st3" d="M52.2,40.9L52.2,40.9C52.2,40.9,52.2,40.9,52.2,40.9z"/>
	</g>
</g>
</svg>
