<?xml version="1.0" encoding="utf-8"?>
<!-- Generator: Adobe Illustrator 25.4.1, SVG Export Plug-In . SVG Version: 6.00 Build 0)  -->
<svg version="1.1" id="Layer_1" xmlns="http://www.w3.org/2000/svg" xmlns:xlink="http://www.w3.org/1999/xlink" x="0px" y="0px"
	 width="160px" height="160px" viewBox="0 0 160 160" style="enable-background:new 0 0 160 160;" xml:space="preserve">
<style type="text/css">
	.st0{fill:#004B82;}
	.st1{display:none;}
	.st2{display:inline;}
	.st3{fill:#FFFFFF;}
</style>
<g id="baggrund">
	<rect y="0" class="st0" width="160" height="160"/>
</g>
<g id="fraktion" class="st1">
	<g class="st2">
		<path class="st3" d="M41,129.8h3.4c1.4,0,2.5,0.1,3.3,0.7c0.8,0.6,1.3,1.6,1.3,2.8c0,1.4-0.7,2.4-1.9,2.8c1.6,0.2,2.5,1.5,2.5,3.3
			c0,1.1-0.4,2.1-1.1,2.8c-1,1-2.2,1-4.1,1H41V129.8z M44,135.4c2,0,2.9-0.5,2.9-1.9c0-1.7-0.9-2-2.9-2h-0.8v3.9H44z M43.9,141.4
			c1.2,0,2.1-0.1,2.6-0.4c0.5-0.4,0.8-1,0.8-1.7c0-0.8-0.4-1.5-1-1.9c-0.5-0.3-1.1-0.3-1.8-0.3c-0.2,0-0.4,0-0.7,0h-0.8v4.3
			L43.9,141.4L43.9,141.4z"/>
		<path class="st3" d="M54,143.2h-2.1v-13.5h3c1.4,0,2.5,0.1,3.3,0.8c0.8,0.6,1.3,1.7,1.3,3c0,2.2-1.1,3.4-3.1,3.6l4.6,6.1h-2.5
			l-4.5-6H54V143.2z M54.5,135.5c1.9,0,2.9-0.2,2.9-1.8c0-1.7-0.9-2-2.9-2h-0.4v3.9H54.5z"/>
		<path class="st3" d="M73.7,141.5c-1.4,1.3-3.2,2.1-5.1,2.1c-1.9,0-3.7-0.7-5.1-2.1c-1.4-1.3-2.1-3.1-2.1-5c0-1.9,0.7-3.6,2.1-5
			c1.4-1.3,3.2-2.1,5.1-2.1s3.7,0.7,5.1,2.1c1.4,1.4,2.1,3.1,2.1,5C75.8,138.4,75.1,140.2,73.7,141.5z M72.1,132.9
			c-0.9-1-2.2-1.5-3.5-1.5s-2.5,0.5-3.5,1.5c-0.9,1-1.4,2.2-1.4,3.6c0,1.4,0.5,2.6,1.4,3.6c0.9,1,2.2,1.5,3.5,1.5s2.5-0.5,3.5-1.5
			c0.9-1,1.4-2.2,1.4-3.6C73.5,135.2,73,133.9,72.1,132.9z"/>
		<path class="st3" d="M78.2,129.8h2.2v5.6l4.8-5.6h2.7l-5.3,6l6,7.5h-2.8l-5.3-6.9v6.9h-2.2L78.2,129.8L78.2,129.8z"/>
		<path class="st3" d="M89.8,129.8H92v5.6l4.8-5.6h2.7l-5.3,6l6,7.5h-2.8l-5.3-6.9v6.9h-2.2L89.8,129.8L89.8,129.8z"/>
		<path class="st3" d="M101.5,129.8h7.5v1.9h-5.3v3.4h5.3v1.9h-5.3v4.3h5.3v2h-7.5V129.8z"/>
		<path class="st3" d="M113.6,143.2h-2.1v-13.5h3c1.4,0,2.5,0.1,3.3,0.8c0.8,0.6,1.3,1.7,1.3,3c0,2.2-1.1,3.4-3.1,3.6l4.6,6.1h-2.5
			l-4.5-6h-0.2L113.6,143.2L113.6,143.2z M114.1,135.5c1.9,0,2.9-0.2,2.9-1.8c0-1.7-0.9-2-2.9-2h-0.4v3.9H114.1z"/>
	</g>
</g>
<g id="ikon">
	<g>
		<g>
			<path class="st3" d="M108.9,64.6l0,35.2l15.5-13.9V50.7L108.9,64.6z"/>
		</g>
		<g>
			<path class="st3" d="M44.9,79.5h26.7l6.8-6.1h8.8l4.9-6.6l0.1,0l15.5-3.6l16.7-15l-5.7-4.9H87.3L74,48.3h-9.2l-29.3,17l0,8.4
				L44.9,79.5z"/>
		</g>
		<g>
			<path class="st3" d="M73.4,80.4l0,35.4l5.7-5.1h8.9l5-6.8l0.1,0l13.9-3.2V65.2l-13.8,3.2l-5,6.8h-9L73.4,80.4z"/>
		</g>
		<g>
			<path class="st3" d="M44.9,116.7h26.6l0-35.4H44.9V116.7z"/>
		</g>
		<g>
			<path class="st3" d="M35.6,111.3l7.4,4.9V81l-7.4-4.9L35.6,111.3z"/>
		</g>
	</g>
</g>
</svg>
