<?xml version="1.0" encoding="utf-8"?>
<!-- Generator: Adobe Illustrator 25.4.1, SVG Export Plug-In . SVG Version: 6.00 Build 0)  -->
<svg version="1.1" id="Layer_1" xmlns="http://www.w3.org/2000/svg" xmlns:xlink="http://www.w3.org/1999/xlink" x="0px" y="0px"
	 width="160px" height="160px" viewBox="0 0 160 160" style="enable-background:new 0 0 160 160;" xml:space="preserve">
<style type="text/css">
	.st0{fill:#E10F1E;}
	.st1{display:none;}
	.st2{display:inline;}
	.st3{fill:#FFFFFF;}
</style>
<g id="baggrund">
	<rect class="st0" width="160" height="160"/>
</g>
<g id="fraktion" class="st1">
	<g class="st2">
		<path class="st3" d="M21.7,131.8h-4.5v3.2h4.4v1.9h-4.4v6.4h-2v-13.4h6.5C21.7,129.9,21.7,131.8,21.7,131.8z"/>
		<path class="st3" d="M30.3,140.1h-5.6l-1.4,3.3h-2.1l6.4-14.2l6.2,14.2h-2.1L30.3,140.1z M29.5,138.2l-1.9-4.6l-2,4.6H29.5z"/>
		<path class="st3" d="M39.9,137.6l4,5.7h-2.4l-3.7-5.5h-0.4v5.5h-2v-13.4h2.3c1.7,0,3,0.3,3.7,1c0.8,0.7,1.3,1.7,1.3,2.9
			c0,0.9-0.3,1.8-0.8,2.4C41.4,137,40.7,137.4,39.9,137.6z M37.4,136.1h0.6c1.9,0,2.8-0.7,2.8-2.2c0-1.4-0.9-2.1-2.7-2.1h-0.7
			L37.4,136.1L37.4,136.1z"/>
		<path class="st3" d="M47.6,129.9v11.5h3.8v1.9h-5.8v-13.4L47.6,129.9L47.6,129.9z"/>
		<path class="st3" d="M55.6,129.9v13.4h-2v-13.4H55.6z"/>
		<path class="st3" d="M65.1,136.3h5.4v0.4c0,1-0.1,1.9-0.3,2.7c-0.2,0.7-0.6,1.4-1.1,2c-1.2,1.4-2.7,2.1-4.6,2.1
			c-1.8,0-3.4-0.7-4.7-2c-1.3-1.4-1.9-3-1.9-4.9c0-1.9,0.7-3.6,2-4.9c1.3-1.4,2.9-2,4.8-2c1,0,2,0.2,2.8,0.6
			c0.8,0.4,1.7,1.1,2.5,2.1l-1.4,1.4c-1.1-1.5-2.4-2.2-3.9-2.2c-1.4,0-2.5,0.5-3.5,1.5c-0.9,1-1.4,2.2-1.4,3.6
			c0,1.5,0.5,2.7,1.6,3.7c1,0.9,2,1.3,3.2,1.3c1,0,1.8-0.3,2.6-1c0.8-0.7,1.2-1.5,1.3-2.4h-3.2L65.1,136.3L65.1,136.3z"/>
		<path class="st3" d="M76.5,131.8v11.5h-2v-11.5h-3v-1.9h7.9v1.9H76.5z"/>
		<path class="st3" d="M92.7,140.1h-5.6l-1.4,3.3h-2.1l6.4-14.2l6.2,14.2H94L92.7,140.1z M91.9,138.2l-1.9-4.6l-2,4.6H91.9z"/>
		<path class="st3" d="M104.3,131.8h-4.5v3.2h4.4v1.9h-4.4v6.4h-2v-13.4h6.5V131.8z"/>
		<path class="st3" d="M113.1,131.8h-4.5v3.2h4.4v1.9h-4.4v6.4h-2v-13.4h6.5L113.1,131.8L113.1,131.8z"/>
		<path class="st3" d="M121.6,140.1H116l-1.4,3.3h-2.1l6.4-14.2l6.2,14.2H123L121.6,140.1z M120.8,138.2l-1.9-4.6l-2,4.6H120.8z"/>
		<path class="st3" d="M128.7,129.9v11.5h3.8v1.9h-5.8v-13.4L128.7,129.9L128.7,129.9z"/>
		<path class="st3" d="M134.7,143.3v-13.4h2.7c1.3,0,2.3,0.1,3.1,0.4c0.8,0.3,1.6,0.7,2.2,1.3c1.3,1.3,2,2.9,2,5
			c0,2.1-0.7,3.7-2.1,5c-0.7,0.6-1.4,1.1-2.2,1.3c-0.7,0.2-1.7,0.4-3.1,0.4L134.7,143.3L134.7,143.3z M136.7,141.4h0.9
			c0.9,0,1.6-0.1,2.2-0.3c0.6-0.2,1.1-0.5,1.6-1c1-0.9,1.4-2.1,1.4-3.6c0-1.5-0.5-2.7-1.4-3.6c-0.9-0.8-2.1-1.2-3.8-1.2h-0.9
			L136.7,141.4L136.7,141.4z"/>
	</g>
</g>
<g id="ikon">
	<g>
		<g>
			<path class="st3" d="M117.7,108.6L117.7,108.6L81.9,49.1C81.5,48.4,80.8,48,80,48c-0.8,0-1.6,0.5-2,1.2l-35.7,59.5l0,0
				c-0.2,0.4-0.4,0.9-0.3,1.4c0.1,1.2,1.1,2,2.3,2h71.4c1.2,0,2.2-0.9,2.3-2C118,109.5,117.9,109,117.7,108.6z M80,104
				c-1.8,0-3.2-1.4-3.2-3.2c0-1.8,1.4-3.2,3.2-3.2c1.8,0,3.2,1.4,3.2,3.2C83.2,102.6,81.8,104,80,104z M81.6,94.4l-3.2,0l-1.6-25.6
				h6.4L81.6,94.4z"/>
		</g>
	</g>
</g>
</svg>
