<?xml version="1.0" encoding="utf-8"?>
<!-- Generator: Adobe Illustrator 25.4.1, SVG Export Plug-In . SVG Version: 6.00 Build 0)  -->
<svg version="1.1" id="Layer_1" xmlns="http://www.w3.org/2000/svg" xmlns:xlink="http://www.w3.org/1999/xlink" x="0px" y="0px"
	 width="160px" height="160px" viewBox="0 0 160 160" style="enable-background:new 0 0 160 160;" xml:space="preserve">
<style type="text/css">
	.st0{fill:#004B82;}
	.st1{display:none;}
	.st2{display:inline;}
	.st3{fill:#FFFFFF;}
</style>
<g id="baggrund">
	<rect y="0" class="st0" width="160" height="160"/>
</g>
<g id="fraktion" class="st1">
	<g class="st2">
		<path class="st3" d="M52.6,116.9c0,0.5,0,1,0,1.3c0,3.8-2.3,6-6.2,6c-2.2,0-3.9-0.6-5.2-2c-1.3-1.3-2-3.1-2-5.1
			c0-2,0.7-3.8,2.1-5.1c1.3-1.3,3.1-2,5.1-2c2.1,0,3.8,0.8,5.1,2.4l-1.6,1.2c-0.9-1.1-2-1.6-3.4-1.6c-2.9,0-4.9,2-4.9,5
			c0,3.1,2.1,5.1,5,5.1c2.5,0,4-1.3,4-3.3c0-0.1,0-0.1,0-0.2h-3.2v-1.8C47.3,116.9,52.6,116.9,52.6,116.9z"/>
		<path class="st3" d="M54.8,110.3H57v11.5h4.9v2h-7.1V110.3z"/>
		<path class="st3" d="M71.8,120.3h-5.3l-1.6,3.5h-2.3l6.5-14l6.5,14h-2.3L71.8,120.3z M71,118.5l-1.4-3.1c-0.2-0.4-0.3-0.8-0.5-1.5
			c-0.2,0.7-0.3,1.2-0.5,1.5l-1.4,3.1H71z"/>
		<path class="st3" d="M77.8,120.3c0.3,1.2,1.2,1.8,2.6,1.8c1.3,0,2.1-0.8,2.1-2c0-1.3-1-1.6-2.4-2.3c-2.4-1.2-3.7-2.1-3.7-4.1
			c0-2.2,1.6-3.7,4-3.7c2,0,3.4,0.8,3.9,2.2l-1.7,0.9c-0.5-0.8-1.1-1.2-2-1.2c-1.2,0-1.9,0.7-1.9,1.7c0,1.3,1.1,1.7,2.6,2.4
			c2.4,1.1,3.5,2.1,3.5,4c0,2.5-1.7,4.2-4.5,4.2c-2.3,0-3.8-1.1-4.3-3L77.8,120.3z"/>
		<path class="st3" d="M89,110.3v8.2c0,2.4,1.1,3.7,3.3,3.7s3.3-1.2,3.3-3.7v-8.2h2.2v8.4c0,3.6-1.8,5.4-5.5,5.4s-5.5-1.8-5.5-5.4
			v-8.4H89z"/>
		<path class="st3" d="M100.8,110.3h2.2v11.5h4.9v2h-7.1C100.8,123.8,100.8,110.3,100.8,110.3z"/>
		<path class="st3" d="M109.4,110.3h3c2.5,0,4.5,0,6.1,1.3c1.5,1.2,2.4,3.1,2.4,5.5s-0.8,4.3-2.4,5.5c-1.6,1.2-3.3,1.3-5.5,1.3
			c-0.2,0-0.4,0-0.6,0h-3L109.4,110.3L109.4,110.3z M112.4,121.8c0.4,0,0.7,0,1.1,0c1.5,0,2.6-0.1,3.6-0.9c1-0.9,1.5-2.2,1.5-3.9
			c0-1.7-0.5-3-1.5-3.9c-1-0.8-2.2-0.9-3.9-0.9c-0.2,0-0.5,0-0.8,0h-0.8v9.5L112.4,121.8L112.4,121.8z"/>
		<path class="st3" d="M39.2,141.9c-1.3,1.1-2.6,1.6-4.2,1.6c-2.5,0-4.2-1.6-4.2-3.8c0-1.6,1-2.8,3-4.1l-0.5-0.6
			c-0.6-0.7-0.9-1.4-0.9-2.2c0-1.7,1.4-3,3.5-3s3.3,1.1,3.3,2.8c0,1.4-0.9,2.4-2.6,3.4l2.8,3.3c0.6-0.6,1.2-1.3,1.7-2.1l1.3,1.4
			c-0.5,0.8-1.1,1.5-1.8,2.1l2.3,2.6h-2.5L39.2,141.9z M35,137.1l-0.3,0.2c-1.1,0.7-1.7,1.3-1.7,2.3c0,1.2,0.9,2.1,2.2,2.1
			c0.9,0,1.8-0.4,2.8-1.3L35,137.1z M36,134.4c0.7-0.4,1-0.9,1-1.6c0-0.8-0.5-1.3-1.3-1.3c-0.8,0-1.4,0.5-1.4,1.3
			c0,0.4,0.2,0.7,0.4,1.1l0.7,0.8L36,134.4z"/>
		<path class="st3" d="M51.1,139.7c0.3,1.2,1.2,1.8,2.6,1.8c1.3,0,2.1-0.8,2.1-2c0-1.3-1-1.6-2.4-2.3c-2.4-1.2-3.7-2.1-3.7-4.1
			c0-2.2,1.6-3.7,4-3.7c2,0,3.4,0.8,3.9,2.2l-1.7,0.9c-0.5-0.8-1.1-1.2-2-1.2c-1.2,0-1.9,0.7-1.9,1.7c0,1.3,1.1,1.7,2.6,2.4
			c2.4,1.1,3.5,2.1,3.5,4c0,2.5-1.7,4.2-4.5,4.2c-2.3,0-3.8-1.1-4.3-3L51.1,139.7z"/>
		<path class="st3" d="M64.8,143.2h-2.2v-11.6H59v-1.9h9.3v1.9h-3.6V143.2z"/>
		<path class="st3" d="M69.8,129.8h7.5v1.9H72v3.4h5.3v1.9H72v4.3h5.3v2h-7.5V129.8z"/>
		<path class="st3" d="M79.8,129.2l8.5,8.2c0.5,0.5,1,1.1,1.5,1.6v-9.3h2v14l-8.7-8.4c-0.5-0.5-0.9-1-1.3-1.5v9.4h-2L79.8,129.2
			L79.8,129.2z"/>
		<path class="st3" d="M97,129.8v8.2c0,2.4,1.1,3.6,3.3,3.6c2.2,0,3.3-1.2,3.3-3.6v-8.2h2.2v8.4c0,3.6-1.8,5.4-5.5,5.4
			s-5.5-1.8-5.5-5.4v-8.4H97z"/>
		<path class="st3" d="M108.8,129.8h2.2v11.5h4.9v2h-7.1C108.8,143.2,108.8,129.8,108.8,129.8z"/>
		<path class="st3" d="M117.4,129.8h3c2.5,0,4.5,0,6.1,1.3c1.5,1.2,2.4,3.1,2.4,5.5c0,2.4-0.8,4.3-2.4,5.5c-1.6,1.2-3.3,1.3-5.5,1.3
			c-0.2,0-0.4,0-0.6,0h-3L117.4,129.8L117.4,129.8z M120.4,141.2c0.4,0,0.7,0,1.1,0c1.5,0,2.6-0.1,3.6-0.9c1-0.9,1.5-2.2,1.5-3.9
			c0-1.7-0.5-3-1.5-3.9c-1-0.8-2.2-0.9-3.9-0.9c-0.2,0-0.5,0-0.8,0h-0.8v9.5L120.4,141.2L120.4,141.2z"/>
	</g>
</g>
<g id="ikon">
	<g>
		<g>
			<g>
				<rect x="98" y="44" class="st3" width="6.8" height="72"/>
			</g>
			<g>
				<rect x="55.3" y="44" class="st3" width="6.8" height="72"/>
			</g>
		</g>
		<path class="st3" d="M74.3,48.8h18.5v-3.2H74.3v0c-3.9,0-7,3.2-7,7.1c0,3.9,3.2,7.1,7.1,7.1v0h11.5c2.1,0,3.9,1.7,3.9,3.9
			c0,2.1-1.7,3.9-3.8,3.9H74.3v0c-3.9,0-7.1,3.2-7.1,7.1c0,3.9,3.2,7.1,7.1,7.1v0h11.5c2.1,0,3.9,1.7,3.9,3.9c0,2.1-1.7,3.9-3.9,3.9
			H74.3v0c-3.9,0-7.1,3.2-7.1,7.1s3.2,7.1,7.1,7.1v0h11.5l0,0c2.1,0,3.8,1.7,3.8,3.9c0,2.1-1.7,3.9-3.9,3.9H67.3v3.2h18.6v0
			c3.9,0,7-3.2,7-7.1c0-3.9-3.2-7.1-7.1-7.1v0H74.3c-2.1,0-3.9-1.7-3.9-3.9c0-2.1,1.7-3.9,3.9-3.9v0h11.5v0c0,0,0,0,0,0h0v0
			c3.9,0,7-3.2,7-7.1c0-3.9-3.2-7.1-7.1-7.1v0H74.3v0c-2.1,0-3.9-1.7-3.9-3.9c0-2.1,1.7-3.9,3.9-3.9v0h11.5v0c3.9,0,7.1-3.2,7.1-7.1
			c0-3.9-3.2-7.1-7-7.1v0h0c0,0,0,0,0,0v0H74.3v0c-2.1,0-3.9-1.7-3.9-3.9C70.5,50.5,72.2,48.8,74.3,48.8z"/>
	</g>
</g>
</svg>
