<?xml version="1.0" encoding="utf-8"?>
<!-- Generator: Adobe Illustrator 27.1.1, SVG Export Plug-In . SVG Version: 6.00 Build 0)  -->
<svg version="1.1" id="Layer_1" xmlns="http://www.w3.org/2000/svg" xmlns:xlink="http://www.w3.org/1999/xlink" x="0px" y="0px"
	 width="160px" height="160px" viewBox="0 0 160 160" style="enable-background:new 0 0 160 160;" xml:space="preserve">
<style type="text/css">
	.st0{fill:#1EAF8C;}
	.st1{display:none;}
	.st2{display:inline;}
	.st3{fill:#FFFFFF;}
	.st4{fill:none;stroke:#1D1E1C;stroke-width:4.2308;stroke-miterlimit:10;}
	.st5{fill:none;}
</style>
<g id="baggrund">
	<rect x="0.1" y="0" class="st0" width="160" height="160"/>
</g>
<g id="fraktion" class="st1">
	<g class="st2">
		<path class="st3" d="M64.6,136.3h5.5v0.4c0,1-0.1,1.9-0.4,2.7c-0.2,0.7-0.6,1.4-1.2,2c-1.2,1.4-2.8,2.1-4.7,2.1
			c-1.9,0-3.5-0.7-4.8-2c-1.3-1.4-2-3-2-4.9s0.7-3.6,2-4.9c1.4-1.4,3-2,5-2c1,0,2,0.2,2.9,0.6c0.9,0.4,1.7,1.1,2.6,2.1l-1.4,1.4
			c-1.1-1.5-2.4-2.2-4-2.2c-1.4,0-2.6,0.5-3.6,1.5s-1.4,2.2-1.4,3.6c0,1.5,0.5,2.7,1.6,3.7c1,0.9,2.1,1.3,3.3,1.3c1,0,1.9-0.3,2.7-1
			s1.2-1.5,1.3-2.4h-3.3L64.6,136.3L64.6,136.3z"/>
		<path class="st3" d="M74.7,129.9v11.5h3.9v1.9h-6v-13.4H74.7L74.7,129.9z"/>
		<path class="st3" d="M90,140.1h-5.7l-1.5,3.3h-2.2l6.6-14.2l6.4,14.2h-2.2L90,140.1z M89.2,138.2l-2-4.6l-2.1,4.6H89.2z"/>
		<path class="st3" d="M102.6,131.9l-1.6,1c-0.3-0.5-0.6-0.9-0.9-1c-0.3-0.2-0.7-0.3-1.1-0.3c-0.6,0-1,0.2-1.4,0.5s-0.6,0.7-0.6,1.2
			c0,0.7,0.5,1.2,1.5,1.6l1.3,0.5c1.1,0.4,1.9,1,2.4,1.6s0.8,1.4,0.8,2.3c0,1.2-0.4,2.3-1.2,3.1c-0.8,0.8-1.9,1.2-3.1,1.2
			s-2.1-0.3-2.9-1c-0.7-0.7-1.2-1.7-1.4-2.9l2-0.5c0.1,0.8,0.3,1.3,0.5,1.6c0.4,0.6,1,0.9,1.8,0.9c0.6,0,1.2-0.2,1.6-0.6
			c0.4-0.4,0.6-1,0.6-1.6c0-0.3,0-0.5-0.1-0.7s-0.2-0.4-0.3-0.6c-0.2-0.2-0.4-0.4-0.6-0.5s-0.5-0.3-0.9-0.5l-1.3-0.5
			c-1.8-0.8-2.8-1.9-2.8-3.4c0-1,0.4-1.8,1.2-2.5c0.8-0.7,1.7-1,2.9-1C100.5,129.7,101.8,130.4,102.6,131.9z"/>
	</g>
</g>
<g id="ikon">
	<path class="st4" d="M80,131.2"/>
	<g>
		<g>
			<path class="st5" d="M80,114c-4.9,0-9,3-10.7,7.2H71c1.6-3.3,5-5.6,9-5.6s7.4,2.3,9,5.6h1.8C89,117,84.9,114,80,114z"/>
			<path class="st3" d="M93.6,86.3c0-21.3-9.3-19.6-9.6-39.5v-12h-8v12c-0.3,20-9.6,18.2-9.6,39.5v36.5h27.2L93.6,86.3z M89,121.2
				c-1.6-3.3-5-5.6-9-5.6s-7.4,2.3-9,5.6h-1.8C71,117,75.1,114,80,114s9,3,10.7,7.2H89z"/>
		</g>
	</g>
</g>
</svg>
