<?xml version="1.0" encoding="utf-8"?>
<!-- Generator: Adobe Illustrator 25.4.1, SVG Export Plug-In . SVG Version: 6.00 Build 0)  -->
<svg version="1.1" id="Layer_1" xmlns="http://www.w3.org/2000/svg" xmlns:xlink="http://www.w3.org/1999/xlink" x="0px" y="0px"
	 width="160px" height="160px" viewBox="0 0 160 160" style="enable-background:new 0 0 160 160;" xml:space="preserve">
<style type="text/css">
	.st0{fill:#F0910A;}
	.st1{fill:#FFFFFF;stroke:#F08700;stroke-width:0.1454;stroke-miterlimit:10;}
</style>
<rect x="0" y="0" class="st0" width="160" height="160"/>
<g>
	<g>
		<path class="st1" d="M49.7,53.7v66.6h60.6V53.7H49.7z M95.7,97.6c-4.2,4.2-9.8,6.5-15.7,6.5c-5.9,0-11.5-2.3-15.7-6.5
			c-4.2-4.2-6.5-9.8-6.5-15.7c0-5.9,2.3-11.5,6.5-15.7c4.2-4.2,9.8-6.5,15.7-6.5c5.9,0,11.5,2.3,15.7,6.5c4.2,4.2,6.5,9.8,6.5,15.7
			C102.2,87.8,99.9,93.4,95.7,97.6z"/>
		<path class="st1" d="M80,63.7c-4.9,0-9.4,1.9-12.9,5.3c-3.4,3.4-5.3,8-5.3,12.9c0,4.9,1.9,9.4,5.3,12.9c3.4,3.4,8,5.3,12.9,5.3
			c4.9,0,9.4-1.9,12.9-5.3c3.4-3.4,5.3-8,5.3-12.9c0-4.9-1.9-9.4-5.3-12.9C89.4,65.6,84.9,63.7,80,63.7z"/>
	</g>
	<path class="st1" d="M49.7,39.6v12.1h60.6V39.6H49.7z M69.9,46.7H54.8v-2h15.1V46.7z M100.2,48.7c-1.7,0-3-1.4-3-3c0-1.7,1.4-3,3-3
		c1.7,0,3,1.4,3,3C103.3,47.3,101.9,48.7,100.2,48.7z"/>
</g>
</svg>
