<?xml version="1.0" encoding="utf-8"?>
<!-- Generator: Adobe Illustrator 25.4.1, SVG Export Plug-In . SVG Version: 6.00 Build 0)  -->
<svg version="1.1" id="Layer_1" xmlns="http://www.w3.org/2000/svg" xmlns:xlink="http://www.w3.org/1999/xlink" x="0px" y="0px"
	 width="160px" height="160px" viewBox="0 0 160 160" style="enable-background:new 0 0 160 160;" xml:space="preserve">
<style type="text/css">
	.st0{fill:#F0910A;}
	.st1{display:none;}
	.st2{display:inline;}
	.st3{fill:#FFFFFF;}
</style>
<g id="baggrund">
	<rect class="st0" width="160" height="160"/>
</g>
<g id="fraktion" class="st1">
	<g class="st2">
		<path class="st3" d="M29.9,115.3c-0.1,0.6-0.3,1.2-0.6,1.9l-3.5,7.2l-3.5-7.3c-0.3-0.5-0.5-1.1-0.7-1.7c0,0.6-0.1,1.3-0.2,1.9
			l-1.4,6.6h-2l3.2-14l4,8.4c0.1,0.2,0.4,0.8,0.7,1.8c0.3-0.8,0.6-1.4,0.8-1.8l3.9-8.4l3.3,14h-2l-1.5-6.6
			C30.1,116.9,30.1,116.3,29.9,115.3z"/>
		<path class="st3" d="M35.4,110.3h7.5v1.9h-5.3v3.4h5.3v1.9h-5.3v4.3h5.3v2h-7.5V110.3z"/>
		<path class="st3" d="M45.4,110.3h2.2v11.5h4.9v2h-7.1V110.3z"/>
		<path class="st3" d="M54,110.3h2.2v11.5h4.9v2H54V110.3z"/>
		<path class="st3" d="M62.6,110.3h7.5v1.9h-5.3v3.4h5.3v1.9h-5.3v4.3h5.3v2h-7.5C62.6,123.8,62.6,110.3,62.6,110.3z"/>
		<path class="st3" d="M83.4,115.3c-0.1,0.6-0.3,1.2-0.6,1.9l-3.5,7.2l-3.5-7.3c-0.3-0.5-0.5-1.1-0.7-1.7c0,0.6-0.1,1.3-0.2,1.9
			l-1.4,6.6h-2l3.2-14l4,8.4c0.1,0.2,0.4,0.8,0.7,1.8c0.3-0.8,0.6-1.4,0.8-1.8l3.9-8.4l3.3,14h-2l-1.5-6.6
			C83.6,116.9,83.6,116.3,83.4,115.3z"/>
		<path class="st3" d="M89.9,120.3c0.3,1.2,1.2,1.8,2.6,1.8c1.3,0,2.1-0.8,2.1-2c0-1.3-1-1.6-2.4-2.3c-2.4-1.2-3.7-2.1-3.7-4.1
			c0-2.2,1.6-3.7,4-3.7c2,0,3.4,0.8,3.9,2.2l-1.7,0.9c-0.5-0.8-1.1-1.2-2-1.2c-1.2,0-1.9,0.7-1.9,1.7c0,1.3,1.1,1.7,2.6,2.4
			c2.4,1.1,3.5,2.1,3.5,4c0,2.5-1.7,4.2-4.5,4.2c-2.3,0-3.8-1.1-4.3-3L89.9,120.3z"/>
		<path class="st3" d="M103.5,123.8h-2.2v-11.6h-3.6v-1.9h9.3v1.9h-3.6V123.8z"/>
		<path class="st3" d="M119.6,122.1c-1.4,1.3-3.2,2.1-5.1,2.1c-1.9,0-3.7-0.7-5.1-2.1c-1.4-1.3-2.1-3.1-2.1-5c0-1.9,0.7-3.7,2.1-5
			c1.4-1.3,3.2-2.1,5.1-2.1c1.9,0,3.7,0.7,5.1,2.1c1.4,1.4,2.1,3.1,2.1,5C121.7,119,121,120.7,119.6,122.1z M118,113.5
			c-0.9-1-2.2-1.5-3.5-1.5c-1.3,0-2.5,0.5-3.5,1.5c-0.9,1-1.4,2.2-1.4,3.6c0,1.4,0.5,2.6,1.4,3.6c0.9,1,2.2,1.5,3.5,1.5
			c1.3,0,2.5-0.5,3.5-1.5s1.4-2.2,1.4-3.6C119.4,115.7,118.9,114.5,118,113.5z"/>
		<path class="st3" d="M126.1,123.8H124v-13.5h3c1.4,0,2.5,0.1,3.3,0.8c0.8,0.6,1.3,1.7,1.3,3c0,2.2-1.1,3.4-3.1,3.6l4.6,6.1h-2.5
			l-4.5-6h-0.2C126.1,117.8,126.1,123.8,126.1,123.8z M126.6,116.1c1.9,0,2.9-0.2,2.9-1.8c0-1.7-0.9-2-2.9-2h-0.4v3.9H126.6z"/>
		<path class="st3" d="M138.7,123.8h-2.2v-11.6h-3.6v-1.9h9.3v1.9h-3.6V123.8z"/>
		<path class="st3" d="M27.4,129.8h7.5v1.9h-5.3v3.4h5.3v1.9h-5.3v4.3h5.3v2h-7.5C27.4,143.2,27.4,129.8,27.4,129.8z"/>
		<path class="st3" d="M37.5,129.8h2.2v11.5h4.9v2h-7.1V129.8z"/>
		<path class="st3" d="M46.1,129.8h7.5v1.9h-5.3v3.4h5.3v1.9h-5.3v4.3h5.3v2h-7.5C46.1,143.2,46.1,129.8,46.1,129.8z"/>
		<path class="st3" d="M56.1,129.8h2.2v5.6l4.8-5.6h2.7l-5.3,6l6,7.5h-2.8l-5.3-6.9v6.9h-2.2V129.8z"/>
		<path class="st3" d="M72.5,143.2h-2.2v-11.6h-3.6v-1.9h9.3v1.9h-3.6C72.5,131.6,72.5,143.2,72.5,143.2z"/>
		<path class="st3" d="M79.6,143.2h-2.1v-13.5h3c1.4,0,2.5,0.1,3.3,0.8c0.8,0.6,1.3,1.7,1.3,3c0,2.2-1.1,3.4-3.1,3.6l4.6,6.1h-2.5
			l-4.5-6h-0.2V143.2z M80.1,135.5c1.9,0,2.9-0.2,2.9-1.8c0-1.7-0.9-2-2.9-2h-0.4v3.9H80.1z"/>
		<path class="st3" d="M99.4,141.5c-1.4,1.3-3.2,2.1-5.1,2.1c-1.9,0-3.7-0.7-5.1-2.1c-1.4-1.3-2.1-3.1-2.1-5c0-1.9,0.7-3.6,2.1-5
			c1.4-1.3,3.2-2.1,5.1-2.1s3.7,0.7,5.1,2.1c1.4,1.4,2.1,3.1,2.1,5C101.5,138.4,100.7,140.2,99.4,141.5z M97.7,132.9
			c-0.9-1-2.2-1.5-3.5-1.5s-2.5,0.5-3.5,1.5c-0.9,1-1.4,2.2-1.4,3.6c0,1.4,0.5,2.6,1.4,3.6c0.9,1,2.2,1.5,3.5,1.5
			c1.3,0,2.5-0.5,3.5-1.5c0.9-1,1.4-2.2,1.4-3.6C99.2,135.2,98.7,133.9,97.7,132.9z"/>
		<path class="st3" d="M103.8,129.2l8.5,8.2c0.5,0.5,1,1.1,1.5,1.6v-9.3h2v14l-8.7-8.4c-0.5-0.5-0.9-1-1.3-1.5v9.4h-2L103.8,129.2
			L103.8,129.2z"/>
		<path class="st3" d="M118.9,129.8h2.2v13.5h-2.2V129.8z"/>
		<path class="st3" d="M124,129.8h2.2v5.6l4.8-5.6h2.7l-5.3,6l6,7.5h-2.8l-5.3-6.9v6.9H124L124,129.8L124,129.8z"/>
	</g>
</g>
<g id="ikon">
	<g>
		<g>
			<path class="st3" d="M90.5,44.4c0-1.1-0.7-2-1.6-2s-1.6,0.9-1.6,2v12.4h3.2V44.4z"/>
			<path class="st3" d="M72.8,44.4c0-1.1-0.7-2-1.6-2c-0.9,0-1.6,0.9-1.6,2v12.4h3.2V44.4z"/>
		</g>
		<rect x="77.6" y="95.2" class="st3" width="4.8" height="24.4"/>
		<path class="st3" d="M96.9,58.4H63.2c0,0,0,8,0,8c0,1.2,0.3,2.3,1,3.4l11.1,16.7v7.1h9.6v-7.1l11.1-16.7c0.7-1.1,1-2.2,1-3.4
			C96.9,66.4,96.9,58.4,96.9,58.4z"/>
	</g>
</g>
</svg>
