<?xml version="1.0" encoding="utf-8"?>
<!-- Generator: Adobe Illustrator 25.4.1, SVG Export Plug-In . SVG Version: 6.00 Build 0)  -->
<svg version="1.1" id="Layer_1" xmlns="http://www.w3.org/2000/svg" xmlns:xlink="http://www.w3.org/1999/xlink" x="0px" y="0px"
	 width="160px" height="160px" viewBox="0 0 160 160" style="enable-background:new 0 0 160 160;" xml:space="preserve">
<style type="text/css">
	.st0{fill:#0082BE;}
	.st1{display:none;}
	.st2{display:inline;}
	.st3{fill:#FFFFFF;}
</style>
<g id="baggrund">
	<rect class="st0" width="160" height="160"/>
</g>
<g id="fraktion" class="st1">
	<g class="st2">
		<path class="st3" d="M19,143.2H17v-13.5h2.9c0.2,0,0.3,0,0.4,0c1.4,0,2.5,0,3.4,0.7c0.8,0.6,1.4,1.7,1.4,3c0,1.3-0.5,2.4-1.4,3
			c-0.9,0.6-2,0.7-3.4,0.7c-0.1,0-0.3,0-0.4,0H19V143.2z M19.7,135.4c2,0,3-0.2,3-1.8c0-1.6-1-2-3-2h-0.6v3.7H19.7z"/>
		<path class="st3" d="M33,139.8h-5.3l-1.6,3.5h-2.3l6.5-14l6.5,14h-2.3L33,139.8z M32.2,137.9l-1.4-3.1c-0.2-0.4-0.3-0.8-0.5-1.5
			c-0.2,0.7-0.3,1.2-0.5,1.5l-1.4,3.1H32.2z"/>
		<path class="st3" d="M40.2,143.2h-2.1v-13.5H41c0.2,0,0.3,0,0.4,0c1.4,0,2.5,0,3.4,0.7c0.8,0.6,1.4,1.7,1.4,3c0,1.3-0.5,2.4-1.4,3
			c-0.9,0.6-2,0.7-3.4,0.7c-0.1,0-0.3,0-0.4,0h-0.8V143.2z M40.9,135.4c2,0,3-0.2,3-1.8c0-1.6-1-2-3-2h-0.6v3.7H40.9z"/>
		<path class="st3" d="M47.8,129.8H50v13.5h-2.2V129.8z"/>
		<path class="st3" d="M55,143.2H53v-13.5h3c1.4,0,2.5,0.1,3.3,0.8c0.8,0.6,1.3,1.7,1.3,3c0,2.2-1.1,3.4-3.1,3.6l4.6,6.1h-2.5
			l-4.5-6H55V143.2z M55.6,135.5c1.9,0,2.9-0.2,2.9-1.8c0-1.7-0.9-2-2.9-2h-0.4v3.9H55.6z"/>
		<path class="st3" d="M76.6,141.9c-1.3,1.1-2.6,1.6-4.2,1.6c-2.5,0-4.2-1.6-4.2-3.8c0-1.6,1-2.8,3-4.1l-0.5-0.6
			c-0.6-0.7-0.9-1.4-0.9-2.2c0-1.7,1.4-3,3.5-3s3.3,1.1,3.3,2.8c0,1.4-0.9,2.4-2.6,3.4l2.8,3.3c0.6-0.6,1.2-1.3,1.7-2.1l1.3,1.4
			c-0.5,0.8-1.1,1.5-1.8,2.1l2.3,2.6h-2.5L76.6,141.9z M72.4,137.1l-0.3,0.2c-1.1,0.7-1.7,1.3-1.7,2.3c0,1.2,0.9,2.1,2.2,2.1
			c0.9,0,1.8-0.4,2.8-1.3L72.4,137.1z M73.4,134.4c0.7-0.4,1-0.9,1-1.6c0-0.8-0.5-1.3-1.3-1.3c-0.8,0-1.4,0.5-1.4,1.3
			c0,0.4,0.2,0.7,0.4,1.1l0.7,0.8L73.4,134.4z"/>
		<path class="st3" d="M94.9,139.8h-5.3l-1.6,3.5h-2.3l6.5-14l6.5,14h-2.3L94.9,139.8z M94.1,137.9l-1.4-3.1
			c-0.2-0.4-0.3-0.8-0.5-1.5c-0.2,0.7-0.3,1.2-0.5,1.5l-1.4,3.1H94.1z"/>
		<path class="st3" d="M96.9,129.8h2.3l3,7.2c0.3,0.8,0.6,1.4,0.7,2.2c0.2-0.7,0.4-1.4,0.7-2.2l3-7.2h2.3l-6,14L96.9,129.8z"/>
		<path class="st3" d="M110.3,129.8h2.2v13.5h-2.2V129.8z"/>
		<path class="st3" d="M116.4,139.7c0.3,1.2,1.2,1.8,2.6,1.8c1.3,0,2.1-0.8,2.1-2c0-1.3-1-1.6-2.4-2.3c-2.4-1.2-3.7-2.1-3.7-4.1
			c0-2.2,1.6-3.7,4-3.7c2,0,3.4,0.8,3.9,2.2l-1.7,0.9c-0.5-0.8-1.1-1.2-2-1.2c-1.2,0-1.9,0.7-1.9,1.7c0,1.3,1.1,1.7,2.6,2.4
			c2.4,1.1,3.5,2.1,3.5,4c0,2.5-1.7,4.2-4.5,4.2c-2.3,0-3.8-1.1-4.3-3L116.4,139.7z"/>
		<path class="st3" d="M125.6,129.8h7.5v1.9h-5.3v3.4h5.3v1.9h-5.3v4.3h5.3v2h-7.5C125.6,143.2,125.6,129.8,125.6,129.8z"/>
		<path class="st3" d="M137.6,143.2h-2.1v-13.5h3c1.4,0,2.5,0.1,3.3,0.8c0.8,0.6,1.3,1.7,1.3,3c0,2.2-1.1,3.4-3.1,3.6l4.6,6.1h-2.5
			l-4.5-6h-0.2L137.6,143.2L137.6,143.2z M138.2,135.5c1.9,0,2.9-0.2,2.9-1.8c0-1.7-0.9-2-2.9-2h-0.4v3.9H138.2z"/>
	</g>
</g>
<g id="ikon">
	<g>
		<g>
			<polygon class="st3" points="79.2,68.2 79.2,42.4 53.4,68.2 			"/>
			<polygon class="st3" points="80.8,41 80.8,69.8 52,69.8 52,121 108,121 108,41 			"/>
		</g>
	</g>
</g>
</svg>
