<?xml version="1.0" encoding="utf-8"?>
<!-- Generator: Adobe Illustrator 25.4.1, SVG Export Plug-In . SVG Version: 6.00 Build 0)  -->
<svg version="1.1" id="Layer_1" xmlns="http://www.w3.org/2000/svg" xmlns:xlink="http://www.w3.org/1999/xlink" x="0px" y="0px"
	 width="160px" height="160px" viewBox="0 0 160 160" style="enable-background:new 0 0 160 160;" xml:space="preserve">
<style type="text/css">
	.st0{fill:#F0910A;}
	.st1{display:none;}
	.st2{display:inline;}
	.st3{fill:#FFFFFF;}
</style>
<g id="baggrund">
	<rect class="st0" width="160" height="160"/>
</g>
<g id="fraktion" class="st1">
	<g class="st2">
		<path class="st3" d="M20.9,120.3c0.3,1.2,1.2,1.8,2.6,1.8c1.3,0,2.1-0.8,2.1-2c0-1.3-1-1.6-2.4-2.3c-2.4-1.2-3.7-2.1-3.7-4.1
			c0-2.2,1.6-3.7,4-3.7c2,0,3.4,0.8,3.9,2.2l-1.7,0.9c-0.5-0.8-1.1-1.2-2-1.2c-1.2,0-1.9,0.7-1.9,1.7c0,1.3,1.1,1.7,2.6,2.4
			c2.4,1.1,3.5,2.1,3.5,4c0,2.5-1.7,4.2-4.5,4.2c-2.3,0-3.8-1.1-4.3-3L20.9,120.3z"/>
		<path class="st3" d="M30.1,110.3h2.2v5.6l4.8-5.6h2.7l-5.3,6l6,7.5h-2.8l-5.3-6.9v6.9h-2.2C30.1,123.8,30.1,110.3,30.1,110.3z"/>
		<path class="st3" d="M54.2,112.2h-4.9l1.2,3.3H55l0.7,1.9h-4.5l1.6,4.4h4.9l0.7,2h-7.1l-1.3-3.5h-5.3l-1.6,3.5h-2.3l6.3-13.5h6.2
			L54.2,112.2z M49.5,118.5l-1.1-3.1c-0.3-0.8-0.5-1.5-0.7-2.2c-0.1,0.7-0.4,1.3-0.7,2.1l-1.4,3.3L49.5,118.5L49.5,118.5z"/>
		<path class="st3" d="M61.9,123.8h-2.1v-13.5h3c1.4,0,2.5,0.1,3.3,0.8c0.8,0.6,1.3,1.7,1.3,3c0,2.2-1.1,3.4-3.1,3.6l4.6,6.1h-2.5
			l-4.5-6h-0.2C61.9,117.8,61.9,123.8,61.9,123.8z M62.5,116.1c1.9,0,2.9-0.2,2.9-1.8c0-1.7-0.9-2-2.9-2h-0.4v3.9H62.5z"/>
		<path class="st3" d="M81.9,115.3c-0.1,0.6-0.3,1.2-0.6,1.9l-3.5,7.2l-3.5-7.3c-0.3-0.5-0.5-1.1-0.7-1.7c0,0.6-0.1,1.3-0.2,1.9
			l-1.4,6.6h-2l3.2-14l4,8.4c0.1,0.2,0.4,0.8,0.7,1.8c0.3-0.8,0.6-1.4,0.8-1.8l3.9-8.4l3.3,14h-2l-1.5-6.6
			C82.1,116.9,82,116.3,81.9,115.3z"/>
		<path class="st3" d="M87.4,110.3h7.5v1.9h-5.3v3.4h5.3v1.9h-5.3v4.3h5.3v2h-7.5V110.3z"/>
		<path class="st3" d="M113.8,115.3c-0.1,0.6-0.3,1.2-0.6,1.9l-3.5,7.2l-3.5-7.3c-0.3-0.5-0.5-1.1-0.7-1.7c0,0.6-0.1,1.3-0.2,1.9
			l-1.4,6.6h-2l3.2-14l4,8.4c0.1,0.2,0.4,0.8,0.7,1.8c0.3-0.8,0.6-1.4,0.8-1.8l3.9-8.4l3.3,14h-2l-1.5-6.6
			C114,116.9,113.9,116.3,113.8,115.3z"/>
		<path class="st3" d="M119.3,110.3h7.5v1.9h-5.3v3.4h5.3v1.9h-5.3v4.3h5.3v2h-7.5V110.3z"/>
		<path class="st3" d="M129.3,110.3h3c2.5,0,4.5,0,6.1,1.3c1.5,1.2,2.4,3.1,2.4,5.5s-0.8,4.3-2.4,5.5c-1.6,1.2-3.3,1.3-5.5,1.3
			c-0.2,0-0.4,0-0.6,0h-3L129.3,110.3L129.3,110.3z M132.3,121.8c0.4,0,0.7,0,1.1,0c1.5,0,2.6-0.1,3.6-0.9c1-0.9,1.5-2.2,1.5-3.9
			c0-1.7-0.5-3-1.5-3.9c-1-0.8-2.2-0.9-3.9-0.9c-0.2,0-0.5,0-0.8,0h-0.8v9.5L132.3,121.8L132.3,121.8z"/>
		<path class="st3" d="M34.2,129.8h3.4c1.4,0,2.5,0.1,3.3,0.7c0.8,0.6,1.3,1.6,1.3,2.8c0,1.4-0.7,2.4-1.9,2.8
			c1.6,0.2,2.5,1.5,2.5,3.3c0,1.1-0.4,2.1-1.1,2.8c-1,1-2.2,1-4.1,1h-3.4C34.2,143.2,34.2,129.8,34.2,129.8z M37.2,135.4
			c2,0,2.9-0.5,2.9-1.9c0-1.7-0.9-2-2.9-2h-0.8v3.9H37.2z M37.1,141.4c1.2,0,2.1-0.1,2.6-0.4c0.5-0.4,0.8-1,0.8-1.7
			c0-0.8-0.4-1.5-1-1.9c-0.5-0.3-1.1-0.3-1.8-0.3c-0.2,0-0.4,0-0.7,0h-0.8v4.3L37.1,141.4L37.1,141.4z"/>
		<path class="st3" d="M45.1,129.8h2.2v13.5h-2.2V129.8z"/>
		<path class="st3" d="M50.3,129.8h2.2v11.5h4.9v2h-7.1V129.8z"/>
		<path class="st3" d="M58.9,129.8h2.2v11.5H66v2h-7.1V129.8z"/>
		<path class="st3" d="M67.5,129.8H75v1.9h-5.3v3.4H75v1.9h-5.3v4.3H75v2h-7.5V129.8z"/>
		<path class="st3" d="M77.6,129.8h3c2.5,0,4.5,0,6.1,1.3c1.5,1.2,2.4,3.1,2.4,5.5s-0.8,4.3-2.4,5.5c-1.6,1.2-3.3,1.3-5.5,1.3
			c-0.2,0-0.4,0-0.6,0h-3L77.6,129.8L77.6,129.8z M80.5,141.2c0.4,0,0.7,0,1.1,0c1.5,0,2.6-0.1,3.6-0.9c1-0.9,1.5-2.2,1.5-3.9
			c0-1.7-0.5-3-1.5-3.9c-1-0.8-2.2-0.9-3.9-0.9c-0.2,0-0.5,0-0.8,0h-0.8v9.5L80.5,141.2L80.5,141.2z"/>
		<path class="st3" d="M93.4,143.2h-2.1v-13.5h3c1.4,0,2.5,0.1,3.3,0.8c0.8,0.6,1.3,1.7,1.3,3c0,2.2-1.1,3.4-3.1,3.6l4.6,6.1h-2.5
			l-4.5-6h-0.2V143.2z M93.9,135.5c1.9,0,2.9-0.2,2.9-1.8c0-1.7-0.9-2-2.9-2h-0.4v3.9H93.9z"/>
		<path class="st3" d="M101.7,142.9l1.7-1.8c-1.2-1.3-1.7-2.8-1.7-4.6c0-1.9,0.7-3.6,2.1-5c1.4-1.3,3.2-2.1,5.1-2.1
			c1.4,0,2.8,0.5,4.2,1.3l1.6-1.7l1.2,1l-1.6,1.7c1.3,1.4,1.9,2.9,1.9,4.7c0,1.9-0.7,3.6-2.1,5c-1.4,1.3-3.2,2.1-5.1,2.1
			c-1.6,0-3-0.5-4.3-1.4l-1.7,1.8L101.7,142.9z M108.8,131.5c-1.3,0-2.6,0.5-3.5,1.5c-0.9,1-1.4,2.2-1.4,3.6c0,1.1,0.3,2.1,1,3
			l6.7-7.1C110.7,131.7,109.8,131.5,108.8,131.5z M108.7,141.5c1.5,0,2.7-0.5,3.6-1.5c0.9-1,1.4-2.2,1.4-3.6c0-1.2-0.4-2.2-1.1-3.1
			l-6.7,7.2C106.7,141.2,107.6,141.5,108.7,141.5z"/>
		<path class="st3" d="M120.4,143.2h-2.1v-13.5h3c1.4,0,2.5,0.1,3.3,0.8c0.8,0.6,1.3,1.7,1.3,3c0,2.2-1.1,3.4-3.1,3.6l4.6,6.1h-2.5
			l-4.5-6h-0.2L120.4,143.2L120.4,143.2z M120.9,135.5c1.9,0,2.9-0.2,2.9-1.8c0-1.7-0.9-2-2.9-2h-0.4v3.9H120.9z"/>
	</g>
</g>
<g id="ikon">
	<g>
		<path class="st3" d="M120.8,45H39.2c-1.7,0-3.2,1.4-3.2,3.2v62.1c0,1.7,1.4,3.2,3.2,3.2h1.7v3.6h78.2v-3.6h1.7
			c1.7,0,3.2-1.4,3.2-3.2V48.2C124,46.4,122.6,45,120.8,45z M120.8,108.6c0,0.9-0.7,1.6-1.6,1.6H40.8c-0.9,0-1.6-0.7-1.6-1.6V49.8
			c0-0.9,0.7-1.6,1.6-1.6h78.4c0.9,0,1.6,0.7,1.6,1.6C120.8,49.8,120.8,108.6,120.8,108.6z"/>
		<path class="st3" d="M113.2,51.6c-0.2,0-20.7-1.3-33.2-1.3c-12.5,0-33,1.3-33.2,1.3c-2.2,0.1-4.2,2.1-4.4,4.3
			c0,0.1-1.2,14.1-1.2,23.4c0,9.3,1.2,23.2,1.2,23.4c0.2,2.2,2.2,4.1,4.4,4.3c0.2,0,20.7,1.3,33.2,1.3c12.5,0,33-1.3,33.2-1.3
			c2.2-0.1,4.2-2.1,4.4-4.3c0-0.1,1.2-14.1,1.2-23.4c0-9.3-1.2-23.2-1.2-23.4C117.4,53.6,115.4,51.7,113.2,51.6z"/>
	</g>
</g>
</svg>
