<?xml version="1.0" encoding="utf-8"?>
<!-- Generator: Adobe Illustrator 25.4.1, SVG Export Plug-In . SVG Version: 6.00 Build 0)  -->
<svg version="1.1" id="Layer_1" xmlns="http://www.w3.org/2000/svg" xmlns:xlink="http://www.w3.org/1999/xlink" x="0px" y="0px"
	 width="160px" height="160px" viewBox="0 0 160 160" style="enable-background:new 0 0 160 160;" xml:space="preserve">
<style type="text/css">
	.st0{fill:#A01E41;}
	.st1{display:none;}
	.st2{display:inline;}
	.st3{fill:#FFFFFF;}
</style>
<g id="baggrund">
	<g>
		<rect class="st0" width="160" height="160"/>
	</g>
</g>
<g id="fraktion" class="st1">
	<g class="st2">
		<path class="st3" d="M43.8,131.7v11.5h-2v-11.5h-3.1v-1.9h8.2v1.9H43.8z"/>
		<path class="st3" d="M56.5,131.7h-5.4v3.2h5.2v1.9h-5.2v4.5h5.4v1.9h-7.4v-13.4h7.4L56.5,131.7L56.5,131.7z"/>
		<path class="st3" d="M60.8,135.2l5.2-5.3h2.7l-6.1,6.1l6.1,7.3h-2.7l-4.8-6l-0.4,0.4v5.5h-2v-13.4h2
			C60.8,129.8,60.8,135.2,60.8,135.2z"/>
		<path class="st3" d="M77.7,131.8l-1.6,1c-0.3-0.5-0.6-0.9-0.9-1c-0.3-0.2-0.7-0.3-1.1-0.3c-0.6,0-1,0.2-1.4,0.5
			c-0.4,0.3-0.6,0.7-0.6,1.2c0,0.7,0.5,1.2,1.5,1.6l1.3,0.5c1.1,0.4,1.9,1,2.4,1.6c0.5,0.6,0.8,1.4,0.8,2.3c0,1.2-0.4,2.3-1.2,3.1
			c-0.8,0.8-1.9,1.2-3.1,1.2c-1.2,0-2.1-0.3-2.9-1c-0.7-0.7-1.2-1.7-1.4-2.9l2-0.5c0.1,0.8,0.3,1.3,0.5,1.6c0.4,0.6,1,0.9,1.8,0.9
			c0.6,0,1.2-0.2,1.6-0.6s0.6-1,0.6-1.6c0-0.3,0-0.5-0.1-0.7c-0.1-0.2-0.2-0.4-0.3-0.6c-0.2-0.2-0.4-0.4-0.6-0.5s-0.5-0.3-0.9-0.5
			l-1.3-0.5c-1.8-0.8-2.8-1.9-2.8-3.4c0-1,0.4-1.8,1.2-2.5c0.8-0.7,1.7-1,2.9-1C75.6,129.6,76.8,130.3,77.7,131.8z"/>
		<path class="st3" d="M84.5,131.7v11.5h-2v-11.5h-3.1v-1.9h8.2v1.9H84.5z"/>
		<path class="st3" d="M92.1,129.8v13.4h-2v-13.4H92.1z"/>
		<path class="st3" d="M96.5,129.8v11.5h3.9v1.9h-6v-13.4L96.5,129.8L96.5,129.8z"/>
		<path class="st3" d="M110.3,131.7h-5.4v3.2h5.2v1.9h-5.2v4.5h5.4v1.9h-7.4v-13.4h7.4V131.7z"/>
		<path class="st3" d="M117.2,137.5l4.1,5.7h-2.5l-3.8-5.5h-0.4v5.5h-2v-13.4h2.4c1.8,0,3.1,0.3,3.8,1c0.9,0.7,1.3,1.7,1.3,2.9
			c0,0.9-0.3,1.8-0.8,2.4C118.8,136.9,118.1,137.3,117.2,137.5z M114.6,136h0.6c1.9,0,2.9-0.7,2.9-2.2c0-1.4-0.9-2.1-2.8-2.1h-0.7
			C114.6,131.7,114.6,136,114.6,136z"/>
	</g>
</g>
<g id="ikon">
	<g>
		<g>
			<g>
				<path class="st3" d="M90.8,45c-1.9,4-6.1,6.8-10.8,6.8S71.1,49,69.2,45H40v20.6h16V117h30.1l3.4-4.3l-3.2-3.7L88,105l-1.6-2
					l1.6-4.1L86.1,93l5.9,8.1l-1.5,3.1l3.5,4.2l-1.6,2.5l4.2,6.2h7.3V65.6h16V45H90.8z"/>
			</g>
		</g>
	</g>
</g>
</svg>
